OxygenSans-Light.ufo
<glyph name="exclam" format="1">
  <advance width="433.00000073"/>
  <unicode hex="0021"/>
  <outline>
    <contour>
      <point x="191.200000301" y="389.200000107" type="line"/>
      <point x="246.600000516" y="389.200000107" type="line"/>
      <point x="294.800000548" y="1266.19999948" type="line"/>
      <point x="294.800000548" y="1369.39999987" type="line"/>
      <point x="138.400000259" y="1369.39999987" type="line"/>
      <point x="138.400000259" y="1266.19999948" type="line"/>
    </contour>
    <contour>
      <point x="218.600000381" y="-12.5999999791" type="curve" smooth="yes"/>
      <point x="299.20000039" y="-12.5999999791"/>
      <point x="329.400000513" y="45.0000000596"/>
      <point x="329.400000513" y="99.000000149" type="curve" smooth="yes"/>
      <point x="329.400000513" y="153.200000241"/>
      <point x="299.20000039" y="210.000000283"/>
      <point x="218.600000381" y="210.000000283" type="curve" smooth="yes"/>
      <point x="140.200000361" y="210.000000283"/>
      <point x="108.400000244" y="153.200000241"/>
      <point x="108.400000244" y="99.000000149" type="curve" smooth="yes"/>
      <point x="108.400000244" y="45.0000000596"/>
      <point x="140.200000361" y="-12.5999999791"/>
    </contour>
  </outline>
</glyph>
<glyph name="quotedbl" format="1">
  <advance width="593.200000629"/>
  <unicode hex="0022"/>
  <outline>
    <contour>
      <point x="130.800000027" y="948.199999586" type="line"/>
      <point x="193.400000393" y="948.199999586" type="line"/>
      <point x="220.600000396" y="1380.79999983" type="line"/>
      <point x="115.599999964" y="1380.79999983" type="line"/>
    </contour>
    <contour>
      <point x="386.400000483" y="944.999999598" type="line"/>
      <point x="450.600000843" y="944.999999598" type="line"/>
      <point x="475.400000855" y="1380.79999983" type="line"/>
      <point x="371.20000042" y="1380.79999983" type="line"/>
    </contour>
  </outline>
</glyph>
<glyph name="numbersign" format="1">
  <advance width="1126.40000032"/>
  <unicode hex="0023"/>
  <outline>
    <contour>
      <point x="237.800000042" y="-23.3999999613" type="line"/>
      <point x="328.000000402" y="-23.3999999613" type="line"/>
      <point x="401.20000039" y="374.599999979" type="line"/>
      <point x="642.400000036" y="374.599999979" type="line"/>
      <point x="563.800000072" y="-23.3999999613" type="line"/>
      <point x="678.800000355" y="-23.3999999613" type="line"/>
      <point x="761.000000313" y="374.599999979" type="line"/>
      <point x="881.200000584" y="374.599999979" type="line"/>
      <point x="890.200000584" y="468.600000292" type="line"/>
      <point x="771.600000381" y="468.600000292" type="line"/>
      <point x="837.400000319" y="859.399999812" type="line"/>
      <point x="951.600000575" y="859.399999812" type="line"/>
      <point x="963.600000575" y="950.000000149" type="line"/>
      <point x="853.000000387" y="950.000000149" type="line"/>
      <point x="911.000000417" y="1328.00000003" type="line"/>
      <point x="822.200000048" y="1328.00000003" type="line"/>
      <point x="758.800000042" y="950.000000149" type="line"/>
      <point x="519.600000381" y="950.000000149" type="line"/>
      <point x="594.400000349" y="1328.00000003" type="line"/>
      <point x="476.200000077" y="1328.00000003" type="line"/>
      <point x="397.40000011" y="950.000000149" type="line"/>
      <point x="235.999999925" y="950.000000149" type="line"/>
      <point x="227.399999931" y="858.399999812" type="line"/>
      <point x="378.200000063" y="858.399999812" type="line"/>
      <point x="319.600000113" y="468.600000292" type="line"/>
      <point x="166.999999925" y="468.600000292" type="line"/>
      <point x="157.999999925" y="374.599999979" type="line"/>
      <point x="304.800000042" y="374.599999979" type="line"/>
    </contour>
    <contour>
      <point x="418.800000444" y="468.600000292" type="line"/>
      <point x="500.800000325" y="859.399999812" type="line"/>
      <point x="741.599999979" y="859.399999812" type="line"/>
      <point x="660.000000104" y="468.600000292" type="line"/>
    </contour>
  </outline>
</glyph>
<glyph name="dollar" format="1">
  <advance width="1158.20000005"/>
  <unicode hex="0024"/>
  <outline>
    <contour>
      <point x="545.599999994" y="-17.8328000006" type="line"/>
      <point x="318.35360023" y="-12.938560004"/>
      <point x="201.010400138" y="73.063279821"/>
      <point x="142.399999946" y="117.399999887" type="curve"/>
      <point x="195.00000006" y="224.600000292" type="line"/>
      <point x="283.200000018" y="159.400000349"/>
      <point x="398.200000197" y="99.6000004113"/>
      <point x="573.400000036" y="99.6000004113" type="curve" smooth="yes"/>
      <point x="770.399999827" y="99.6000004113"/>
      <point x="881.799999669" y="169.200000346"/>
      <point x="888.999999642" y="348.200000137" type="curve" smooth="yes"/>
      <point x="894.599999622" y="490.399999902"/>
      <point x="839.599999622" y="543.999999896"/>
      <point x="658.599999934" y="613.599999756" type="curve" smooth="yes"/>
      <point x="434.999999911" y="698.19999972" type="line" smooth="yes"/>
      <point x="262.599999949" y="763.999999672"/>
      <point x="149.799999982" y="851.199999794"/>
      <point x="156.999999955" y="1032.39999983" type="curve" smooth="yes"/>
      <point x="167.158399917" y="1272.32799979"/>
      <point x="347.856799859" y="1356.49599996"/>
      <point x="545.599999994" y="1369.63999999" type="curve"/>
      <point x="545.599999994" y="1589.19999978" type="line"/>
      <point x="627.800000131" y="1589.19999978" type="line"/>
      <point x="629.136000126" y="1371.19199999" type="line"/>
      <point x="773.41680011" y="1365.94399998"/>
      <point x="903.56080011" y="1308.10400006"/>
      <point x="971.400000259" y="1256.60000002" type="curve"/>
      <point x="913.40000017" y="1156.59999959" type="line"/>
      <point x="873.399999976" y="1179.79999965"/>
      <point x="755.199999943" y="1253.59999958"/>
      <point x="597.800000086" y="1253.59999958" type="curve" smooth="yes"/>
      <point x="448.000000149" y="1253.59999958"/>
      <point x="302.000000417" y="1205.9999996"/>
      <point x="295.600000441" y="1037.39999983" type="curve" smooth="yes"/>
      <point x="290.800000459" y="918.00000003"/>
      <point x="339.800000414" y="871.800000027"/>
      <point x="479.200000122" y="816.600000158" type="curve" smooth="yes"/>
      <point x="692.400000125" y="733.4000002" type="line" smooth="yes"/>
      <point x="883.400000289" y="659.200000182"/>
      <point x="1034.00000012" y="586.000000045"/>
      <point x="1023.60000016" y="350.600000113" type="curve" smooth="yes"/>
      <point x="1012.5000002" y="102.523360166"/>
      <point x="848.332000204" y="-0.293983950476"/>
      <point x="628.07120013" y="-15.7662399897" type="curve"/>
      <point x="629.400000125" y="-238.399999708" type="line"/>
      <point x="545.599999994" y="-238.399999708" type="line"/>
    </contour>
  </outline>
</glyph>
<glyph name="percent" format="1">
  <advance width="1702.00000013"/>
  <unicode hex="0025"/>
  <outline>
    <contour>
      <point x="1311.40000014" y="-12.200000003" type="curve" smooth="yes"/>
      <point x="1099.80000012" y="-12.200000003"/>
      <point x="995.000000075" y="140.799999997"/>
      <point x="995.000000075" y="337.799999997" type="curve" smooth="yes"/>
      <point x="995.000000075" y="535.799999997"/>
      <point x="1102.80000012" y="687.799999997"/>
      <point x="1311.40000014" y="687.799999997" type="curve" smooth="yes"/>
      <point x="1524.00000016" y="687.799999997"/>
      <point x="1628.80000021" y="538.799999997"/>
      <point x="1628.80000021" y="337.799999997" type="curve" smooth="yes"/>
      <point x="1628.80000021" y="140.799999997"/>
      <point x="1521.00000016" y="-12.200000003"/>
    </contour>
    <contour>
      <point x="1313.00000013" y="70.600000158" type="curve" smooth="yes"/>
      <point x="1462.20000005" y="70.600000158"/>
      <point x="1525.80000001" y="188.200000092"/>
      <point x="1525.80000001" y="339.0" type="curve" smooth="yes"/>
      <point x="1525.80000001" y="495.399999902"/>
      <point x="1461.20000005" y="605.199999839"/>
      <point x="1313.00000013" y="605.199999839" type="curve" smooth="yes"/>
      <point x="1163.00000022" y="605.199999839"/>
      <point x="1097.40000026" y="489.599999905"/>
      <point x="1097.40000026" y="339.0" type="curve" smooth="yes"/>
      <point x="1097.40000026" y="183.600000098"/>
      <point x="1163.80000022" y="70.600000158"/>
    </contour>
    <contour>
      <point x="391.199999988" y="746.200000167" type="curve" smooth="yes"/>
      <point x="540.399999902" y="746.200000167"/>
      <point x="603.999999866" y="863.800000101"/>
      <point x="603.999999866" y="1014.60000001" type="curve" smooth="yes"/>
      <point x="603.999999866" y="1170.99999991"/>
      <point x="539.399999902" y="1280.79999985"/>
      <point x="391.199999988" y="1280.79999985" type="curve" smooth="yes"/>
      <point x="241.200000077" y="1280.79999985"/>
      <point x="175.600000113" y="1165.19999991"/>
      <point x="175.600000113" y="1014.60000001" type="curve" smooth="yes"/>
      <point x="175.600000113" y="859.200000107"/>
      <point x="242.000000075" y="746.200000167"/>
    </contour>
    <contour>
      <point x="389.599999994" y="663.400000006" type="curve" smooth="yes"/>
      <point x="177.99999997" y="663.400000006"/>
      <point x="73.1999999285" y="816.400000006"/>
      <point x="73.1999999285" y="1013.40000001" type="curve" smooth="yes"/>
      <point x="73.1999999285" y="1211.40000001"/>
      <point x="180.99999997" y="1363.40000001"/>
      <point x="389.599999994" y="1363.40000001" type="curve" smooth="yes"/>
      <point x="602.200000018" y="1363.40000001"/>
      <point x="707.00000006" y="1214.40000001"/>
      <point x="707.00000006" y="1013.40000001" type="curve" smooth="yes"/>
      <point x="707.00000006" y="816.400000006"/>
      <point x="599.200000018" y="663.400000006"/>
    </contour>
    <contour>
      <point x="403.199999854" y="0.0" type="line"/>
      <point x="1181.99999988" y="1353.59999999" type="line"/>
      <point x="1298.20000021" y="1353.59999999" type="line"/>
      <point x="528.200000182" y="0.0" type="line"/>
    </contour>
  </outline>
</glyph>
<glyph name="ampersand" format="1">
  <advance width="1368.59999986"/>
  <unicode hex="0026"/>
  <outline>
    <contour>
      <point x="592.599999979" y="-14.5999999493" type="curve" smooth="yes"/>
      <point x="281.600000232" y="-14.5999999493"/>
      <point x="123.799999967" y="129.399999931"/>
      <point x="123.799999967" y="349.000000149" type="curve" smooth="yes"/>
      <point x="123.799999967" y="546.600000143"/>
      <point x="245.600000039" y="661.600000098"/>
      <point x="439.399999887" y="756.00000006" type="curve"/>
      <point x="334.600000024" y="866.99999994"/>
      <point x="287.199999928" y="955.999999925"/>
      <point x="287.199999928" y="1075.99999991" type="curve" smooth="yes"/>
      <point x="287.199999928" y="1248.60000005"/>
      <point x="416.200000063" y="1369.39999996"/>
      <point x="628.399999946" y="1369.39999996" type="curve" smooth="yes"/>
      <point x="821.199999854" y="1369.39999996"/>
      <point x="962.600000039" y="1265.40000004"/>
      <point x="962.600000039" y="1083.19999994" type="curve" smooth="yes"/>
      <point x="962.600000039" y="926.799999893"/>
      <point x="807.800000101" y="808.599999949"/>
      <point x="621.80000028" y="725.799999997" type="curve"/>
      <point x="1028.99999985" y="277.400000468" type="line"/>
      <point x="1081.19999982" y="330.400000468"/>
      <point x="1150.99999975" y="448.200000316"/>
      <point x="1184.19999975" y="525.800000265" type="curve"/>
      <point x="1282.80000001" y="460.000000104" type="line"/>
      <point x="1248.39999999" y="380.200000107"/>
      <point x="1169.00000007" y="256.400000244"/>
      <point x="1105.20000009" y="191.200000241" type="curve"/>
      <point x="1259.80000022" y="30.6000000983" type="line"/>
      <point x="1142.99999988" y="-14.3999999315" type="line"/>
      <point x="1026.19999985" y="112.40000008" type="line"/>
      <point x="907.199999869" y="23.4000000954"/>
      <point x="788.999999791" y="-14.5999999493"/>
    </contour>
    <contour>
      <point x="602.399999961" y="93.2000003159" type="curve" smooth="yes"/>
      <point x="746.199999779" y="93.2000003159"/>
      <point x="855.599999726" y="124.400000319"/>
      <point x="949.999999642" y="198.80000025" type="curve"/>
      <point x="940.199999496" y="209.600000411"/>
      <point x="521.800000176" y="663.599999681"/>
      <point x="512.400000036" y="673.999999836" type="curve"/>
      <point x="359.600000232" y="599.599999905"/>
      <point x="259.200000301" y="498.000000075"/>
      <point x="259.200000301" y="357.400000155" type="curve" smooth="yes"/>
      <point x="259.200000301" y="195.000000194"/>
      <point x="380.400000259" y="93.2000003159"/>
    </contour>
    <contour>
      <point x="548.200000122" y="807.000000209" type="curve"/>
      <point x="687.199999928" y="872.600000143"/>
      <point x="836.399999693" y="966.400000006"/>
      <point x="836.399999693" y="1087.79999992" type="curve" smooth="yes"/>
      <point x="836.399999693" y="1201.39999981"/>
      <point x="756.399999782" y="1263.39999972"/>
      <point x="629.799999967" y="1263.39999972" type="curve" smooth="yes"/>
      <point x="507.600000113" y="1263.39999972"/>
      <point x="408.600000277" y="1192.39999984"/>
      <point x="408.600000277" y="1081.79999992" type="curve" smooth="yes"/>
      <point x="408.600000277" y="987.999999985"/>
      <point x="459.200000241" y="888.800000131"/>
    </contour>
  </outline>
</glyph>
<glyph name="quotesingle" format="1">
  <advance width="303.600000784"/>
  <unicode hex="0027"/>
  <outline>
    <contour>
      <point x="107.200000286" y="904.999999732" type="line"/>
      <point x="192.200000539" y="904.999999732" type="line"/>
      <point x="207.600000575" y="1355.39999995" type="line"/>
      <point x="92.8000002205" y="1355.39999995" type="line"/>
    </contour>
  </outline>
</glyph>
<glyph name="parenleft" format="1">
  <advance width="624.200000361"/>
  <unicode hex="0028"/>
  <outline>
    <contour>
      <point x="379.600000173" y="-225.599999681" type="curve"/>
      <point x="512.400000542" y="-225.599999681" type="line"/>
      <point x="335.200000688" y="50.8000001609"/>
      <point x="277.200000495" y="352.999999955"/>
      <point x="277.200000495" y="651.399999946" type="curve" smooth="yes"/>
      <point x="277.200000495" y="930.600000083"/>
      <point x="338.200000808" y="1185.60000034"/>
      <point x="513.400000542" y="1456.59999989" type="curve"/>
      <point x="377.800000176" y="1456.59999989" type="line"/>
      <point x="221.600000232" y="1227.60000004"/>
      <point x="137.000000119" y="946.800000027"/>
      <point x="137.000000119" y="646.999999955" type="curve" smooth="yes"/>
      <point x="137.000000119" y="314.200000018"/>
      <point x="225.800000176" y="-11.1999996752"/>
    </contour>
  </outline>
</glyph>
<glyph name="parenright" format="1">
  <advance width="641.600000337"/>
  <unicode hex="0029"/>
  <outline>
    <contour>
      <point x="121.599999875" y="-225.599999681" type="curve"/>
      <point x="254.80000025" y="-225.599999681" type="line"/>
      <point x="406.200000212" y="-16.5999997556"/>
      <point x="497.200000301" y="317.00000006"/>
      <point x="497.200000301" y="650.400000006" type="curve" smooth="yes"/>
      <point x="497.200000301" y="949.600000069"/>
      <point x="414.800000221" y="1222.19999996"/>
      <point x="256.200000241" y="1456.59999989" type="curve"/>
      <point x="120.999999881" y="1456.59999989" type="line"/>
      <point x="302.999999717" y="1169.00000009"/>
      <point x="356.999999925" y="929.200000063"/>
      <point x="356.999999925" y="653.999999985" type="curve" smooth="yes"/>
      <point x="356.999999925" y="351.599999934"/>
      <point x="291.999999627" y="34.1999999136"/>
    </contour>
  </outline>
</glyph>
<glyph name="asterisk" format="1">
  <advance width="1116.99999991"/>
  <unicode hex="002A"/>
  <outline>
    <contour>
      <point x="423.200001031" y="529.599999726" type="line"/>
      <point x="384.800001904" y="607.199999854" type="line"/>
      <point x="384.800001904" y="607.199999854"/>
      <point x="537.800000682" y="911.999999538"/>
      <point x="530.200000569" y="921.599999681" type="curve"/>
      <point x="313.200002521" y="999.999999642" type="line"/>
      <point x="325.800002247" y="1136.19999993" type="line"/>
      <point x="541.400000319" y="994.599999994" type="line"/>
      <point x="519.20000051" y="1379.19999984" type="line"/>
      <point x="578.999999464" y="1379.19999984" type="line"/>
      <point x="556.399999663" y="994.599999994" type="line"/>
      <point x="773.399997741" y="1136.19999993" type="line"/>
      <point x="786.999997452" y="999.999999642" type="line"/>
      <point x="564.199999422" y="921.599999681" type="line"/>
      <point x="593.799999312" y="879.999999836"/>
      <point x="611.199998453" y="740.799999356"/>
      <point x="715.999998063" y="607.199999854" type="curve"/>
      <point x="651.999998301" y="567.200000003"/>
      <point x="740.999998719" y="570.79999958"/>
      <point x="676.999998957" y="530.799999729" type="curve"/>
      <point x="544.200000003" y="873.799999505" type="line"/>
    </contour>
  </outline>
</glyph>
<glyph name="plus" format="1">
  <advance width="1054.19999993"/>
  <unicode hex="002B"/>
  <outline>
    <contour>
      <point x="478.599999815" y="165.999999866" type="line"/>
      <point x="586.000000134" y="165.999999866" type="line"/>
      <point x="586.000000134" y="541.999999851" type="line"/>
      <point x="935.000000179" y="541.999999851" type="line"/>
      <point x="935.000000179" y="636.800000206" type="line"/>
      <point x="586.200000137" y="636.800000206" type="line"/>
      <point x="586.200000137" y="1006.60000022" type="line"/>
      <point x="478.799999818" y="1006.60000022" type="line"/>
      <point x="478.799999818" y="636.800000206" type="line"/>
      <point x="122.399999797" y="636.800000206" type="line"/>
      <point x="122.399999797" y="541.999999851" type="line"/>
      <point x="478.599999815" y="541.999999851" type="line"/>
    </contour>
  </outline>
</glyph>
<glyph name="comma" format="1">
  <advance width="450.400000289"/>
  <unicode hex="002C"/>
  <outline>
    <contour>
      <point x="136.999999985" y="-259.399999902" type="curve"/>
      <point x="200.400000408" y="-259.399999902" type="line"/>
      <point x="266.800000161" y="-80.2000005692"/>
      <point x="281.800000638" y="-1.99999928474"/>
      <point x="326.600000471" y="167.600000083" type="curve"/>
      <point x="325.200000495" y="202.600000158" type="line"/>
      <point x="168.200000197" y="202.600000158" type="line"/>
      <point x="157.800000235" y="31.4000007957"/>
      <point x="158.599999905" y="-79.4000005722"/>
    </contour>
  </outline>
</glyph>
<glyph name="hyphen" format="1">
  <advance width="696.399999619"/>
  <unicode hex="002D"/>
  <outline>
    <contour>
      <point x="121.799999759" y="466.799999774" type="line"/>
      <point x="560.199999973" y="466.799999774" type="line"/>
      <point x="560.199999973" y="579.600000098" type="line"/>
      <point x="121.799999759" y="579.600000098" type="line"/>
    </contour>
  </outline>
</glyph>
<glyph name="period" format="1">
  <advance width="456.200000346"/>
  <unicode hex="002E"/>
  <outline>
    <contour>
      <point x="229.000000194" y="-15.3999999315" type="curve" smooth="yes"/>
      <point x="308.800000206" y="-15.3999999315"/>
      <point x="339.800000325" y="42.0000001043"/>
      <point x="339.800000325" y="96.0000001937" type="curve" smooth="yes"/>
      <point x="339.800000325" y="150.200000286"/>
      <point x="308.800000206" y="207.800000325"/>
      <point x="229.000000194" y="207.800000325" type="curve" smooth="yes"/>
      <point x="149.000000179" y="207.800000325"/>
      <point x="118.600000054" y="150.200000286"/>
      <point x="118.600000054" y="96.0000001937" type="curve" smooth="yes"/>
      <point x="118.600000054" y="42.6000000983"/>
      <point x="150.000000179" y="-15.3999999315"/>
    </contour>
  </outline>
</glyph>
<glyph name="slash" format="1">
  <advance width="922.599999845"/>
  <unicode hex="002F"/>
  <outline>
    <contour>
      <point x="91.1999998689" y="-207.799999848" type="line"/>
      <point x="189.400000289" y="-207.799999848" type="line"/>
      <point x="830.99999997" y="1324.00000015" type="line"/>
      <point x="730.599999547" y="1324.00000015" type="line"/>
    </contour>
  </outline>
</glyph>
<glyph name="zero" format="1">
  <advance width="1171.00000031"/>
  <unicode hex="0030"/>
  <outline>
    <contour>
      <point x="590.200000137" y="87.8000003695" type="curve" smooth="yes"/>
      <point x="399.600000158" y="87.8000003695"/>
      <point x="272.800000444" y="263.800000608"/>
      <point x="272.800000444" y="673.800000012" type="curve"/>
      <point x="271.600000456" y="1062.79999948"/>
      <point x="399.200000167" y="1248.99999964"/>
      <point x="590.200000137" y="1248.99999964" type="curve" smooth="yes"/>
      <point x="780.800000116" y="1248.99999964"/>
      <point x="898.59999986" y="1093.59999935"/>
      <point x="898.59999986" y="674.799999997" type="curve" smooth="yes"/>
      <point x="898.59999986" y="264.200000599"/>
      <point x="780.800000116" y="87.8000003695"/>
    </contour>
    <contour>
      <point x="590.200000137" y="-28.3999999613" type="curve" smooth="yes"/>
      <point x="906.400000334" y="-28.3999999613"/>
      <point x="1039.00000031" y="255.600000218"/>
      <point x="1039.00000031" y="669.399999991" type="curve" smooth="yes"/>
      <point x="1039.00000031" y="1107.39999969"/>
      <point x="889.000000387" y="1365.79999997"/>
      <point x="590.200000137" y="1365.79999997" type="curve" smooth="yes"/>
      <point x="290.999999896" y="1365.79999997"/>
      <point x="132.0" y="1106.39999971"/>
      <point x="132.0" y="669.399999991" type="curve" smooth="yes"/>
      <point x="132.0" y="255.600000218"/>
      <point x="274.199999943" y="-28.3999999613"/>
    </contour>
  </outline>
</glyph>
<glyph name="one" format="1">
  <advance width="1119.39999999"/>
  <unicode hex="0031"/>
  <outline>
    <contour>
      <point x="193.600000009" y="0.0" type="line"/>
      <point x="957.000000149" y="0.0" type="line"/>
      <point x="957.000000149" y="110.400000334" type="line"/>
      <point x="615.800000116" y="110.400000334" type="line"/>
      <point x="669.600000262" y="56.4000001848" type="line"/>
      <point x="669.600000262" y="1350.39999995" type="line"/>
      <point x="535.799999937" y="1350.39999995" type="line"/>
      <point x="465.799999908" y="1300.79999992"/>
      <point x="297.00000006" y="1250.39999993"/>
      <point x="223.999999896" y="1236.79999986" type="curve"/>
      <point x="223.999999896" y="1122.19999954" type="line"/>
      <point x="309.400000095" y="1132.99999958"/>
      <point x="492.199999928" y="1187.19999959"/>
      <point x="564.999999866" y="1244.99999957" type="curve"/>
      <point x="527.199999839" y="1264.59999962" type="line"/>
      <point x="527.199999839" y="58.0000001788" type="line"/>
      <point x="579.399999991" y="110.400000334" type="line"/>
      <point x="193.600000009" y="110.400000334" type="line"/>
    </contour>
  </outline>
</glyph>
<glyph name="two" format="1">
  <advance width="1124.20000006"/>
  <unicode hex="0032"/>
  <outline>
    <contour>
      <point x="145.40000008" y="0.0" type="line"/>
      <point x="946.600000024" y="0.0" type="line"/>
      <point x="954.00000006" y="110.400000334" type="line"/>
      <point x="206.000000507" y="110.400000334" type="line"/>
      <point x="222.000000611" y="60.2000002116" type="line"/>
      <point x="706.600000083" y="542.399999797" type="line" smooth="yes"/>
      <point x="885.800000042" y="721.199999809"/>
      <point x="946.000000119" y="808.00000003"/>
      <point x="946.000000119" y="1004.59999989" type="curve" smooth="yes"/>
      <point x="946.000000119" y="1283.79999977"/>
      <point x="678.400000408" y="1368.99999996"/>
      <point x="517.800000086" y="1368.99999996" type="curve" smooth="yes"/>
      <point x="366.800000042" y="1368.99999996"/>
      <point x="222.000000089" y="1314.59999992"/>
      <point x="142.600000098" y="1260.39999987" type="curve"/>
      <point x="185.600000218" y="1158.39999956" type="line"/>
      <point x="273.800000027" y="1211.39999947"/>
      <point x="396.200000033" y="1255.99999961"/>
      <point x="515.200000048" y="1255.99999961" type="curve" smooth="yes"/>
      <point x="633.200000018" y="1255.99999961"/>
      <point x="807.799999669" y="1203.79999951"/>
      <point x="807.799999669" y="988.799999908" type="curve" smooth="yes"/>
      <point x="807.799999669" y="825.4000002"/>
      <point x="736.399999708" y="752.000000045"/>
      <point x="613.999999866" y="629.200000167" type="curve" smooth="yes"/>
      <point x="119.400000155" y="130.200000286" type="line"/>
    </contour>
  </outline>
</glyph>
<glyph name="three" format="1">
  <advance width="1133.6000002"/>
  <unicode hex="0033"/>
  <outline>
    <contour>
      <point x="519.000000089" y="-18.0" type="curve" smooth="yes"/>
      <point x="802.999999985" y="-18.0"/>
      <point x="980.200000122" y="126.399999961"/>
      <point x="980.200000122" y="366.200000003" type="curve" smooth="yes"/>
      <point x="980.200000122" y="569.199999824"/>
      <point x="856.000000283" y="690.999999896"/>
      <point x="681.20000039" y="724.599999934" type="curve"/>
      <point x="843.80000025" y="762.399999991"/>
      <point x="945.000000119" y="849.800000027"/>
      <point x="945.000000119" y="1037.19999984" type="curve" smooth="yes"/>
      <point x="945.000000119" y="1252.99999984"/>
      <point x="749.000000179" y="1368.99999996"/>
      <point x="519.600000113" y="1368.99999996" type="curve" smooth="yes"/>
      <point x="383.400000006" y="1368.99999996"/>
      <point x="250.800000057" y="1332.19999996"/>
      <point x="140.800000086" y="1264.39999998" type="curve"/>
      <point x="186.800000191" y="1162.99999966" type="line"/>
      <point x="278.400000125" y="1221.39999962"/>
      <point x="397.200000063" y="1256.19999962"/>
      <point x="511.200000063" y="1256.19999962" type="curve" smooth="yes"/>
      <point x="674.599999964" y="1256.19999962"/>
      <point x="812.599999696" y="1181.79999956"/>
      <point x="812.599999696" y="1023.79999982" type="curve" smooth="yes"/>
      <point x="812.599999696" y="807.800000072"/>
      <point x="606.799999982" y="785.600000054"/>
      <point x="414.200000003" y="779.000000075" type="curve"/>
      <point x="374.999999925" y="779.000000075" type="line"/>
      <point x="374.999999925" y="663.799999759" type="line"/>
      <point x="412.600000009" y="663.799999759" type="line"/>
      <point x="649.999999911" y="658.799999759"/>
      <point x="845.399999663" y="613.199999794"/>
      <point x="845.399999663" y="365.400000051" type="curve" smooth="yes"/>
      <point x="845.399999663" y="181.400000319"/>
      <point x="717.999999836" y="95.0000003427"/>
      <point x="520.000000089" y="95.0000003427" type="curve" smooth="yes"/>
      <point x="390.000000134" y="95.0000003427"/>
      <point x="255.600000173" y="154.800000265"/>
      <point x="205.400000125" y="190.000000328" type="curve"/>
      <point x="157.200000018" y="89.2000000179" type="line"/>
      <point x="188.000000209" y="64.799999848"/>
      <point x="348.600000158" y="-18.0"/>
    </contour>
  </outline>
</glyph>
<glyph name="four" format="1">
  <advance width="1145.20000038"/>
  <unicode hex="0034"/>
  <outline>
    <contour>
      <point x="749.999999896" y="0.0" type="line"/>
      <point x="884.000000343" y="0.0" type="line"/>
      <point x="884.000000343" y="351.999999791" type="line"/>
      <point x="1042.2000003" y="351.999999791" type="line"/>
      <point x="1053.00000031" y="461.200000137" type="line"/>
      <point x="884.000000343" y="461.200000137" type="line"/>
      <point x="884.000000343" y="1350.39999995" type="line"/>
      <point x="746.799999699" y="1350.39999995" type="line"/>
      <point x="120.400000066" y="478.599999979" type="line"/>
      <point x="120.400000066" y="351.999999791" type="line"/>
      <point x="749.999999896" y="351.999999791" type="line"/>
    </contour>
    <contour>
      <point x="261.000000507" y="462.000000119" type="line"/>
      <point x="749.199999899" y="1168.59999958" type="line"/>
      <point x="749.199999899" y="462.000000119" type="line"/>
    </contour>
  </outline>
</glyph>
<glyph name="five" format="1">
  <advance width="1140.4000003"/>
  <unicode hex="0035"/>
  <outline>
    <contour>
      <point x="530.600000218" y="-18.799999997" type="curve" smooth="yes"/>
      <point x="796.20000039" y="-18.799999997"/>
      <point x="1011.60000025" y="137.000000104"/>
      <point x="1011.60000025" y="431.999999985" type="curve" smooth="yes"/>
      <point x="1011.60000025" y="656.600000083"/>
      <point x="866.40000014" y="843.000000045"/>
      <point x="589.600000218" y="843.000000045" type="curve" smooth="yes"/>
      <point x="502.400000349" y="843.000000045"/>
      <point x="424.000000387" y="820.400000006"/>
      <point x="340.400000513" y="767.000000119" type="curve"/>
      <point x="340.800000519" y="779.600000307"/>
      <point x="374.400000468" y="1228.19999945"/>
      <point x="374.800000474" y="1237.79999959" type="curve"/>
      <point x="941.400000259" y="1237.79999959" type="line"/>
      <point x="952.80000028" y="1350.39999995" type="line"/>
      <point x="256.00000003" y="1350.39999995" type="line"/>
      <point x="211.00000006" y="642.799999803" type="line"/>
      <point x="329.400000304" y="629.799999744" type="line"/>
      <point x="387.000000313" y="692.19999975"/>
      <point x="484.400000215" y="730.799999714"/>
      <point x="580.200000107" y="730.799999714" type="curve" smooth="yes"/>
      <point x="788.799999774" y="730.799999714"/>
      <point x="867.5999998" y="591.399999917"/>
      <point x="867.5999998" y="428.400000006" type="curve" smooth="yes"/>
      <point x="867.5999998" y="212.000000298"/>
      <point x="714.600000083" y="95.4000003487"/>
      <point x="516.600000173" y="95.4000003487" type="curve" smooth="yes"/>
      <point x="403.200000033" y="95.4000003487"/>
      <point x="285.599999964" y="139.400000528"/>
      <point x="200.200000226" y="192.80000037" type="curve"/>
      <point x="152.000000075" y="90.8000000715" type="line"/>
      <point x="248.399999797" y="31.0000002235"/>
      <point x="390.799999967" y="-18.799999997"/>
    </contour>
  </outline>
</glyph>
<glyph name="six" format="1">
  <advance width="1208.00000018"/>
  <unicode hex="0036"/>
  <outline>
    <contour>
      <point x="591.200000137" y="-18.0" type="curve" smooth="yes"/>
      <point x="859.600000173" y="-18.0"/>
      <point x="1025.20000035" y="169.199999943"/>
      <point x="1025.20000035" y="401.00000006" type="curve" smooth="yes"/>
      <point x="1025.20000035" y="643.800000086"/>
      <point x="831.400000349" y="802.800000131"/>
      <point x="618.600000188" y="802.800000131" type="curve" smooth="yes"/>
      <point x="378.200000763" y="802.800000131"/>
      <point x="259.000000879" y="603.000000685"/>
      <point x="248.200000837" y="583.400000736" type="curve"/>
      <point x="270.600000933" y="564.400000602" type="line"/>
      <point x="270.600000933" y="564.400000602"/>
      <point x="415.600000978" y="752.600000679"/>
      <point x="507.600000635" y="887.800000176" type="curve"/>
      <point x="829.200000569" y="1350.39999995" type="line"/>
      <point x="669.400000021" y="1350.39999995" type="line"/>
      <point x="367.5999998" y="915.399999768" type="line" smooth="yes"/>
      <point x="240.799999908" y="731.599999964"/>
      <point x="158.399999902" y="607.599999964"/>
      <point x="158.399999902" y="404.400000066" type="curve" smooth="yes"/>
      <point x="158.399999902" y="186.399999887"/>
      <point x="307.800000116" y="-18.0"/>
    </contour>
    <contour>
      <point x="587.600000113" y="93.6000003219" type="curve" smooth="yes"/>
      <point x="390.800000295" y="93.6000003219"/>
      <point x="293.000000373" y="234.40000014"/>
      <point x="293.000000373" y="394.200000063" type="curve" smooth="yes"/>
      <point x="293.000000373" y="627.999999717"/>
      <point x="477.59999992" y="691.599999845"/>
      <point x="594.600000098" y="691.599999845" type="curve" smooth="yes"/>
      <point x="782.0" y="691.599999845"/>
      <point x="889.199999869" y="568.999999955"/>
      <point x="889.199999869" y="400.200000048" type="curve" smooth="yes"/>
      <point x="889.199999869" y="238.000000134"/>
      <point x="783.599999949" y="93.6000003219"/>
    </contour>
  </outline>
</glyph>
<glyph name="seven" format="1">
  <advance width="1107.39999981"/>
  <unicode hex="0037"/>
  <outline>
    <contour>
      <point x="330.599999666" y="0.79999999702" type="line"/>
      <point x="469.4000002" y="0.79999999702" type="line"/>
      <point x="960.199999958" y="1250.39999971" type="line"/>
      <point x="960.199999958" y="1350.39999995" type="line"/>
      <point x="172.799999774" y="1350.39999995" type="line"/>
      <point x="191.19999966" y="1239.1999996" type="line"/>
      <point x="816.799999416" y="1239.1999996" type="line"/>
    </contour>
  </outline>
</glyph>
<glyph name="eight" format="1">
  <advance width="1148.20000042"/>
  <unicode hex="0038"/>
  <outline>
    <contour>
      <point x="574.600000218" y="-18.0" type="curve" smooth="yes"/>
      <point x="816.000000238" y="-18.0"/>
      <point x="1009.00000031" y="98.8000000566"/>
      <point x="1009.00000031" y="335.400000095" type="curve" smooth="yes"/>
      <point x="1009.00000031" y="511.400000051"/>
      <point x="897.400000423" y="652.799999952"/>
      <point x="718.800000638" y="706.599999994" type="curve"/>
      <point x="875.20000045" y="759.600000024"/>
      <point x="978.600000337" y="865.199999988"/>
      <point x="978.600000337" y="1034.19999991" type="curve" smooth="yes"/>
      <point x="978.600000337" y="1245.39999999"/>
      <point x="815.200000212" y="1368.99999996"/>
      <point x="575.200000212" y="1368.99999996" type="curve" smooth="yes"/>
      <point x="334.000000224" y="1368.99999996"/>
      <point x="168.200000092" y="1245.39999999"/>
      <point x="168.200000092" y="1034.19999991" type="curve" smooth="yes"/>
      <point x="168.200000092" y="866.199999973"/>
      <point x="281.199999973" y="750.400000051"/>
      <point x="431.399999827" y="704.200000003" type="curve"/>
      <point x="244.000000045" y="641.799999997"/>
      <point x="139.200000107" y="527.0"/>
      <point x="139.200000107" y="335.600000098" type="curve" smooth="yes"/>
      <point x="139.200000107" y="98.4000000656"/>
      <point x="335.200000182" y="-18.0"/>
    </contour>
    <contour>
      <point x="574.600000218" y="88.4000002444" type="curve" smooth="yes"/>
      <point x="372.600000441" y="88.4000002444"/>
      <point x="265.400000528" y="178.000000194"/>
      <point x="265.400000528" y="343.800000042" type="curve" smooth="yes"/>
      <point x="265.400000528" y="512.799999908"/>
      <point x="399.800000384" y="608.199999869"/>
      <point x="574.600000218" y="644.799999863" type="curve"/>
      <point x="750.800000042" y="608.199999869"/>
      <point x="880.199999914" y="505.399999931"/>
      <point x="880.199999914" y="344.000000045" type="curve" smooth="yes"/>
      <point x="880.199999914" y="170.800000221"/>
      <point x="782.399999976" y="88.4000002444"/>
    </contour>
    <contour>
      <point x="574.600000218" y="751.800000086" type="curve"/>
      <point x="395.20000039" y="790.800000057"/>
      <point x="302.000000432" y="889.799999982"/>
      <point x="302.000000432" y="1038.79999989" type="curve" smooth="yes"/>
      <point x="302.000000432" y="1176.79999976"/>
      <point x="412.400000364" y="1261.19999969"/>
      <point x="574.600000218" y="1261.19999969" type="curve" smooth="yes"/>
      <point x="738.400000066" y="1261.19999969"/>
      <point x="844.200000003" y="1176.79999976"/>
      <point x="844.200000003" y="1038.79999989" type="curve" smooth="yes"/>
      <point x="844.200000003" y="889.799999982"/>
      <point x="755.400000036" y="790.800000057"/>
    </contour>
  </outline>
</glyph>
<glyph name="nine" format="1">
  <advance width="1140.2000003"/>
  <unicode hex="0039"/>
  <outline>
    <contour>
      <point x="301.799999833" y="0.0" type="line"/>
      <point x="468.400000378" y="0.0" type="line"/>
      <point x="468.400000378" y="0.0"/>
      <point x="791.600000471" y="432.200000137"/>
      <point x="795.800000533" y="437.800000221" type="curve" smooth="yes"/>
      <point x="926.400000378" y="616.000000015"/>
      <point x="1020.20000033" y="744.0"/>
      <point x="1020.20000033" y="946.399999887" type="curve" smooth="yes"/>
      <point x="1020.20000033" y="1164.80000007"/>
      <point x="870.800000116" y="1368.99999996"/>
      <point x="587.400000095" y="1368.99999996" type="curve" smooth="yes"/>
      <point x="318.800000057" y="1368.99999996"/>
      <point x="153.399999887" y="1181.60000001"/>
      <point x="153.399999887" y="949.199999884" type="curve" smooth="yes"/>
      <point x="153.399999887" y="705.799999848"/>
      <point x="346.999999881" y="547.199999809"/>
      <point x="559.800000042" y="547.199999809" type="curve" smooth="yes"/>
      <point x="796.599999413" y="547.199999809"/>
      <point x="920.399999365" y="746.199999243"/>
      <point x="930.599999398" y="766.799999207" type="curve"/>
      <point x="907.799999297" y="784.199999318" type="line"/>
      <point x="907.799999297" y="784.199999318"/>
      <point x="754.599999383" y="599.999999374"/>
      <point x="656.999999747" y="468.799999863" type="curve"/>
    </contour>
    <contour>
      <point x="584.200000137" y="657.800000086" type="curve" smooth="yes"/>
      <point x="396.800000235" y="657.800000086"/>
      <point x="289.200000361" y="780.999999985"/>
      <point x="289.200000361" y="950.399999902" type="curve" smooth="yes"/>
      <point x="289.200000361" y="1112.99999982"/>
      <point x="395.400000289" y="1257.59999964"/>
      <point x="591.400000125" y="1257.59999964" type="curve" smooth="yes"/>
      <point x="788.199999943" y="1257.59999964"/>
      <point x="885.799999863" y="1116.79999982"/>
      <point x="885.799999863" y="956.799999893" type="curve" smooth="yes"/>
      <point x="885.799999863" y="722.200000226"/>
      <point x="701.000000313" y="657.800000086"/>
    </contour>
  </outline>
</glyph>
<glyph name="colon" format="1">
  <advance width="496.400000528"/>
  <unicode hex="003A"/>
  <outline>
    <contour>
      <point x="163.800000101" y="-27.1999998987" type="line"/>
      <point x="323.000000462" y="-27.1999998987" type="line"/>
      <point x="323.000000462" y="166.80000037" type="line"/>
      <point x="163.800000101" y="166.80000037" type="line"/>
    </contour>
    <contour>
      <point x="163.800000101" y="826.599999756" type="line"/>
      <point x="323.000000462" y="826.599999756" type="line"/>
      <point x="323.000000462" y="1021.59999998" type="line"/>
      <point x="163.800000101" y="1021.59999998" type="line"/>
    </contour>
  </outline>
</glyph>
<glyph name="semicolon" format="1">
  <advance width="486.400000557"/>
  <unicode hex="003B"/>
  <outline>
    <contour>
      <point x="135.800000206" y="-280.600000024" type="line"/>
      <point x="216.200000495" y="-280.600000024" type="line"/>
      <point x="329.800000504" y="156.80000034" type="line"/>
      <point x="187.4000002" y="156.80000034" type="line"/>
    </contour>
    <contour>
      <point x="175.800000116" y="827.799999774" type="line"/>
      <point x="334.800000474" y="827.799999774" type="line"/>
      <point x="334.800000474" y="1023.59999999" type="line"/>
      <point x="175.800000116" y="1023.59999999" type="line"/>
    </contour>
  </outline>
</glyph>
<glyph name="less" format="1">
  <advance width="1124.19999993"/>
  <unicode hex="003C"/>
  <outline>
    <contour>
      <point x="976.199999973" y="121.000000179" type="line"/>
      <point x="976.199999973" y="121.000000179"/>
      <point x="976.799999967" y="242.200000525"/>
      <point x="976.599999964" y="242.400000528" type="curve" smooth="yes"/>
      <point x="232.000000492" y="581.200000271" type="line"/>
      <point x="978.599999964" y="941.600000039" type="line"/>
      <point x="978.599999964" y="1064.20000035" type="line"/>
      <point x="104.799999967" y="615.600000352" type="line"/>
      <point x="104.799999967" y="539.200000182" type="line"/>
    </contour>
  </outline>
</glyph>
<glyph name="greater" format="1">
  <advance width="1134.59999989"/>
  <unicode hex="003E"/>
  <outline>
    <contour>
      <point x="136.799999997" y="127.000000164" type="line"/>
      <point x="1011.39999999" y="537.600000188" type="line"/>
      <point x="1011.39999999" y="614.600000352" type="line"/>
      <point x="139.199999988" y="1070.80000032" type="line"/>
      <point x="139.199999988" y="949.000000015" type="line"/>
      <point x="880.799999475" y="581.200000271" type="line"/>
      <point x="136.799999997" y="249.20000051" type="line"/>
    </contour>
  </outline>
</glyph>
<glyph name="question" format="1">
  <advance width="877.000000343"/>
  <unicode hex="003F"/>
  <outline>
    <contour>
      <point x="406.200000405" y="387.000000134" type="line"/>
      <point x="543.20000039" y="704.599999949"/>
      <point x="730.400000453" y="848.399999931"/>
      <point x="730.400000453" y="1105.99999979" type="curve" smooth="yes"/>
      <point x="730.400000453" y="1286.59999992"/>
      <point x="615.000000179" y="1394.99999988"/>
      <point x="412.200000331" y="1394.99999988" type="curve" smooth="yes"/>
      <point x="329.400000095" y="1394.99999988"/>
      <point x="203.800000191" y="1375.79999982"/>
      <point x="125.000000149" y="1309.39999984" type="curve"/>
      <point x="153.80000031" y="1199.79999964" type="line"/>
      <point x="194.600000352" y="1225.39999966"/>
      <point x="280.400000304" y="1272.19999965"/>
      <point x="386.600000337" y="1272.19999965" type="curve" smooth="yes"/>
      <point x="513.600000262" y="1272.19999965"/>
      <point x="603.600000158" y="1226.39999959"/>
      <point x="605.400000155" y="1098.9999997" type="curve"/>
      <point x="605.400000155" y="912.999999806"/>
      <point x="327.200000405" y="581.600000396"/>
      <point x="340.600000232" y="385.000000164" type="curve"/>
    </contour>
    <contour>
      <point x="391.600000247" y="-12.5999999791" type="curve" smooth="yes"/>
      <point x="473.200000241" y="-12.5999999791"/>
      <point x="505.200000346" y="45.0000000596"/>
      <point x="505.200000346" y="99.000000149" type="curve" smooth="yes"/>
      <point x="505.200000346" y="153.200000241"/>
      <point x="473.200000241" y="210.000000283"/>
      <point x="391.600000247" y="210.000000283" type="curve" smooth="yes"/>
      <point x="312.000000238" y="210.000000283"/>
      <point x="280.600000113" y="153.200000241"/>
      <point x="280.600000113" y="99.000000149" type="curve" smooth="yes"/>
      <point x="280.600000113" y="45.6000000536"/>
      <point x="312.200000241" y="-12.5999999791"/>
    </contour>
  </outline>
</glyph>
<glyph name="at" format="1">
  <advance width="1905.19999939"/>
  <unicode hex="0040"/>
  <outline>
    <contour>
      <point x="930.999999717" y="-196.599999711" type="curve" smooth="yes"/>
      <point x="1117.19999966" y="-196.599999711"/>
      <point x="1289.9999997" y="-152.799999729"/>
      <point x="1415.39999966" y="-68.5999997556" type="curve"/>
      <point x="1378.19999965" y="18.8000003695" type="line"/>
      <point x="1248.79999968" y="-55.5999996066"/>
      <point x="1092.59999967" y="-96.1999995857"/>
      <point x="931.999999717" y="-96.1999995857" type="curve" smooth="yes"/>
      <point x="546.599999756" y="-96.1999995857"/>
      <point x="288.800000042" y="149.200000554"/>
      <point x="288.800000042" y="565.200000092" type="curve" smooth="yes"/>
      <point x="288.800000042" y="981.999999702"/>
      <point x="582.999999717" y="1290.59999976"/>
      <point x="993.399999678" y="1290.59999976" type="curve" smooth="yes"/>
      <point x="1370.5999998" y="1290.59999976"/>
      <point x="1624.19999939" y="1046.39999968"/>
      <point x="1624.19999939" y="707.400000051" type="curve" smooth="yes"/>
      <point x="1624.19999939" y="468.199999988"/>
      <point x="1531.19999933" y="297.600000262"/>
      <point x="1353.99999967" y="297.600000262" type="curve" smooth="yes"/>
      <point x="1267.39999978" y="297.600000262"/>
      <point x="1235.59999973" y="366.800000161"/>
      <point x="1235.59999973" y="458.400000066" type="curve" smooth="yes"/>
      <point x="1235.59999973" y="578.00000003"/>
      <point x="1271.99999972" y="757.99999997"/>
      <point x="1299.39999971" y="953.199999914" type="curve"/>
      <point x="1215.99999973" y="985.399999961"/>
      <point x="1103.19999963" y="1011.99999996"/>
      <point x="1009.19999966" y="1011.99999996" type="curve" smooth="yes"/>
      <point x="738.999999702" y="1011.99999996"/>
      <point x="588.399999723" y="788.599999905"/>
      <point x="588.399999723" y="533.200000077" type="curve" smooth="yes"/>
      <point x="588.399999723" y="326.800000235"/>
      <point x="690.999999672" y="196.000000179"/>
      <point x="869.599999726" y="196.000000179" type="curve" smooth="yes"/>
      <point x="1007.59999983" y="196.000000179"/>
      <point x="1130.99999969" y="313.800000325"/>
      <point x="1174.19999962" y="474.800000057" type="curve"/>
      <point x="1125.79999967" y="474.800000057" type="line"/>
      <point x="1136.39999968" y="259.80000037"/>
      <point x="1262.34399949" y="207.000000134"/>
      <point x="1356.99999966" y="207.000000134" type="curve" smooth="yes"/>
      <point x="1554.3999995" y="207.000000134"/>
      <point x="1736.39999953" y="375.200000092"/>
      <point x="1736.39999953" y="700.200000048" type="curve" smooth="yes"/>
      <point x="1736.39999953" y="1127.59999992"/>
      <point x="1419.99999957" y="1393.19999987"/>
      <point x="996.599999696" y="1393.19999987" type="curve" smooth="yes"/>
      <point x="507.599999845" y="1393.19999987"/>
      <point x="171.199999854" y="1041.99999997"/>
      <point x="171.199999854" y="565.600000113" type="curve" smooth="yes"/>
      <point x="171.199999854" y="88.2000002563"/>
      <point x="472.399999857" y="-196.599999711"/>
    </contour>
    <contour>
      <point x="883.399999738" y="292.000000253" type="curve" smooth="yes"/>
      <point x="773.999999791" y="292.000000253"/>
      <point x="707.799999878" y="364.400000304"/>
      <point x="707.799999878" y="533.800000057" type="curve" smooth="yes"/>
      <point x="707.799999878" y="730.99999997"/>
      <point x="821.59999983" y="920.399999887"/>
      <point x="1008.39999975" y="920.399999887" type="curve" smooth="yes"/>
      <point x="1057.79999976" y="920.399999887"/>
      <point x="1185.99999955" y="897.199999914"/>
      <point x="1223.39999954" y="884.399999917" type="curve"/>
      <point x="1167.79999961" y="960.999999896" type="line"/>
      <point x="1162.99999963" y="913.800000072"/>
      <point x="1125.59999959" y="692.799999893"/>
      <point x="1119.19999962" y="646.400000066" type="curve" smooth="yes"/>
      <point x="1092.9999996" y="454.600000128"/>
      <point x="1031.39999969" y="292.000000253"/>
    </contour>
  </outline>
</glyph>
<glyph name="A" format="1">
  <advance width="1255.00000057"/>
  <unicode hex="0041"/>
  <outline>
    <contour>
      <point x="46.400000006" y="0.0" type="line"/>
      <point x="197.400000557" y="0.0" type="line"/>
      <point x="379.400000438" y="485.799999803" type="line"/>
      <point x="318.400000319" y="441.799999714" type="line"/>
      <point x="946.000000209" y="441.799999714" type="line"/>
      <point x="883.600000083" y="483.399999797" type="line"/>
      <point x="1063.8" y="0.0" type="line"/>
      <point x="1208.60000056" y="0.0" type="line"/>
      <point x="703.600000665" y="1353.59999999" type="line"/>
      <point x="551.799999908" y="1353.59999999" type="line"/>
    </contour>
    <contour>
      <point x="383.000000462" y="500.999999896" type="line"/>
      <point x="650.800000295" y="1265.99999967" type="line"/>
      <point x="606.000000298" y="1267.59999967" type="line"/>
      <point x="879.00000006" y="501.199999899" type="line"/>
      <point x="915.40000011" y="546.200000033" type="line"/>
      <point x="350.000000402" y="546.200000033" type="line"/>
    </contour>
  </outline>
</glyph>
<glyph name="B" format="1">
  <advance width="1296.19999999"/>
  <unicode hex="0042"/>
  <outline>
    <contour>
      <point x="202.399999827" y="0.0" type="line"/>
      <point x="708.199999988" y="0.0" type="line" smooth="yes"/>
      <point x="1037.19999988" y="0.0"/>
      <point x="1185.40000007" y="149.999999955"/>
      <point x="1185.40000007" y="380.400000066" type="curve" smooth="yes"/>
      <point x="1185.40000007" y="586.800000072"/>
      <point x="1050.20000003" y="696.800000042"/>
      <point x="824.800000265" y="730.800000086" type="curve"/>
      <point x="824.800000265" y="690.400000006" type="line"/>
      <point x="1067.79999998" y="747.600000039"/>
      <point x="1130.20000009" y="859.600000009"/>
      <point x="1130.20000009" y="1022.39999996" type="curve" smooth="yes"/>
      <point x="1130.20000009" y="1250.00000006"/>
      <point x="972.399999976" y="1353.59999999"/>
      <point x="626.400000036" y="1353.59999999" type="curve" smooth="yes"/>
      <point x="202.399999827" y="1353.59999999" type="line"/>
    </contour>
    <contour>
      <point x="304.800000295" y="113.600000381" type="line"/>
      <point x="351.200000346" y="65.8000003248" type="line"/>
      <point x="351.200000346" y="700.399999961" type="line"/>
      <point x="304.000000298" y="657.599999845" type="line"/>
      <point x="628.600000069" y="657.599999845" type="line" smooth="yes"/>
      <point x="904.799999729" y="657.599999845"/>
      <point x="1036.59999955" y="590.999999881"/>
      <point x="1036.59999955" y="382.600000128" type="curve" smooth="yes"/>
      <point x="1036.59999955" y="190.200000316"/>
      <point x="930.799999624" y="113.600000381"/>
      <point x="684.999999881" y="113.600000381" type="curve" smooth="yes"/>
    </contour>
    <contour>
      <point x="303.200000301" y="765.800000146" type="line"/>
      <point x="351.200000346" y="727.40000008" type="line"/>
      <point x="351.200000346" y="1286.99999969" type="line"/>
      <point x="305.600000292" y="1241.19999963" type="line"/>
      <point x="629.199999899" y="1241.19999963" type="line" smooth="yes"/>
      <point x="872.799999684" y="1241.19999963"/>
      <point x="989.399999574" y="1195.39999968"/>
      <point x="989.399999574" y="1005.59999987" type="curve" smooth="yes"/>
      <point x="989.399999574" y="810.800000146"/>
      <point x="867.399999753" y="765.800000146"/>
      <point x="684.399999872" y="765.800000146" type="curve" smooth="yes"/>
    </contour>
  </outline>
</glyph>
<glyph name="C" format="1">
  <advance width="1228.80000003"/>
  <unicode hex="0043"/>
  <outline>
    <contour>
      <point x="777.599999979" y="-18.0" type="curve" smooth="yes"/>
      <point x="944.5999998" y="-18.0"/>
      <point x="1097.99999981" y="32.3999999166"/>
      <point x="1135.4000001" y="63.0" type="curve"/>
      <point x="1099.20000003" y="173.20000039" type="line"/>
      <point x="1009.80000007" y="133.800000399"/>
      <point x="918.399999917" y="100.400000423"/>
      <point x="800.799999997" y="100.400000423" type="curve" smooth="yes"/>
      <point x="460.600000501" y="100.400000423"/>
      <point x="282.400000423" y="337.399999961"/>
      <point x="282.400000423" y="675.600000009" type="curve" smooth="yes"/>
      <point x="282.400000423" y="1011.40000002"/>
      <point x="460.800000489" y="1253.99999958"/>
      <point x="783.400000036" y="1253.99999958" type="curve" smooth="yes"/>
      <point x="897.599999979" y="1253.99999958"/>
      <point x="1013.39999996" y="1221.3999996"/>
      <point x="1095.19999997" y="1169.59999962" type="curve"/>
      <point x="1147.20000006" y="1265.99999999" type="line"/>
      <point x="1062.99999997" y="1327.80000001"/>
      <point x="931.99999994" y="1371.59999999"/>
      <point x="769.400000021" y="1371.59999999" type="curve" smooth="yes"/>
      <point x="371.200000241" y="1371.59999999"/>
      <point x="133.599999905" y="1083.8000003"/>
      <point x="133.599999905" y="681.0" type="curve" smooth="yes"/>
      <point x="133.599999905" y="252.999999821"/>
      <point x="394.200000033" y="-18.0"/>
    </contour>
  </outline>
</glyph>
<glyph name="D" format="1">
  <advance width="1451.00000001"/>
  <unicode hex="0044"/>
  <outline>
    <contour>
      <point x="351.200000346" y="61.000000298" type="line"/>
      <point x="351.200000346" y="1292.39999969" type="line"/>
      <point x="299.200000286" y="1241.19999963" type="line"/>
      <point x="578.400000021" y="1241.19999963" type="line" smooth="yes"/>
      <point x="951.999999776" y="1241.19999963"/>
      <point x="1168.79999959" y="1085.39999968"/>
      <point x="1168.79999959" y="675.600000009" type="curve" smooth="yes"/>
      <point x="1168.79999959" y="302.400000304"/>
      <point x="981.599999696" y="113.600000381"/>
      <point x="603.600000024" y="113.600000381" type="curve" smooth="yes"/>
      <point x="299.400000289" y="113.600000381" type="line"/>
    </contour>
    <contour>
      <point x="202.399999827" y="0.0" type="line"/>
      <point x="615.999999925" y="0.0" type="line" smooth="yes"/>
      <point x="1048.59999996" y="0.0"/>
      <point x="1317.40000011" y="232.200000048"/>
      <point x="1317.40000011" y="679.800000012" type="curve" smooth="yes"/>
      <point x="1317.40000011" y="1152.19999994"/>
      <point x="1021.2" y="1353.59999999"/>
      <point x="588.199999943" y="1353.59999999" type="curve" smooth="yes"/>
      <point x="202.399999827" y="1353.59999999" type="line"/>
    </contour>
  </outline>
</glyph>
<glyph name="E" format="1">
  <advance width="1146.8000001"/>
  <unicode hex="0045"/>
  <outline>
    <contour>
      <point x="202.399999827" y="0.0" type="line"/>
      <point x="1016.00000007" y="0.0" type="line"/>
      <point x="1026.6000001" y="113.600000381" type="line"/>
      <point x="303.400000244" y="113.600000381" type="line"/>
      <point x="351.200000346" y="65.4000002891" type="line"/>
      <point x="351.200000346" y="685.200000003" type="line"/>
      <point x="303.200000241" y="642.59999986" type="line"/>
      <point x="957.000000179" y="642.59999986" type="line"/>
      <point x="957.000000179" y="755.000000224" type="line"/>
      <point x="303.400000244" y="755.000000224" type="line"/>
      <point x="351.200000346" y="709.800000116" type="line"/>
      <point x="351.200000346" y="1285.19999975" type="line"/>
      <point x="304.800000235" y="1241.19999963" type="line"/>
      <point x="1019.20000005" y="1241.19999963" type="line"/>
      <point x="1024.60000007" y="1353.59999999" type="line"/>
      <point x="202.399999827" y="1353.59999999" type="line"/>
    </contour>
  </outline>
</glyph>
<glyph name="F" format="1">
  <advance width="1034.40000027"/>
  <unicode hex="0046"/>
  <outline>
    <contour>
      <point x="202.399999827" y="0.0" type="line"/>
      <point x="354.400000334" y="0.0" type="line"/>
      <point x="354.400000334" y="669.599999994" type="line"/>
      <point x="296.800000191" y="625.5999998" type="line"/>
      <point x="919.000000298" y="625.5999998" type="line"/>
      <point x="919.000000298" y="733.800000176" type="line"/>
      <point x="291.200000197" y="733.800000176" type="line"/>
      <point x="354.400000334" y="689.200000063" type="line"/>
      <point x="354.400000334" y="1295.99999972" type="line"/>
      <point x="290.200000182" y="1239.1999996" type="line"/>
      <point x="963.80000034" y="1239.1999996" type="line"/>
      <point x="973.400000349" y="1353.59999999" type="line"/>
      <point x="202.399999827" y="1353.59999999" type="line"/>
    </contour>
  </outline>
</glyph>
<glyph name="G" format="1">
  <advance width="1393.39999992"/>
  <unicode hex="0047"/>
  <outline>
    <contour>
      <point x="777.199999928" y="-18.0" type="curve" smooth="yes"/>
      <point x="961.799999923" y="-18.0"/>
      <point x="1106.79999994" y="12.2000000179"/>
      <point x="1243.59999998" y="64.4000000656" type="curve"/>
      <point x="1243.59999998" y="686.200000152" type="line"/>
      <point x="802.599999636" y="686.200000152" type="line"/>
      <point x="795.399999663" y="565.399999827" type="line"/>
      <point x="1154.99999964" y="565.399999827" type="line"/>
      <point x="1102.99999958" y="617.399999887" type="line"/>
      <point x="1102.99999958" y="87.8000002652" type="line"/>
      <point x="1148.9999997" y="156.600000486" type="line"/>
      <point x="1095.19999968" y="134.800000444"/>
      <point x="967.399999961" y="100.20000042"/>
      <point x="808.999999851" y="100.20000042" type="curve" smooth="yes"/>
      <point x="432.400000304" y="100.20000042"/>
      <point x="282.20000042" y="329.600000247"/>
      <point x="282.20000042" y="675.00000003" type="curve" smooth="yes"/>
      <point x="282.20000042" y="1002.5999999"/>
      <point x="470.200000331" y="1254.39999959"/>
      <point x="792.800000042" y="1254.39999959" type="curve" smooth="yes"/>
      <point x="1004.99999963" y="1254.39999959"/>
      <point x="1105.59999968" y="1188.59999973"/>
      <point x="1168.5999999" y="1152.59999964" type="curve"/>
      <point x="1205.40000002" y="1265.2" type="line"/>
      <point x="1098.79999989" y="1342.39999998"/>
      <point x="948.600000024" y="1371.59999999"/>
      <point x="791.999999985" y="1371.59999999" type="curve" smooth="yes"/>
      <point x="373.600000158" y="1371.59999999"/>
      <point x="133.399999902" y="1072.00000018"/>
      <point x="133.399999902" y="673.600000024" type="curve" smooth="yes"/>
      <point x="133.399999902" y="279.999999911"/>
      <point x="351.600000024" y="-18.0"/>
    </contour>
  </outline>
</glyph>
<glyph name="H" format="1">
  <advance width="1430.20000009"/>
  <unicode hex="0048"/>
  <outline>
    <contour>
      <point x="199.199999839" y="0.0" type="line"/>
      <point x="348.000000358" y="0.0" type="line"/>
      <point x="348.000000358" y="683.599999934" type="line"/>
      <point x="291.400000274" y="641.5999998" type="line"/>
      <point x="1143.19999981" y="641.5999998" type="line"/>
      <point x="1082.19999973" y="683.599999934" type="line"/>
      <point x="1082.19999973" y="0.0" type="line"/>
      <point x="1231.00000025" y="0.0" type="line"/>
      <point x="1231.00000025" y="1353.59999999" type="line"/>
      <point x="1082.19999973" y="1353.59999999" type="line"/>
      <point x="1082.19999973" y="707.400000066" type="line"/>
      <point x="1140.3999998" y="749.4000002" type="line"/>
      <point x="291.200000271" y="749.4000002" type="line"/>
      <point x="348.000000358" y="707.400000066" type="line"/>
      <point x="348.000000358" y="1353.59999999" type="line"/>
      <point x="199.199999839" y="1353.59999999" type="line"/>
    </contour>
  </outline>
</glyph>
<glyph name="I" format="1">
  <advance width="728.800000399"/>
  <unicode hex="0049"/>
  <outline>
    <contour>
      <point x="107.200000048" y="1353.59999999" type="line"/>
      <point x="107.200000048" y="1261.9999997" type="line"/>
      <point x="333.800000072" y="1261.9999997" type="line"/>
      <point x="290.399999946" y="1304.19999976" type="line"/>
      <point x="290.399999946" y="44.6000002325" type="line"/>
      <point x="337.600000054" y="91.6000002921" type="line"/>
      <point x="107.200000048" y="91.6000002921" type="line"/>
      <point x="107.200000048" y="0.0" type="line"/>
      <point x="621.600000352" y="0.0" type="line"/>
      <point x="621.600000352" y="91.6000002921" type="line"/>
      <point x="390.800000325" y="91.6000002921" type="line"/>
      <point x="439.200000465" y="46.0000002235" type="line"/>
      <point x="439.200000465" y="1303.19999978" type="line"/>
      <point x="394.000000313" y="1261.9999997" type="line"/>
      <point x="621.600000352" y="1261.9999997" type="line"/>
      <point x="621.600000352" y="1353.59999999" type="line"/>
    </contour>
  </outline>
</glyph>
<glyph name="J" format="1">
  <advance width="702.200000539"/>
  <unicode hex="004A"/>
  <outline>
    <contour>
      <point x="100.400000453" y="-149.200000271" type="line"/>
      <point x="401.200000361" y="-149.200000271"/>
      <point x="499.800000712" y="-2.80000004172"/>
      <point x="499.800000712" y="274.600000098" type="curve" smooth="yes"/>
      <point x="499.800000712" y="1353.59999999" type="line"/>
      <point x="351.000000194" y="1353.59999999" type="line"/>
      <point x="351.000000194" y="249.000000164" type="line" smooth="yes"/>
      <point x="351.000000194" y="57.2000004947"/>
      <point x="287.000000224" y="-28.1999998689"/>
      <point x="92.6000003368" y="-28.1999998689" type="curve" smooth="yes"/>
      <point x="6.80000005662" y="-28.1999998689" type="line"/>
      <point x="6.80000005662" y="-149.200000271" type="line"/>
    </contour>
  </outline>
</glyph>
<glyph name="K" format="1">
  <advance width="1234.80000035"/>
  <unicode hex="004B"/>
  <outline>
    <contour>
      <point x="202.399999827" y="0.0" type="line"/>
      <point x="351.200000346" y="0.0" type="line"/>
      <point x="351.200000346" y="617.799999952" type="line"/>
      <point x="306.400000319" y="519.399999827" type="line"/>
      <point x="517.000000402" y="714.799999833" type="line"/>
      <point x="449.600000262" y="718.799999863" type="line"/>
      <point x="1006.79999995" y="0.0" type="line"/>
      <point x="1182.60000053" y="0.0" type="line"/>
      <point x="544.600000694" y="803.000000075" type="line"/>
      <point x="550.200000674" y="724.999999821" type="line"/>
      <point x="1153.80000052" y="1353.59999999" type="line"/>
      <point x="979.399999931" y="1353.59999999" type="line"/>
      <point x="307.200000271" y="659.000000089" type="line"/>
      <point x="351.200000346" y="650.000000089" type="line"/>
      <point x="351.200000346" y="1353.59999999" type="line"/>
      <point x="202.399999827" y="1353.59999999" type="line"/>
    </contour>
  </outline>
</glyph>
<glyph name="L" format="1">
  <advance width="1051.60000014"/>
  <unicode hex="004C"/>
  <outline>
    <contour>
      <point x="202.399999827" y="0.0" type="line"/>
      <point x="986.200000182" y="0.0" type="line"/>
      <point x="989.000000224" y="113.600000381" type="line"/>
      <point x="290.000000224" y="113.600000381" type="line"/>
      <point x="351.200000346" y="50.8000002652" type="line"/>
      <point x="351.200000346" y="1353.59999999" type="line"/>
      <point x="202.399999827" y="1353.59999999" type="line"/>
    </contour>
  </outline>
</glyph>
<glyph name="M" format="1">
  <advance width="1710.0000003"/>
  <unicode hex="004D"/>
  <outline>
    <contour>
      <point x="202.399999827" y="0.0" type="line"/>
      <point x="342.800000325" y="0.0" type="line"/>
      <point x="344.800000355" y="896.799998462" type="line"/>
      <point x="335.000000328" y="1257.59999901" type="line"/>
      <point x="306.600000247" y="1257.59999901" type="line"/>
      <point x="789.399999991" y="142.4000002" type="line"/>
      <point x="922.800000265" y="142.4000002" type="line"/>
      <point x="1412.80000003" y="1257.59999901" type="line"/>
      <point x="1377.79999997" y="1257.59999901" type="line"/>
      <point x="1366.99999994" y="900.599998459" type="line"/>
      <point x="1368.99999997" y="0.0" type="line"/>
      <point x="1507.60000047" y="0.0" type="line"/>
      <point x="1503.60000041" y="1353.59999999" type="line"/>
      <point x="1318.20000006" y="1353.59999999" type="line"/>
      <point x="826.200000077" y="227.600000709" type="line"/>
      <point x="889.4000002" y="227.600000709" type="line"/>
      <point x="398.400000229" y="1353.59999999" type="line"/>
      <point x="206.399999887" y="1353.59999999" type="line"/>
    </contour>
  </outline>
</glyph>
<glyph name="N" format="1">
  <advance width="1482.40000007"/>
  <unicode hex="004E"/>
  <outline>
    <contour>
      <point x="202.399999827" y="0.0" type="line"/>
      <point x="337.800000384" y="0.0" type="line"/>
      <point x="337.800000384" y="756.999998704" type="line"/>
      <point x="323.400000349" y="1238.79999936" type="line"/>
      <point x="285.600000277" y="1222.79999942" type="line"/>
      <point x="1129.99999961" y="0.0" type="line"/>
      <point x="1280.00000024" y="0.0" type="line"/>
      <point x="1280.00000024" y="1353.59999999" type="line"/>
      <point x="1144.59999968" y="1353.59999999" type="line"/>
      <point x="1144.59999968" y="559.800000936" type="line"/>
      <point x="1154.99999972" y="118.200000569" type="line"/>
      <point x="1194.59999976" y="122.200000554" type="line"/>
      <point x="347.000000432" y="1353.59999999" type="line"/>
      <point x="202.399999827" y="1353.59999999" type="line"/>
    </contour>
  </outline>
</glyph>
<glyph name="O" format="1">
  <advance width="1554.00000001"/>
  <unicode hex="004F"/>
  <outline>
    <contour>
      <point x="778.400000006" y="99.6000004113" type="curve" smooth="yes"/>
      <point x="436.000000432" y="99.6000004113"/>
      <point x="282.400000423" y="335.000000238"/>
      <point x="282.400000423" y="667.400000021" type="curve" smooth="yes"/>
      <point x="282.400000423" y="1015.19999976"/>
      <point x="446.600000396" y="1253.59999958"/>
      <point x="779.200000003" y="1253.59999958" type="curve" smooth="yes"/>
      <point x="1112.59999961" y="1253.59999958"/>
      <point x="1271.59999959" y="1013.59999977"/>
      <point x="1271.59999959" y="667.400000021" type="curve" smooth="yes"/>
      <point x="1271.59999959" y="335.000000238"/>
      <point x="1120.79999958" y="99.6000004113"/>
    </contour>
    <contour>
      <point x="779.200000003" y="-18.0" type="curve" smooth="yes"/>
      <point x="1196.99999991" y="-18.0"/>
      <point x="1420.40000011" y="262.999999925"/>
      <point x="1420.40000011" y="666.200000033" type="curve" smooth="yes"/>
      <point x="1420.40000011" y="1088.60000008"/>
      <point x="1184.59999995" y="1371.59999999"/>
      <point x="780.0" y="1371.59999999" type="curve" smooth="yes"/>
      <point x="365.000000089" y="1371.59999999"/>
      <point x="133.599999905" y="1091.80000007"/>
      <point x="133.599999905" y="667.800000027" type="curve" smooth="yes"/>
      <point x="133.599999905" y="255.799999952"/>
      <point x="355.000000119" y="-18.0"/>
    </contour>
  </outline>
</glyph>
<glyph name="P" format="1">
  <advance width="1182.60000028"/>
  <unicode hex="0050"/>
  <outline>
    <contour>
      <point x="202.399999827" y="0.0" type="line"/>
      <point x="351.200000346" y="0.0" type="line"/>
      <point x="351.200000346" y="699.199999884" type="line"/>
      <point x="295.600000307" y="652.199999765" type="line"/>
      <point x="656.000000089" y="652.199999765" type="line" smooth="yes"/>
      <point x="964.20000039" y="652.199999765"/>
      <point x="1091.40000041" y="783.599999875"/>
      <point x="1091.40000041" y="1021.59999989" type="curve" smooth="yes"/>
      <point x="1091.40000041" y="1264.40000005"/>
      <point x="908.600000262" y="1353.59999999"/>
      <point x="660.000000075" y="1353.59999999" type="curve" smooth="yes"/>
      <point x="202.399999827" y="1353.59999999" type="line"/>
    </contour>
    <contour>
      <point x="652.400000006" y="766.400000155" type="curve" smooth="yes"/>
      <point x="295.400000319" y="766.400000155" type="line"/>
      <point x="351.200000346" y="724.200000048" type="line"/>
      <point x="351.200000346" y="1294.39999966" type="line"/>
      <point x="295.400000319" y="1241.19999963" type="line"/>
      <point x="654.600000098" y="1241.19999963" type="line" smooth="yes"/>
      <point x="825.200000063" y="1241.19999963"/>
      <point x="942.59999989" y="1188.99999967"/>
      <point x="942.59999989" y="1020.79999986" type="curve" smooth="yes"/>
      <point x="942.59999989" y="830.200000152"/>
      <point x="850.800000057" y="766.400000155"/>
    </contour>
  </outline>
</glyph>
<glyph name="Q" format="1">
  <advance width="1554.00000001"/>
  <unicode hex="0051"/>
  <outline>
    <contour>
      <point x="1179.99999993" y="-397.600000232" type="curve"/>
      <point x="1264.20000024" y="-319.399999976" type="line"/>
      <point x="1182.00000013" y="-234.799999878"/>
      <point x="1060.40000023" y="-74.399999842"/>
      <point x="1012.20000024" y="24.6000000685" type="curve"/>
      <point x="892.399999797" y="3.19999992847" type="line"/>
      <point x="975.799999774" y="-158.799999997"/>
      <point x="1119.59999974" y="-338.800000161"/>
    </contour>
    <component base="O"/>
  </outline>
</glyph>
<glyph name="R" format="1">
  <advance width="1337.59999995"/>
  <unicode hex="0052"/>
  <outline>
    <contour>
      <point x="202.399999827" y="0.0" type="line"/>
      <point x="351.200000346" y="0.0" type="line"/>
      <point x="351.200000346" y="695.199999705" type="line"/>
      <point x="296.000000313" y="653.599999681" type="line"/>
      <point x="848.799999848" y="653.599999681" type="line"/>
      <point x="766.399999723" y="705.999999687" type="line"/>
      <point x="881.19999972" y="443.79999958" type="line"/>
      <point x="1069.19999956" y="0.0" type="line"/>
      <point x="1222.60000011" y="0.0" type="line"/>
      <point x="1002.20000027" y="494.199999616" type="line"/>
      <point x="899.200000152" y="740.799999833" type="line"/>
      <point x="891.200000107" y="666.199999705" type="line"/>
      <point x="1069.8" y="701.599999771"/>
      <point x="1167.00000013" y="801.399999708"/>
      <point x="1167.00000013" y="1010.19999982" type="curve" smooth="yes"/>
      <point x="1167.00000013" y="1240.40000013"/>
      <point x="1040.39999983" y="1353.59999999"/>
      <point x="757.599999741" y="1353.59999999" type="curve" smooth="yes"/>
      <point x="202.399999827" y="1353.59999999" type="line"/>
    </contour>
    <contour>
      <point x="351.200000346" y="717.999999896" type="line"/>
      <point x="351.200000346" y="1292.59999967" type="line"/>
      <point x="295.200000331" y="1241.19999963" type="line"/>
      <point x="758.599999785" y="1241.19999963" type="line" smooth="yes"/>
      <point x="962.599999636" y="1241.19999963"/>
      <point x="1022.1999996" y="1157.59999971"/>
      <point x="1022.1999996" y="1008.59999982" type="curve" smooth="yes"/>
      <point x="1022.1999996" y="831.199999958"/>
      <point x="971.999999627" y="763.399999976"/>
      <point x="726.999999866" y="763.399999976" type="curve" smooth="yes"/>
      <point x="295.600000307" y="763.399999976" type="line"/>
    </contour>
  </outline>
</glyph>
<glyph name="S" format="1">
  <advance width="1134.20000014"/>
  <unicode hex="0053"/>
  <outline>
    <contour>
      <point x="567.400000021" y="-18.0" type="curve" smooth="yes"/>
      <point x="818.000000164" y="-18.0"/>
      <point x="1011.6000002" y="80.6000001431"/>
      <point x="1023.60000016" y="350.600000113" type="curve" smooth="yes"/>
      <point x="1034.00000012" y="586.000000045"/>
      <point x="883.400000289" y="659.200000182"/>
      <point x="692.400000125" y="733.4000002" type="curve" smooth="yes"/>
      <point x="479.200000122" y="816.600000158" type="line" smooth="yes"/>
      <point x="339.800000414" y="871.800000027"/>
      <point x="290.800000459" y="918.00000003"/>
      <point x="295.600000441" y="1037.39999983" type="curve" smooth="yes"/>
      <point x="302.000000417" y="1205.9999996"/>
      <point x="448.000000149" y="1253.59999958"/>
      <point x="597.800000086" y="1253.59999958" type="curve" smooth="yes"/>
      <point x="755.199999943" y="1253.59999958"/>
      <point x="873.399999976" y="1179.79999965"/>
      <point x="913.40000017" y="1156.59999959" type="curve"/>
      <point x="971.400000259" y="1256.60000002" type="line"/>
      <point x="899.200000077" y="1311.20000008"/>
      <point x="758.800000042" y="1371.59999999"/>
      <point x="605.200000018" y="1371.59999999" type="curve" smooth="yes"/>
      <point x="385.999999836" y="1371.59999999"/>
      <point x="168.199999914" y="1296.39999978"/>
      <point x="156.999999955" y="1032.39999983" type="curve" smooth="yes"/>
      <point x="149.799999982" y="851.199999794"/>
      <point x="262.599999949" y="763.999999672"/>
      <point x="434.999999911" y="698.19999972" type="curve" smooth="yes"/>
      <point x="658.599999934" y="613.599999756" type="line" smooth="yes"/>
      <point x="839.599999622" y="543.999999896"/>
      <point x="894.599999622" y="490.399999902"/>
      <point x="888.999999642" y="348.200000137" type="curve" smooth="yes"/>
      <point x="881.799999669" y="169.200000346"/>
      <point x="770.399999827" y="99.6000004113"/>
      <point x="573.400000036" y="99.6000004113" type="curve" smooth="yes"/>
      <point x="398.200000197" y="99.6000004113"/>
      <point x="283.200000018" y="159.400000349"/>
      <point x="195.00000006" y="224.600000292" type="curve"/>
      <point x="142.399999946" y="117.399999887" type="line"/>
      <point x="203.200000152" y="71.3999998122"/>
      <point x="326.600000262" y="-18.0"/>
    </contour>
  </outline>
</glyph>
<glyph name="T" format="1">
  <advance width="1081.20000024"/>
  <unicode hex="0054"/>
  <outline>
    <contour>
      <point x="464.199999869" y="0.0" type="line"/>
      <point x="613.000000387" y="0.0" type="line"/>
      <point x="613.000000387" y="1294.7999997" type="line"/>
      <point x="566.400000289" y="1241.99999955" type="line"/>
      <point x="1028.40000026" y="1241.99999955" type="line"/>
      <point x="1028.40000026" y="1353.59999999" type="line"/>
      <point x="52.7999999821" y="1353.59999999" type="line"/>
      <point x="52.7999999821" y="1241.99999955" type="line"/>
      <point x="510.799999967" y="1241.99999955" type="line"/>
      <point x="464.199999869" y="1293.39999971" type="line"/>
    </contour>
  </outline>
</glyph>
<glyph name="U" format="1">
  <advance width="1388.00000015"/>
  <unicode hex="0055"/>
  <outline>
    <contour>
      <point x="693.200000077" y="-18.0" type="curve" smooth="yes"/>
      <point x="1056.20000002" y="-18.0"/>
      <point x="1228.00000021" y="202.399999887"/>
      <point x="1228.00000021" y="495.999999955" type="curve" smooth="yes"/>
      <point x="1228.00000021" y="1353.59999999" type="line"/>
      <point x="1079.19999969" y="1353.59999999" type="line"/>
      <point x="1079.19999969" y="499.400000021" type="line" smooth="yes"/>
      <point x="1079.19999969" y="239.600000262"/>
      <point x="949.5999998" y="100.20000042"/>
      <point x="693.200000077" y="100.20000042" type="curve" smooth="yes"/>
      <point x="426.000000417" y="100.20000042"/>
      <point x="308.800000459" y="240.200000256"/>
      <point x="308.800000459" y="500.000000015" type="curve" smooth="yes"/>
      <point x="308.800000459" y="1353.59999999" type="line"/>
      <point x="159.99999994" y="1353.59999999" type="line"/>
      <point x="159.99999994" y="498.599999949" type="line" smooth="yes"/>
      <point x="159.99999994" y="204.399999872"/>
      <point x="331.600000128" y="-18.0"/>
    </contour>
  </outline>
</glyph>
<glyph name="V" format="1">
  <advance width="1282.0000003"/>
  <unicode hex="0056"/>
  <outline>
    <contour>
      <point x="580.799999759" y="0.0" type="line"/>
      <point x="701.60000053" y="0.0" type="line"/>
      <point x="1214.80000031" y="1353.59999999" type="line"/>
      <point x="1063.19999973" y="1353.59999999" type="line"/>
      <point x="748.200000063" y="481.400000393" type="line"/>
      <point x="613.600000143" y="110.200000301" type="line"/>
      <point x="670.200000182" y="110.200000301" type="line"/>
      <point x="535.80000025" y="477.200000405" type="line"/>
      <point x="220.000000566" y="1353.59999999" type="line"/>
      <point x="67.1999999881" y="1353.59999999" type="line"/>
    </contour>
  </outline>
</glyph>
<glyph name="W" format="1">
  <advance width="1945.99999985"/>
  <unicode hex="0057"/>
  <outline>
    <contour>
      <point x="476.399999708" y="0.0" type="line"/>
      <point x="619.200000182" y="0.0" type="line"/>
      <point x="998.799999923" y="1225.59999931" type="line"/>
      <point x="952.199999928" y="1225.59999931" type="line"/>
      <point x="1325.3999996" y="0.0" type="line"/>
      <point x="1471.00000007" y="0.0" type="line"/>
      <point x="1888.39999995" y="1352.8" type="line"/>
      <point x="1744.99999943" y="1352.8" type="line"/>
      <point x="1379.19999982" y="122.400000691" type="line"/>
      <point x="1418.19999981" y="122.400000691" type="line"/>
      <point x="1046.20000014" y="1321.20000009" type="line"/>
      <point x="900.799999714" y="1321.20000009" type="line"/>
      <point x="527.799999982" y="124.000000685" type="line"/>
      <point x="566.599999979" y="124.000000685" type="line"/>
      <point x="198.000000432" y="1352.8" type="line"/>
      <point x="57.5999999046" y="1352.8" type="line"/>
    </contour>
  </outline>
</glyph>
<glyph name="X" format="1">
  <advance width="1276.00000015"/>
  <unicode hex="0058"/>
  <outline>
    <contour>
      <point x="127.999999672" y="0.0" type="line"/>
      <point x="271.200000241" y="0.0" type="line"/>
      <point x="654.000000075" y="593.799999624" type="line"/>
      <point x="714.400000349" y="653.800000057" type="line"/>
      <point x="1156.40000036" y="1353.59999999" type="line"/>
      <point x="1008.59999983" y="1353.59999999" type="line"/>
      <point x="644.40000008" y="760.20000051" type="line"/>
      <point x="571.799999803" y="696.000000104" type="line"/>
    </contour>
    <contour>
      <point x="1018.3999998" y="0.0" type="line"/>
      <point x="1160.80000043" y="0.0" type="line"/>
      <point x="265.000000417" y="1353.59999999" type="line"/>
      <point x="121.599999815" y="1353.59999999" type="line"/>
    </contour>
  </outline>
</glyph>
<glyph name="Y" format="1">
  <advance width="1168.20000033"/>
  <unicode hex="0059"/>
  <outline>
    <contour>
      <point x="524.59999986" y="0.0" type="line"/>
      <point x="672.200000361" y="0.0" type="line"/>
      <point x="672.200000361" y="623.199999988" type="line"/>
      <point x="630.200000316" y="483.399999738" type="line"/>
      <point x="1109.80000038" y="1353.59999999" type="line"/>
      <point x="965.399999812" y="1353.59999999" type="line"/>
      <point x="571.800000042" y="618.000000209" type="line"/>
      <point x="624.800000161" y="618.000000209" type="line"/>
      <point x="203.000000536" y="1353.59999999" type="line"/>
      <point x="58.3999999464" y="1353.59999999" type="line"/>
      <point x="571.799999908" y="475.599999711" type="line"/>
      <point x="524.59999986" y="622.799999967" type="line"/>
    </contour>
  </outline>
</glyph>
<glyph name="Z" format="1">
  <advance width="1144.4000002"/>
  <unicode hex="005A"/>
  <outline>
    <contour>
      <point x="138.00000003" y="0.0" type="line"/>
      <point x="1023.20000023" y="0.0" type="line"/>
      <point x="1032.00000019" y="113.600000381" type="line"/>
      <point x="247.400000677" y="113.600000381" type="line"/>
      <point x="270.00000073" y="61.8000002652" type="line"/>
      <point x="1025.40000018" y="1249.99999969" type="line"/>
      <point x="1018.20000021" y="1353.59999999" type="line"/>
      <point x="172.999999925" y="1353.59999999" type="line"/>
      <point x="172.999999925" y="1241.19999963" type="line"/>
      <point x="918.799999669" y="1241.19999963" type="line"/>
      <point x="888.599999622" y="1283.19999979" type="line"/>
      <point x="138.00000003" y="108.800000235" type="line"/>
    </contour>
  </outline>
</glyph>
<glyph name="bracketleft" format="1">
  <advance width="630.400000468"/>
  <unicode hex="005B"/>
  <outline>
    <contour>
      <point x="125.200000271" y="-251.199999467" type="line"/>
      <point x="125.200000271" y="1370.00000024" type="line"/>
      <point x="530.80000037" y="1370.00000024" type="line"/>
      <point x="530.80000037" y="1268.39999995" type="line"/>
      <point x="248.600000724" y="1268.39999995" type="line"/>
      <point x="248.600000724" y="-150.999999166" type="line"/>
      <point x="530.80000037" y="-150.999999166" type="line"/>
      <point x="530.80000037" y="-251.199999467" type="line"/>
    </contour>
  </outline>
</glyph>
<glyph name="backslash" format="1">
  <advance width="886.199999839"/>
  <unicode hex="005C"/>
  <outline>
    <contour>
      <point x="641.399999619" y="-44.7999998331" type="line"/>
      <point x="121.199999914" y="1350.39999995" type="line"/>
      <point x="229.80000037" y="1350.39999995" type="line"/>
      <point x="749.800000057" y="-44.7999998331" type="line"/>
    </contour>
  </outline>
</glyph>
<glyph name="bracketright" format="1">
  <advance width="632.000000462"/>
  <unicode hex="005D"/>
  <outline>
    <contour>
      <point x="102.000000089" y="-251.199999467" type="line"/>
      <point x="102.000000089" y="-151.199999169" type="line"/>
      <point x="384.199999735" y="-151.199999169" type="line"/>
      <point x="384.199999735" y="1268.19999994" type="line"/>
      <point x="102.000000089" y="1268.19999994" type="line"/>
      <point x="102.000000089" y="1370.00000024" type="line"/>
      <point x="506.800000191" y="1370.00000024" type="line"/>
      <point x="506.800000191" y="-251.199999467" type="line"/>
    </contour>
  </outline>
</glyph>
<glyph name="asciicircum" format="1">
  <advance width="1209.79999952"/>
  <unicode hex="005E"/>
  <outline>
    <contour>
      <point x="149.199999616" y="550.999999776" type="line"/>
      <point x="548.19999969" y="1390.99999984" type="line"/>
      <point x="628.399999857" y="1390.99999984" type="line"/>
      <point x="1049.39999995" y="550.999999776" type="line"/>
      <point x="951.599999532" y="550.999999776" type="line"/>
      <point x="588.199999779" y="1260.59999931" type="line"/>
      <point x="250.200000018" y="550.999999776" type="line"/>
    </contour>
  </outline>
</glyph>
<glyph name="underscore" format="1">
  <advance width="1008.00000001"/>
  <unicode hex="005F"/>
  <outline>
    <contour>
      <point x="83.3999998719" y="-258.999999687" type="line"/>
      <point x="915.000000179" y="-258.999999687" type="line"/>
      <point x="915.000000179" y="-154.399999425" type="line"/>
      <point x="83.3999998719" y="-154.399999425" type="line"/>
    </contour>
  </outline>
</glyph>
<glyph name="grave" format="1">
  <advance width="640.599999279"/>
  <unicode hex="0060"/>
  <outline>
    <contour>
      <point x="402.999999583" y="1156.99999972" type="line"/>
      <point x="479.999999911" y="1156.99999972" type="line"/>
      <point x="315.799999863" y="1506.79999976" type="line"/>
      <point x="115.999999493" y="1506.79999976" type="line"/>
    </contour>
  </outline>
</glyph>
<glyph name="a" format="1">
  <advance width="1071.59999993"/>
  <unicode hex="0061"/>
  <outline>
    <contour>
      <point x="422.99999997" y="-14.8000000119" type="curve" smooth="yes"/>
      <point x="548.400000036" y="-14.8000000119"/>
      <point x="701.599999949" y="24.0000001192"/>
      <point x="812.599999771" y="188.199999854" type="curve"/>
      <point x="775.999999717" y="195.399999961" type="line"/>
      <point x="803.599999785" y="0.79999999702" type="line"/>
      <point x="905.600000113" y="0.79999999702" type="line"/>
      <point x="905.600000113" y="656.800000012" type="line" smooth="yes"/>
      <point x="905.600000113" y="921.200000048"/>
      <point x="746.400000066" y="1012.0000001"/>
      <point x="521.200000033" y="1012.0000001" type="curve" smooth="yes"/>
      <point x="406.800000012" y="1012.0000001"/>
      <point x="263.200000018" y="977.000000134"/>
      <point x="171.799999848" y="929.800000101" type="curve"/>
      <point x="211.799999893" y="830.799999833" type="line"/>
      <point x="303.99999994" y="877.399999797"/>
      <point x="430.799999893" y="905.399999797"/>
      <point x="529.799999863" y="905.399999797" type="curve" smooth="yes"/>
      <point x="688.799999684" y="905.399999797"/>
      <point x="765.799999684" y="824.199999943"/>
      <point x="765.799999684" y="678.600000039" type="curve"/>
      <point x="765.799999684" y="555.800000176" type="line"/>
      <point x="797.799999714" y="589.800000191" type="line"/>
      <point x="576.999999717" y="586.200000137" type="line" smooth="yes"/>
      <point x="254.399999976" y="582.000000075"/>
      <point x="113.599999934" y="474.600000143"/>
      <point x="113.599999934" y="262.600000098" type="curve" smooth="yes"/>
      <point x="113.599999934" y="81.200000003"/>
      <point x="243.799999982" y="-14.8000000119"/>
    </contour>
    <contour>
      <point x="426.200000167" y="90.6000002772" type="curve" smooth="yes"/>
      <point x="337.400000185" y="90.6000002772"/>
      <point x="250.400000304" y="143.000000253"/>
      <point x="250.400000304" y="263.600000098" type="curve" smooth="yes"/>
      <point x="250.400000304" y="410.999999985"/>
      <point x="318.200000361" y="489.199999839"/>
      <point x="610.999999911" y="492.399999887" type="curve" smooth="yes"/>
      <point x="794.999999672" y="494.59999992" type="line"/>
      <point x="765.599999681" y="527.399999931" type="line"/>
      <point x="765.599999681" y="222.000000015" type="line"/>
      <point x="797.599999711" y="324.199999928" type="line"/>
      <point x="712.599999964" y="160.600000396"/>
      <point x="577.400000006" y="90.6000002772"/>
    </contour>
  </outline>
</glyph>
<glyph name="b" format="1">
  <advance width="1178.79999991"/>
  <unicode hex="0062"/>
  <outline>
    <contour>
      <point x="635.40000008" y="-18.0" type="curve" smooth="yes"/>
      <point x="915.599999979" y="-18.0"/>
      <point x="1066.00000001" y="184.400000066"/>
      <point x="1066.00000001" y="492.600000098" type="curve" smooth="yes"/>
      <point x="1066.00000001" y="803.800000057"/>
      <point x="927.199999973" y="1011.40000011"/>
      <point x="642.600000069" y="1011.40000011" type="curve" smooth="yes"/>
      <point x="477.800000146" y="1011.40000011"/>
      <point x="343.600000247" y="908.800000191"/>
      <point x="283.200000241" y="773.20000039" type="curve"/>
      <point x="313.200000241" y="769.600000337" type="line"/>
      <point x="314.400000259" y="1003.80000028" type="line"/>
      <point x="314.400000259" y="1387.19999993" type="line"/>
      <point x="169.599999845" y="1375.99999991" type="line"/>
      <point x="169.599999845" y="0.20000000298" type="line"/>
      <point x="284.200000241" y="0.20000000298" type="line"/>
      <point x="303.400000274" y="268.599999636" type="line"/>
      <point x="259.000000283" y="263.399999589" type="line"/>
      <point x="300.400000349" y="148.19999966"/>
      <point x="423.200000376" y="-18.0"/>
    </contour>
    <contour>
      <point x="626.799999878" y="90.2000003308" type="curve" smooth="yes"/>
      <point x="432.400000125" y="90.2000003308"/>
      <point x="311.000000253" y="233.800000161"/>
      <point x="311.000000253" y="510.200000063" type="curve"/>
      <point x="310.600000262" y="742.600000054"/>
      <point x="409.200000241" y="903.399999782"/>
      <point x="634.199999869" y="903.399999782" type="curve" smooth="yes"/>
      <point x="847.199999541" y="903.399999782"/>
      <point x="923.599999592" y="729.40000008"/>
      <point x="923.599999592" y="493.600000083" type="curve" smooth="yes"/>
      <point x="923.599999592" y="248.200000122"/>
      <point x="836.599999562" y="90.2000003308"/>
    </contour>
  </outline>
</glyph>
<glyph name="c" format="1">
  <advance width="938.600000024"/>
  <unicode hex="0063"/>
  <outline>
    <contour>
      <point x="578.799999997" y="-18.0" type="curve" smooth="yes"/>
      <point x="704.600000218" y="-18.0"/>
      <point x="804.000000134" y="20.2000000775"/>
      <point x="840.000000119" y="49.6000000536" type="curve"/>
      <point x="811.000000104" y="143.800000384" type="line"/>
      <point x="763.200000018" y="116.600000337"/>
      <point x="679.600000054" y="90.0000003278"/>
      <point x="596.800000027" y="91.0000003427" type="curve" smooth="yes"/>
      <point x="365.400000349" y="92.4000003636"/>
      <point x="253.600000322" y="270.40000008"/>
      <point x="253.600000322" y="489.000000089" type="curve" smooth="yes"/>
      <point x="253.600000322" y="732.600000009"/>
      <point x="379.800000325" y="902.399999768"/>
      <point x="609.400000006" y="902.399999768" type="curve" smooth="yes"/>
      <point x="643.200000286" y="902.399999768"/>
      <point x="717.600000277" y="896.599999636"/>
      <point x="799.600000083" y="851.399999738" type="curve"/>
      <point x="842.000000149" y="945.400000051" type="line"/>
      <point x="780.800000072" y="983.000000119"/>
      <point x="690.400000051" y="1011.40000011"/>
      <point x="589.799999967" y="1011.40000011" type="curve" smooth="yes"/>
      <point x="307.999999985" y="1011.40000011"/>
      <point x="112.799999893" y="798.400000215"/>
      <point x="112.799999893" y="489.600000098" type="curve" smooth="yes"/>
      <point x="112.799999893" y="197.199999899"/>
      <point x="294.999999955" y="-18.0"/>
    </contour>
  </outline>
</glyph>
<glyph name="d" format="1">
  <advance width="1172.39999993"/>
  <unicode hex="0064"/>
  <outline>
    <contour>
      <point x="541.799999863" y="-17.799999997" type="curve" smooth="yes"/>
      <point x="757.5999998" y="-17.799999997"/>
      <point x="855.999999717" y="124.799999863"/>
      <point x="903.599999696" y="265.999999613" type="curve"/>
      <point x="867.199999645" y="269.199999601" type="line"/>
      <point x="885.999999702" y="0.0" type="line"/>
      <point x="1002.80000009" y="0.0" type="line"/>
      <point x="1002.80000009" y="1387.19999993" type="line"/>
      <point x="860.399999663" y="1375.99999991" type="line"/>
      <point x="860.399999663" y="1063.99999996" type="line"/>
      <point x="871.19999966" y="742.600000471" type="line"/>
      <point x="901.999999687" y="750.800000519" type="line"/>
      <point x="841.799999699" y="885.000000373"/>
      <point x="760.199999616" y="1011.40000011"/>
      <point x="539.399999872" y="1011.40000011" type="curve" smooth="yes"/>
      <point x="272.59999989" y="1011.40000011"/>
      <point x="112.799999893" y="802.800000086"/>
      <point x="112.799999893" y="502.600000054" type="curve" smooth="yes"/>
      <point x="112.799999893" y="188.000000045"/>
      <point x="259.99999994" y="-17.799999997"/>
    </contour>
    <contour>
      <point x="549.800000042" y="90.2000003308" type="curve" smooth="yes"/>
      <point x="337.000000328" y="90.2000003308"/>
      <point x="255.200000316" y="263.800000042"/>
      <point x="255.200000316" y="500.000000045" type="curve" smooth="yes"/>
      <point x="255.200000316" y="746.800000027"/>
      <point x="350.200000361" y="902.999999776"/>
      <point x="557.600000054" y="902.999999776" type="curve" smooth="yes"/>
      <point x="750.399999827" y="902.999999776"/>
      <point x="864.999999687" y="754.200000018"/>
      <point x="864.999999687" y="485.000000045" type="curve"/>
      <point x="864.599999681" y="252.600000054"/>
      <point x="774.599999711" y="90.2000003308"/>
    </contour>
  </outline>
</glyph>
<glyph name="e" format="1">
  <advance width="1083.20000014"/>
  <unicode hex="0065"/>
  <outline>
    <contour>
      <point x="589.400000125" y="-18.0" type="curve" smooth="yes"/>
      <point x="735.800000161" y="-18.0"/>
      <point x="850.200000212" y="15.3999999762"/>
      <point x="944.600000218" y="69.200000003" type="curve"/>
      <point x="910.400000215" y="164.400000319" type="line"/>
      <point x="809.200000435" y="115.000000432"/>
      <point x="716.400000349" y="90.8000003099"/>
      <point x="606.200000152" y="90.8000003099" type="curve" smooth="yes"/>
      <point x="409.200000241" y="90.8000003099"/>
      <point x="250.80000034" y="209.800000235"/>
      <point x="251.000000343" y="507.199999943" type="curve"/>
      <point x="210.80000031" y="475.999999896" type="line"/>
      <point x="962.200000226" y="475.999999896" type="line"/>
      <point x="962.200000226" y="475.999999896"/>
      <point x="967.600000232" y="525.400000066"/>
      <point x="967.600000232" y="551.600000024" type="curve" smooth="yes"/>
      <point x="967.600000232" y="829.600000039"/>
      <point x="825.600000143" y="1011.40000011"/>
      <point x="577.800000027" y="1011.40000011" type="curve" smooth="yes"/>
      <point x="325.59999989" y="1011.20000011"/>
      <point x="112.799999893" y="815.600000054"/>
      <point x="112.799999893" y="490.40000008" type="curve" smooth="yes"/>
      <point x="112.799999893" y="173.400000036"/>
      <point x="311.199999988" y="-18.0"/>
    </contour>
    <contour>
      <point x="254.600000352" y="535.600000128" type="line"/>
      <point x="263.400000319" y="757.000000045"/>
      <point x="396.800000325" y="905.199999809"/>
      <point x="582.200000018" y="905.199999809" type="curve" smooth="yes"/>
      <point x="760.799999788" y="905.199999809"/>
      <point x="842.799999788" y="774.999999955"/>
      <point x="843.5999998" y="529.000000164" type="curve"/>
      <point x="889.799999774" y="569.000000164" type="line"/>
      <point x="211.200000316" y="569.000000164" type="line"/>
    </contour>
  </outline>
</glyph>
<glyph name="f" format="1">
  <advance width="710.600000143"/>
  <unicode hex="0066"/>
  <outline>
    <contour>
      <point x="257.399999857" y="0.0" type="line"/>
      <point x="399.80000028" y="0.0" type="line"/>
      <point x="399.80000028" y="937.199999854" type="line"/>
      <point x="359.80000028" y="902.999999762" type="line"/>
      <point x="636.000000283" y="902.999999762" type="line"/>
      <point x="636.000000283" y="992.000000089" type="line"/>
      <point x="359.400000244" y="992.000000089" type="line"/>
      <point x="399.80000028" y="963.400000006" type="line"/>
      <point x="399.80000028" y="1065.40000001" type="line" smooth="yes"/>
      <point x="399.80000028" y="1261.99999975"/>
      <point x="460.000000238" y="1285.59999973"/>
      <point x="556.400000185" y="1285.59999973" type="curve" smooth="yes"/>
      <point x="599.600000173" y="1285.59999973"/>
      <point x="659.000000134" y="1276.39999974"/>
      <point x="665.000000224" y="1275.39999972" type="curve"/>
      <point x="675.200000271" y="1374.00000004" type="line"/>
      <point x="661.800000072" y="1376.60000008"/>
      <point x="600.600000069" y="1389.00000006"/>
      <point x="529.600000113" y="1389.00000006" type="curve" smooth="yes"/>
      <point x="358.600000024" y="1389.00000006"/>
      <point x="257.399999857" y="1304.60000011"/>
      <point x="257.399999857" y="1057.99999996" type="curve" smooth="yes"/>
      <point x="257.399999857" y="963.0" type="line"/>
      <point x="298.399999872" y="995.200000092" type="line"/>
      <point x="77.200000003" y="975.600000083" type="line"/>
      <point x="72.200000003" y="902.999999762" type="line"/>
      <point x="289.399999887" y="902.999999762" type="line"/>
      <point x="257.399999857" y="939.59999986" type="line"/>
    </contour>
  </outline>
</glyph>
<glyph name="g" format="1">
  <advance width="1189.79999985"/>
  <unicode hex="0067"/>
  <outline>
    <contour>
      <point x="566.999999955" y="108.600000322" type="curve" smooth="yes"/>
      <point x="332.000000194" y="108.600000322"/>
      <point x="251.400000259" y="327.400000021"/>
      <point x="251.400000259" y="497.200000107" type="curve" smooth="yes"/>
      <point x="251.400000259" y="684.800000116"/>
      <point x="334.000000238" y="902.999999776"/>
      <point x="571.199999973" y="902.999999776" type="curve"/>
      <point x="805.799999684" y="902.999999776"/>
      <point x="889.199999601" y="744.999999955"/>
      <point x="889.199999601" y="545.599999964" type="curve" smooth="yes"/>
      <point x="889.199999601" y="453.600000203" type="line"/>
      <point x="888.799999595" y="278.200000167"/>
      <point x="798.599999726" y="108.600000322"/>
    </contour>
    <contour>
      <point x="485.59999986" y="-428.800000206" type="curve" smooth="yes"/>
      <point x="883.799999744" y="-428.800000206"/>
      <point x="1029.39999999" y="-200.800000235"/>
      <point x="1029.39999999" y="93.6000000685" type="curve" smooth="yes"/>
      <point x="1029.39999999" y="992.000000089" type="line"/>
      <point x="898.399999633" y="992.000000089" type="line"/>
      <point x="884.399999619" y="779.200000241" type="line"/>
      <point x="916.19999963" y="781.000000268" type="line"/>
      <point x="867.199999601" y="918.200000286"/>
      <point x="749.599999622" y="1011.40000011"/>
      <point x="567.199999809" y="1011.40000011" type="curve" smooth="yes"/>
      <point x="241.800000146" y="1011.40000011"/>
      <point x="108.999999836" y="755.600000367"/>
      <point x="108.999999836" y="488.600000113" type="curve" smooth="yes"/>
      <point x="108.999999836" y="260.999999821"/>
      <point x="244.000000015" y="0.0"/>
      <point x="554.399999827" y="0.0" type="curve" smooth="yes"/>
      <point x="760.399999574" y="0.0"/>
      <point x="888.199999586" y="121.399999693"/>
      <point x="925.399999633" y="262.999999911" type="curve"/>
      <point x="888.599999592" y="263.399999946" type="line"/>
      <point x="888.599999592" y="73.1999997646" type="line" smooth="yes"/>
      <point x="888.599999592" y="-182.799999908"/>
      <point x="775.999999553" y="-317.999999866"/>
      <point x="475.59999989" y="-317.999999866" type="curve" smooth="yes"/>
      <point x="460.199999928" y="-317.999999866"/>
      <point x="438.799664467" y="-318.025897913"/>
      <point x="271.999999762" y="-311.399999872" type="curve"/>
      <point x="271.999999762" y="-422.200000212" type="line"/>
      <point x="460.999631806" y="-428.832101856"/>
      <point x="473.799999878" y="-428.800000206"/>
    </contour>
  </outline>
</glyph>
<glyph name="h" format="1">
  <advance width="1134.80000001"/>
  <unicode hex="0068"/>
  <outline>
    <contour>
      <point x="169.599999845" y="0.0" type="line"/>
      <point x="311.400000259" y="0.0" type="line"/>
      <point x="311.400000259" y="551.799999774" type="line" smooth="yes"/>
      <point x="311.400000259" y="719.799999923"/>
      <point x="373.200000182" y="903.199999779"/>
      <point x="618.99999997" y="903.199999779" type="curve" smooth="yes"/>
      <point x="776.399999812" y="903.199999779"/>
      <point x="832.799999744" y="804.59999989"/>
      <point x="832.799999744" y="608.400000036" type="curve" smooth="yes"/>
      <point x="832.799999744" y="0.0" type="line"/>
      <point x="975.200000167" y="0.0" type="line"/>
      <point x="975.200000167" y="612.200000107" type="line" smooth="yes"/>
      <point x="975.200000167" y="864.4000002"/>
      <point x="861.800000072" y="1011.40000011"/>
      <point x="643.000000089" y="1011.40000011" type="curve" smooth="yes"/>
      <point x="467.800000206" y="1011.40000011"/>
      <point x="330.800000235" y="928.40000014"/>
      <point x="269.000000209" y="774.000000313" type="curve"/>
      <point x="305.200000256" y="762.000000283" type="line"/>
      <point x="312.000000268" y="1043.60000022" type="line"/>
      <point x="312.000000268" y="1387.19999993" type="line"/>
      <point x="169.599999845" y="1375.99999991" type="line"/>
    </contour>
  </outline>
</glyph>
<glyph name="j" format="1">
  <advance width="513.200000182"/>
  <unicode hex="006A"/>
  <outline>
    <contour>
      <point x="36.799999848" y="-404.599999905" type="line"/>
      <point x="79.9999999106" y="-404.599999905" type="line" smooth="yes"/>
      <point x="299.600000277" y="-404.599999905"/>
      <point x="352.000000313" y="-335.199999645"/>
      <point x="352.000000313" y="-103.199999467" type="curve" smooth="yes"/>
      <point x="352.000000313" y="992.200000092" type="line"/>
      <point x="208.599999905" y="992.200000092" type="line"/>
      <point x="208.599999905" y="-67.9999997616" type="line" smooth="yes"/>
      <point x="208.599999905" y="-245.799999639"/>
      <point x="205.199999869" y="-279.799999654"/>
      <point x="62.5999998748" y="-279.799999654" type="curve" smooth="yes"/>
      <point x="20.5999998003" y="-279.799999654" type="line"/>
    </contour>
    <contour>
      <point x="208.599999905" y="1198.59999985" type="line"/>
      <point x="352.000000313" y="1198.59999985" type="line"/>
      <point x="352.000000313" y="1353.59999999" type="line"/>
      <point x="208.599999905" y="1353.59999999" type="line"/>
    </contour>
  </outline>
</glyph>
<glyph name="k" format="1">
  <advance width="1036.40000023"/>
  <unicode hex="006B"/>
  <outline>
    <contour>
      <point x="169.599999845" y="0.0" type="line"/>
      <point x="312.000000268" y="0.0" type="line"/>
      <point x="312.000000268" y="398.600000083" type="line"/>
      <point x="274.400000185" y="321.199999899" type="line"/>
      <point x="461.600000188" y="491.399999931" type="line"/>
      <point x="403.000000134" y="491.399999931" type="line"/>
      <point x="838.199999809" y="0.0" type="line"/>
      <point x="1004.00000031" y="0.0" type="line"/>
      <point x="495.000000507" y="567.800000176" type="line"/>
      <point x="495.000000507" y="503.399999991" type="line"/>
      <point x="994.400000259" y="992.000000089" type="line"/>
      <point x="823.399999693" y="992.000000089" type="line"/>
      <point x="272.400000229" y="453.80000028" type="line"/>
      <point x="305.800000265" y="453.80000028" type="line"/>
      <point x="312.000000268" y="682.600000381" type="line"/>
      <point x="312.000000268" y="1387.19999993" type="line"/>
      <point x="169.599999845" y="1375.99999991" type="line"/>
    </contour>
  </outline>
</glyph>
<glyph name="l" format="1">
  <advance width="582.400000364"/>
  <unicode hex="006C"/>
  <outline>
    <contour>
      <point x="448.400000244" y="-10.6000000089" type="curve" smooth="yes"/>
      <point x="514.600000277" y="-10.6000000089"/>
      <point x="568.000000328" y="-1.39999997616"/>
      <point x="585.400000289" y="1.60000002384" type="curve"/>
      <point x="585.400000289" y="100.000000328" type="line"/>
      <point x="574.000000253" y="98.8000003248"/>
      <point x="520.600000232" y="92.4000003189"/>
      <point x="472.400000304" y="92.4000003189" type="curve" smooth="yes"/>
      <point x="356.20000042" y="92.4000003189"/>
      <point x="312.400000274" y="135.800000235"/>
      <point x="312.400000274" y="266.200000465" type="curve" smooth="yes"/>
      <point x="312.400000274" y="1387.19999993" type="line"/>
      <point x="169.999999851" y="1375.99999991" type="line"/>
      <point x="169.999999851" y="273.800000474" type="line" smooth="yes"/>
      <point x="169.999999851" y="47.2000002861"/>
      <point x="295.399999782" y="-10.6000000089"/>
    </contour>
  </outline>
</glyph>
<glyph name="m" format="1">
  <advance width="1675.40000008"/>
  <unicode hex="006D"/>
  <outline>
    <contour>
      <point x="169.599999845" y="0.0" type="line"/>
      <point x="312.000000268" y="0.0" type="line"/>
      <point x="312.000000268" y="621.199999526" type="line" smooth="yes"/>
      <point x="340.000000164" y="780.399999678"/>
      <point x="432.599999905" y="903.199999779"/>
      <point x="589.400000006" y="903.199999779" type="curve" smooth="yes"/>
      <point x="735.999999896" y="903.199999779"/>
      <point x="777.599999815" y="797.999999836"/>
      <point x="777.599999815" y="554.000000134" type="curve" smooth="yes"/>
      <point x="777.599999815" y="0.0" type="line"/>
      <point x="920.000000238" y="0.0" type="line"/>
      <point x="920.000000238" y="499.200000361" type="line"/>
      <point x="921.137907057" y="581.50486881"/>
      <point x="921.301456476" y="631.932067674"/>
      <point x="927.892044129" y="657.570375723" type="curve" smooth="yes"/>
      <point x="965.305981873" y="823.415761881"/>
      <point x="1078.23793292" y="903.199999779"/>
      <point x="1195.39999995" y="903.199999779" type="curve" smooth="yes"/>
      <point x="1383.19999968" y="903.199999779"/>
      <point x="1373.39999981" y="707.600000203"/>
      <point x="1373.39999981" y="564.600000054" type="curve" smooth="yes"/>
      <point x="1373.39999981" y="0.0" type="line"/>
      <point x="1515.80000024" y="0.0" type="line"/>
      <point x="1515.80000024" y="640.400000021" type="line" smooth="yes"/>
      <point x="1515.80000024" y="882.600000054"/>
      <point x="1418.20000021" y="1011.40000011"/>
      <point x="1215.4000001" y="1011.40000011" type="curve" smooth="yes"/>
      <point x="1037.40000027" y="1011.40000011"/>
      <point x="924.600000247" y="905.80000028"/>
      <point x="861.200000182" y="756.600000337" type="curve"/>
      <point x="896.600000262" y="756.600000337" type="line"/>
      <point x="860.200000167" y="888.000000343"/>
      <point x="797.000000089" y="1011.40000011"/>
      <point x="607.600000218" y="1011.40000011" type="curve" smooth="yes"/>
      <point x="447.000000149" y="1011.40000011"/>
      <point x="334.800000161" y="914.800000131"/>
      <point x="267.200000197" y="779.800000265" type="curve"/>
      <point x="309.000000238" y="769.80000028" type="line"/>
      <point x="284.800000191" y="992.000000089" type="line"/>
      <point x="169.599999845" y="992.000000089" type="line"/>
    </contour>
  </outline>
</glyph>
<glyph name="n" format="1">
  <advance width="1137.40000014"/>
  <unicode hex="006E"/>
  <outline>
    <contour>
      <point x="169.599999845" y="0.0" type="line"/>
      <point x="312.000000268" y="0.0" type="line"/>
      <point x="312.000000268" y="562.399999753" type="line" smooth="yes"/>
      <point x="312.000000268" y="737.799999893"/>
      <point x="378.600000262" y="903.199999779"/>
      <point x="625.600000069" y="903.199999779" type="curve" smooth="yes"/>
      <point x="789.999999925" y="903.199999779"/>
      <point x="835.999999866" y="796.999999866"/>
      <point x="835.399999872" y="626.399999946" type="curve"/>
      <point x="835.399999872" y="0.0" type="line"/>
      <point x="977.800000295" y="0.0" type="line"/>
      <point x="977.800000295" y="603.200000137" type="line" smooth="yes"/>
      <point x="977.800000295" y="876.600000054"/>
      <point x="875.200000256" y="1011.40000011"/>
      <point x="647.400000229" y="1011.40000011" type="curve" smooth="yes"/>
      <point x="456.000000283" y="1011.40000011"/>
      <point x="340.80000025" y="923.800000146"/>
      <point x="280.000000149" y="797.000000164" type="curve"/>
      <point x="317.600000203" y="797.000000164" type="line"/>
      <point x="295.200000152" y="992.000000089" type="line"/>
      <point x="169.599999845" y="992.000000089" type="line"/>
    </contour>
  </outline>
</glyph>
<glyph name="o" format="1">
  <advance width="1153.60000005"/>
  <unicode hex="006F"/>
  <outline>
    <contour>
      <point x="576.800000027" y="90.0000003278" type="curve" smooth="yes"/>
      <point x="361.800000265" y="90.0000003278"/>
      <point x="253.600000322" y="265.400000095"/>
      <point x="253.600000322" y="492.800000072" type="curve" smooth="yes"/>
      <point x="253.600000322" y="726.800000012"/>
      <point x="362.200000271" y="903.199999779"/>
      <point x="576.800000027" y="903.199999779" type="curve" smooth="yes"/>
      <point x="796.599999771" y="903.199999779"/>
      <point x="899.999999732" y="726.000000015"/>
      <point x="899.999999732" y="492.000000075" type="curve" smooth="yes"/>
      <point x="899.999999732" y="265.000000089"/>
      <point x="798.799999759" y="90.0000003278"/>
    </contour>
    <contour>
      <point x="576.800000027" y="-18.0" type="curve" smooth="yes"/>
      <point x="852.800000146" y="-18.0"/>
      <point x="1040.80000016" y="199.399999946"/>
      <point x="1040.80000016" y="494.400000066" type="curve" smooth="yes"/>
      <point x="1040.80000016" y="799.000000134"/>
      <point x="870.600000039" y="1011.40000011"/>
      <point x="576.800000027" y="1011.40000011" type="curve" smooth="yes"/>
      <point x="287.199999958" y="1011.40000011"/>
      <point x="112.799999893" y="796.600000173"/>
      <point x="112.799999893" y="494.400000066" type="curve" smooth="yes"/>
      <point x="112.799999893" y="197.99999997"/>
      <point x="289.799999997" y="-18.0"/>
    </contour>
  </outline>
</glyph>
<glyph name="p" format="1">
  <advance width="1172.99999994"/>
  <unicode hex="0070"/>
  <outline>
    <contour>
      <point x="170.199999854" y="-440.799999878" type="line"/>
      <point x="312.600000277" y="-431.799999863" type="line"/>
      <point x="312.600000277" y="-67.7999998033" type="line"/>
      <point x="301.800000295" y="295.79999958" type="line"/>
      <point x="265.600000247" y="266.999999598" type="line"/>
      <point x="313.000000209" y="130.399999872"/>
      <point x="432.800000176" y="-18.0"/>
      <point x="640.600000054" y="-18.0" type="curve" smooth="yes"/>
      <point x="907.00000003" y="-18.0"/>
      <point x="1060.20000005" y="191.800000057"/>
      <point x="1060.20000005" y="491.40000008" type="curve" smooth="yes"/>
      <point x="1060.20000005" y="801.200000018"/>
      <point x="917.600000024" y="1011.40000011"/>
      <point x="638.40000014" y="1011.40000011" type="curve" smooth="yes"/>
      <point x="463.200000316" y="1011.40000011"/>
      <point x="335.400000274" y="905.400000289"/>
      <point x="276.800000176" y="751.000000343" type="curve"/>
      <point x="307.000000298" y="747.000000358" type="line"/>
      <point x="287.200000241" y="992.000000089" type="line"/>
      <point x="170.199999854" y="992.000000089" type="line"/>
    </contour>
    <contour>
      <point x="619.799999952" y="90.2000003308" type="curve" smooth="yes"/>
      <point x="424.600000143" y="90.2000003308"/>
      <point x="309.80000028" y="249.000000104"/>
      <point x="309.80000028" y="510.000000075" type="curve"/>
      <point x="310.200000286" y="739.800000057"/>
      <point x="404.600000232" y="903.199999779"/>
      <point x="628.599999905" y="903.199999779" type="curve" smooth="yes"/>
      <point x="839.599999592" y="903.199999779"/>
      <point x="917.799999624" y="728.400000066"/>
      <point x="917.799999624" y="493.40000008" type="curve" smooth="yes"/>
      <point x="917.799999624" y="250.200000152"/>
      <point x="827.399999648" y="90.2000003308"/>
    </contour>
  </outline>
</glyph>
<glyph name="q" format="1">
  <advance width="1205.99999981"/>
  <unicode hex="0071"/>
  <outline>
    <contour>
      <point x="895.599999532" y="-440.799999878" type="line"/>
      <point x="1036.39999996" y="-432.999999851" type="line"/>
      <point x="1036.39999996" y="992.000000089" type="line"/>
      <point x="906.599999607" y="992.000000089" type="line"/>
      <point x="884.799999595" y="764.200000286" type="line"/>
      <point x="913.999999672" y="770.000000328" type="line"/>
      <point x="856.599999696" y="908.200000122"/>
      <point x="744.999999791" y="1011.40000011"/>
      <point x="554.199999824" y="1011.40000011" type="curve" smooth="yes"/>
      <point x="272.59999986" y="1011.40000011"/>
      <point x="112.799999893" y="794.600000083"/>
      <point x="112.799999893" y="487.400000095" type="curve" smooth="yes"/>
      <point x="112.799999893" y="194.00000003"/>
      <point x="290.399999857" y="-18.0"/>
      <point x="550.999999851" y="-18.0" type="curve" smooth="yes"/>
      <point x="782.599999532" y="-18.0"/>
      <point x="889.399999514" y="121.599999741"/>
      <point x="936.999999613" y="265.799999669" type="curve"/>
      <point x="902.399999529" y="283.399999678" type="line"/>
      <point x="895.599999532" y="-78.3999996483" type="line"/>
    </contour>
    <contour>
      <point x="572.199999943" y="89.8000003248" type="curve" smooth="yes"/>
      <point x="357.600000247" y="89.8000003248"/>
      <point x="253.600000322" y="254.200000107"/>
      <point x="253.600000322" y="496.600000054" type="curve" smooth="yes"/>
      <point x="253.600000322" y="730.400000051"/>
      <point x="351.80000028" y="902.999999776"/>
      <point x="573.199999928" y="902.999999776" type="curve" smooth="yes"/>
      <point x="803.79999961" y="902.999999776"/>
      <point x="891.199999586" y="746.0"/>
      <point x="891.199999586" y="522.999999896" type="curve"/>
      <point x="892.999999568" y="255.00000003"/>
      <point x="817.599999547" y="89.8000003248"/>
    </contour>
  </outline>
</glyph>
<glyph name="r" format="1">
  <advance width="761.800000086"/>
  <unicode hex="0072"/>
  <outline>
    <contour>
      <point x="169.999999851" y="0.0" type="line"/>
      <point x="312.400000274" y="0.0" type="line"/>
      <point x="312.400000274" y="564.599999949" type="line" smooth="yes"/>
      <point x="312.400000274" y="739.799999878"/>
      <point x="441.800000176" y="889.399999693"/>
      <point x="616.200000167" y="889.399999693" type="curve" smooth="yes"/>
      <point x="636.600000188" y="889.399999693"/>
      <point x="660.800000191" y="887.399999693"/>
      <point x="683.400000229" y="882.19999969" type="curve"/>
      <point x="690.600000218" y="997.400000066" type="line"/>
      <point x="669.200000197" y="1001.00000007"/>
      <point x="642.600000218" y="1002.60000007"/>
      <point x="614.000000238" y="1002.60000007" type="curve" smooth="yes"/>
      <point x="487.200000271" y="1002.60000007"/>
      <point x="350.200000271" y="922.800000116"/>
      <point x="270.400000215" y="728.200000286" type="curve"/>
      <point x="302.80000031" y="722.800000265" type="line"/>
      <point x="282.000000238" y="992.000000089" type="line"/>
      <point x="169.999999851" y="992.000000089" type="line"/>
    </contour>
  </outline>
</glyph>
<glyph name="s" format="1">
  <advance width="905.200000137"/>
  <unicode hex="0073"/>
  <outline>
    <contour>
      <point x="456.200000092" y="-17.799999997" type="curve" smooth="yes"/>
      <point x="671.000000179" y="-17.799999997"/>
      <point x="800.800000206" y="76.5421600837"/>
      <point x="800.800000206" y="256.400000185" type="curve" smooth="yes"/>
      <point x="800.800000206" y="404.400000229"/>
      <point x="740.400000051" y="483.200000197"/>
      <point x="519.600000247" y="556.000000209" type="curve" smooth="yes"/>
      <point x="425.400000393" y="586.600000188" type="line" smooth="yes"/>
      <point x="293.791200414" y="631.800800232"/>
      <point x="258.000000373" y="667.400000155"/>
      <point x="258.000000373" y="759.200000033" type="curve" smooth="yes"/>
      <point x="258.000000373" y="843.799999937"/>
      <point x="336.80000028" y="905.199999809"/>
      <point x="483.600000054" y="905.199999809" type="curve" smooth="yes"/>
      <point x="585.400000006" y="905.199999809"/>
      <point x="655.200000137" y="880.399999768"/>
      <point x="717.200000182" y="852.199999735" type="curve"/>
      <point x="752.800000265" y="954.599999994" type="line"/>
      <point x="667.4000002" y="993.000000045"/>
      <point x="591.000000075" y="1011.40000011"/>
      <point x="472.200000063" y="1011.40000011" type="curve" smooth="yes"/>
      <point x="253.000000045" y="1011.40000011"/>
      <point x="132.599999994" y="897.600000158"/>
      <point x="132.599999994" y="744.000000015" type="curve"/>
      <point x="132.799999997" y="627.595999845"/>
      <point x="184.200000092" y="544.399999931"/>
      <point x="368.200000033" y="482.999999866" type="curve"/>
      <point x="460.199999884" y="452.999999881" type="line" smooth="yes"/>
      <point x="636.255199675" y="394.786399874"/>
      <point x="674.799999774" y="347.199999973"/>
      <point x="674.799999774" y="251.000000089" type="curve"/>
      <point x="674.399999768" y="144.800000221"/>
      <point x="611.399999872" y="88.400000304"/>
      <point x="461.800000072" y="87.800000295" type="curve" smooth="yes"/>
      <point x="329.800000191" y="87.2000002861"/>
      <point x="236.200000018" y="123.800000384"/>
      <point x="180.399999946" y="148.20000048" type="curve"/>
      <point x="147.399999902" y="48.6000001878" type="line"/>
      <point x="182.599999845" y="30.2000001967"/>
      <point x="309.999999911" y="-17.799999997"/>
    </contour>
  </outline>
</glyph>
<glyph name="t" format="1">
  <advance width="762.000000268"/>
  <unicode hex="0074"/>
  <outline>
    <contour>
      <point x="503.000000253" y="-10.6000000089" type="curve" smooth="yes"/>
      <point x="601.400000274" y="-10.6000000089"/>
      <point x="668.000000387" y="7.40000003576"/>
      <point x="669.600000411" y="8.0000000447" type="curve"/>
      <point x="669.600000411" y="100.600000337" type="line"/>
      <point x="668.600000396" y="100.000000328"/>
      <point x="593.400000334" y="88.8000003099"/>
      <point x="528.800000355" y="88.8000003099" type="curve" smooth="yes"/>
      <point x="430.600000352" y="88.8000003099"/>
      <point x="366.200000361" y="129.200000346"/>
      <point x="366.200000361" y="289.200000361" type="curve" smooth="yes"/>
      <point x="366.200000361" y="936.999999866" type="line"/>
      <point x="334.200000331" y="905.5999998" type="line"/>
      <point x="663.600000277" y="905.5999998" type="line"/>
      <point x="663.600000277" y="992.000000089" type="line"/>
      <point x="334.000000328" y="992.000000089" type="line"/>
      <point x="366.200000361" y="958.000000015" type="line"/>
      <point x="366.200000361" y="1245.60000008" type="line"/>
      <point x="269.800000042" y="1241.6000001" type="line"/>
      <point x="225.199999943" y="968.0" type="line"/>
      <point x="261.600000083" y="995.000000089" type="line"/>
      <point x="83.9999999106" y="982.40000008" type="line"/>
      <point x="81.1999998689" y="905.799999803" type="line"/>
      <point x="255.799999967" y="905.799999803" type="line"/>
      <point x="223.799999937" y="937.999999866" type="line"/>
      <point x="223.799999937" y="287.20000039" type="line"/>
      <point x="223.99999994" y="79.6000001729"/>
      <point x="329.599999905" y="-10.6000000089"/>
    </contour>
  </outline>
</glyph>
<glyph name="v" format="1">
  <advance width="1013.20000021"/>
  <unicode hex="0076"/>
  <outline>
    <contour>
      <point x="436.599999949" y="0.0" type="line"/>
      <point x="582.600000322" y="0.0" type="line"/>
      <point x="958.400000319" y="992.000000089" type="line"/>
      <point x="814.399999857" y="992.000000089" type="line"/>
      <point x="610.399999961" y="421.400000185" type="line"/>
      <point x="490.600000143" y="86.20000045" type="line"/>
      <point x="529.600000158" y="86.20000045" type="line"/>
      <point x="407.800000295" y="419.200000197" type="line"/>
      <point x="199.400000364" y="992.000000089" type="line"/>
      <point x="54.7999998927" y="992.000000089" type="line"/>
    </contour>
  </outline>
</glyph>
<glyph name="w" format="1">
  <advance width="1469.80000031"/>
  <unicode hex="0077"/>
  <outline>
    <contour>
      <point x="334.599999934" y="0.0" type="line"/>
      <point x="471.400000334" y="0.0" type="line"/>
      <point x="751.800000176" y="924.599999636" type="line"/>
      <point x="722.800000116" y="924.599999636" type="line"/>
      <point x="1024.39999983" y="0.0" type="line"/>
      <point x="1148.00000028" y="0.0" type="line"/>
      <point x="1411.80000043" y="992.000000089" type="line"/>
      <point x="1282.59999999" y="992.000000089" type="line"/>
      <point x="1068.20000003" y="92.6000005305" type="line"/>
      <point x="1102.20000005" y="92.6000005305" type="line"/>
      <point x="814.200000346" y="992.000000089" type="line"/>
      <point x="659.399999976" y="992.000000089" type="line"/>
      <point x="388.600000173" y="92.6000005305" type="line"/>
      <point x="420.200000182" y="92.6000005305" type="line"/>
      <point x="191.000000313" y="992.000000089" type="line"/>
      <point x="57.9999998808" y="992.000000089" type="line"/>
    </contour>
  </outline>
</glyph>
<glyph name="x" format="1">
  <advance width="1009.0000003"/>
  <unicode hex="0078"/>
  <outline>
    <contour>
      <point x="41.9999999702" y="0.0" type="line"/>
      <point x="200.000000447" y="0.0" type="line"/>
      <point x="520.800000161" y="424.799999803" type="line"/>
      <point x="571.000000358" y="467.200000003" type="line"/>
      <point x="950.600000337" y="992.000000089" type="line"/>
      <point x="792.59999986" y="992.000000089" type="line"/>
      <point x="487.600000128" y="565.200000376" type="line"/>
      <point x="439.599999905" y="530.400000125" type="line"/>
    </contour>
    <contour>
      <point x="795.199999884" y="0.0" type="line"/>
      <point x="952.600000381" y="0.0" type="line"/>
      <point x="226.600000411" y="992.000000089" type="line"/>
      <point x="68.1999999285" y="992.000000089" type="line"/>
    </contour>
  </outline>
</glyph>
<glyph name="y" format="1">
  <advance width="1015.20000015"/>
  <unicode hex="0079"/>
  <outline>
    <contour>
      <point x="444.200000286" y="-374.400000006" type="line"/>
      <point x="970.000000224" y="992.000000089" type="line"/>
      <point x="831.19999975" y="992.000000089" type="line"/>
      <point x="515.600000054" y="136.800000399" type="line"/>
      <point x="552.000000104" y="136.800000399" type="line"/>
      <point x="214.600000352" y="992.000000089" type="line"/>
      <point x="69.5999999046" y="992.000000089" type="line"/>
      <point x="490.199999884" y="-33.2000000477" type="line"/>
      <point x="490.199999884" y="80.2000000775" type="line"/>
      <point x="322.799999863" y="-356.999999955" type="line"/>
    </contour>
  </outline>
</glyph>
<glyph name="z" format="1">
  <advance width="879.000000313"/>
  <unicode hex="007A"/>
  <outline>
    <contour>
      <point x="111.99999997" y="0.0" type="line"/>
      <point x="776.400000364" y="0.0" type="line"/>
      <point x="776.400000364" y="100.80000034" type="line"/>
      <point x="202.400000542" y="100.80000034" type="line"/>
      <point x="224.400000528" y="45.8000002801" type="line"/>
      <point x="769.200000331" y="894.399999797" type="line"/>
      <point x="769.200000331" y="992.000000089" type="line"/>
      <point x="132.399999976" y="992.000000089" type="line"/>
      <point x="132.399999976" y="892.799999774" type="line"/>
      <point x="680.999999851" y="892.799999774" type="line"/>
      <point x="658.999999836" y="942.999999821" type="line"/>
      <point x="111.99999997" y="93.2000002414" type="line"/>
    </contour>
  </outline>
</glyph>
<glyph name="braceleft" format="1">
  <advance width="739.799999818"/>
  <unicode hex="007B"/>
  <outline>
    <contour>
      <point x="593.200000137" y="-259.399999946" type="line" smooth="yes"/>
      <point x="377.799999982" y="-259.399999946"/>
      <point x="300.799999774" y="-141.200000167"/>
      <point x="300.799999774" y="63.5999998748" type="curve" smooth="yes"/>
      <point x="300.799999774" y="229.000000179" type="line" smooth="yes"/>
      <point x="300.799999774" y="393.000000075"/>
      <point x="283.999999702" y="514.799999788"/>
      <point x="103.399999797" y="517.199999779" type="curve" smooth="yes"/>
      <point x="103.399999797" y="622.200000182" type="line"/>
      <point x="280.599999741" y="622.400000185"/>
      <point x="300.799999774" y="747.799999863"/>
      <point x="300.799999774" y="908.999999776" type="curve" smooth="yes"/>
      <point x="300.799999774" y="1119.19999997" type="line" smooth="yes"/>
      <point x="300.799999774" y="1298.6000001"/>
      <point x="400.199999914" y="1404.59999992"/>
      <point x="593.200000137" y="1405.39999992" type="curve" smooth="yes"/>
      <point x="593.200000137" y="1302.99999955" type="line"/>
      <point x="459.200000167" y="1300.99999955"/>
      <point x="413.000000268" y="1242.79999965"/>
      <point x="413.000000268" y="1076.19999985" type="curve" smooth="yes"/>
      <point x="413.000000268" y="834.399999857" type="line"/>
      <point x="412.600000262" y="720.799999833"/>
      <point x="378.4000002" y="667.399999797"/>
      <point x="245.200000271" y="565.599999994" type="curve"/>
      <point x="370.4000002" y="530.600000009"/>
      <point x="413.800000265" y="413.800000176"/>
      <point x="413.000000268" y="309.600000113" type="curve" smooth="yes"/>
      <point x="413.000000268" y="68.2000001073" type="line" smooth="yes"/>
      <point x="413.000000268" y="-92.7999997139"/>
      <point x="456.600000173" y="-157.79999958"/>
      <point x="593.200000137" y="-159.79999958" type="curve"/>
    </contour>
  </outline>
</glyph>
<glyph name="bar" format="1">
  <advance width="288.20000118"/>
  <unicode hex="007C"/>
  <outline>
    <contour>
      <point x="89.800000459" y="-355.999999627" type="line"/>
      <point x="89.800000459" y="1456.8" type="line"/>
      <point x="194.00000082" y="1456.8" type="line"/>
      <point x="194.00000082" y="-355.999999627" type="line"/>
    </contour>
  </outline>
</glyph>
<glyph name="braceright" format="1">
  <advance width="739.799999818"/>
  <unicode hex="007D"/>
  <outline>
    <contour>
      <point x="109.59999989" y="-259.399999946" type="curve"/>
      <point x="109.59999989" y="-157.399999589" type="line"/>
      <point x="243.59999986" y="-155.399999589"/>
      <point x="289.599999756" y="-97.799999699"/>
      <point x="289.599999756" y="69.0000001043" type="curve" smooth="yes"/>
      <point x="289.599999756" y="311.200000107" type="line" smooth="yes"/>
      <point x="289.599999756" y="425.200000137"/>
      <point x="325.199999839" y="478.600000173"/>
      <point x="457.599999756" y="578.399999946" type="curve"/>
      <point x="331.399999812" y="615.399999961"/>
      <point x="289.199999765" y="731.799999788"/>
      <point x="289.599999756" y="835.999999851" type="curve"/>
      <point x="289.599999756" y="1076.99999985" type="line" smooth="yes"/>
      <point x="289.599999756" y="1238.19999968"/>
      <point x="246.199999854" y="1303.39999954"/>
      <point x="109.59999989" y="1305.39999954" type="curve"/>
      <point x="109.59999989" y="1405.39999992" type="line"/>
      <point x="324.800000042" y="1405.39999992"/>
      <point x="401.80000025" y="1287.60000014"/>
      <point x="401.80000025" y="1081.60000008" type="curve" smooth="yes"/>
      <point x="401.80000025" y="914.399999753" type="line" smooth="yes"/>
      <point x="401.80000025" y="750.399999857"/>
      <point x="417.600000307" y="629.600000158"/>
      <point x="599.400000229" y="627.000000164" type="curve"/>
      <point x="599.400000229" y="521.999999762" type="line"/>
      <point x="423.600000307" y="521.999999762"/>
      <point x="401.80000025" y="396.000000075"/>
      <point x="401.80000025" y="234.600000158" type="curve" smooth="yes"/>
      <point x="401.80000025" y="25.9999999851" type="line" smooth="yes"/>
      <point x="401.80000025" y="-153.000000134"/>
      <point x="303.800000131" y="-258.599999949"/>
    </contour>
  </outline>
</glyph>
<glyph name="asciitilde" format="1">
  <advance width="1129.40000004"/>
  <unicode hex="007E"/>
  <outline>
    <contour>
      <point x="127.200000256" y="465.799999878" type="curve"/>
      <point x="95.2000000626" y="547.000000089" type="line"/>
      <point x="136.600000083" y="649.400000066"/>
      <point x="218.600000069" y="727.600000083"/>
      <point x="335.800000146" y="727.600000083" type="curve" smooth="yes"/>
      <point x="409.800000161" y="727.600000083"/>
      <point x="459.600000277" y="708.00000006"/>
      <point x="555.600000203" y="665.400000095" type="curve" smooth="yes"/>
      <point x="645.800000161" y="627.200000107"/>
      <point x="723.000000089" y="588.600000173"/>
      <point x="780.200000063" y="588.600000173" type="curve" smooth="yes"/>
      <point x="858.400000021" y="588.600000173"/>
      <point x="934.599999964" y="660.400000036"/>
      <point x="965.400000125" y="738.600000054" type="curve"/>
      <point x="1005.80000027" y="664.799999833" type="line"/>
      <point x="960.200000256" y="547.599999934"/>
      <point x="892.600000083" y="478.999999866"/>
      <point x="779.800000012" y="478.999999866" type="curve" smooth="yes"/>
      <point x="718.399999917" y="478.999999866"/>
      <point x="650.399999931" y="504.399999872"/>
      <point x="574.999999896" y="538.399999887" type="curve"/>
      <point x="472.400000036" y="583.799999833"/>
      <point x="399.000000119" y="616.999999791"/>
      <point x="333.400000125" y="616.999999791" type="curve" smooth="yes"/>
      <point x="249.800000146" y="616.999999791"/>
      <point x="172.000000224" y="548.799999818"/>
    </contour>
  </outline>
</glyph>
<glyph name="cent" format="1">
  <advance width="937.0"/>
  <unicode hex="00A2"/>
  <outline>
    <contour>
      <point x="549.000000089" y="-146.0" type="line"/>
      <point x="625.000000119" y="-146.0" type="line"/>
      <point x="625.000000119" y="1156.0" type="line"/>
      <point x="549.000000089" y="1156.0" type="line"/>
    </contour>
    <component base="c"/>
  </outline>
</glyph>
<glyph name="sterling" format="1">
  <advance width="1098.79999965"/>
  <unicode hex="00A3"/>
  <outline>
    <contour>
      <point x="122.999999806" y="-6.59999990463" type="line"/>
      <point x="112.399999812" y="99.2000004053" type="line"/>
      <point x="285.19999975" y="113.800000429" type="line" smooth="yes"/>
      <point x="285.19999975" y="624.999999925" type="line"/>
      <point x="112.999999776" y="624.999999925" type="line"/>
      <point x="112.999999776" y="728.200000212" type="line"/>
      <point x="285.19999975" y="728.200000212" type="line"/>
      <point x="285.19999975" y="826.600000158" type="line"/>
      <point x="285.19999975" y="1103.40000018"/>
      <point x="329.0" y="1370.59999996"/>
      <point x="666.199999839" y="1370.59999996" type="curve" smooth="yes"/>
      <point x="800.59999986" y="1370.59999996"/>
      <point x="903.999999911" y="1320.59999996"/>
      <point x="982.199999958" y="1253.99999993" type="curve"/>
      <point x="924.599999785" y="1163.39999965" type="line"/>
      <point x="843.5999998" y="1226.79999961"/>
      <point x="760.799999848" y="1261.3999996"/>
      <point x="664.199999884" y="1261.3999996" type="curve" smooth="yes"/>
      <point x="466.200000152" y="1261.3999996"/>
      <point x="408.200000182" y="1113.39999986"/>
      <point x="408.200000182" y="894.000000149" type="curve" smooth="yes"/>
      <point x="408.200000182" y="728.200000212" type="line"/>
      <point x="792.800000027" y="728.200000212" type="line"/>
      <point x="792.800000027" y="624.399999931" type="line"/>
      <point x="408.200000182" y="624.399999931" type="line"/>
      <point x="408.200000182" y="115.600000426" type="line"/>
      <point x="994.599999979" y="115.600000426" type="line"/>
      <point x="981.400000006" y="-6.59999990463" type="line"/>
    </contour>
  </outline>
</glyph>
<glyph name="currency" format="1">
  <advance width="1245.79999915"/>
  <unicode hex="00A4"/>
  <outline>
    <contour>
      <point x="1036.39999951" y="211.599999994" type="line"/>
      <point x="1086.99999967" y="268.000000149" type="line"/>
      <point x="919.999999687" y="431.200000122" type="line"/>
      <point x="970.599999651" y="496.000000119"/>
      <point x="999.799999624" y="574.600000083"/>
      <point x="999.799999624" y="663.000000045" type="curve" smooth="yes"/>
      <point x="999.799999624" y="745.00000003"/>
      <point x="970.799999639" y="824.400000006"/>
      <point x="918.999999687" y="894.99999997" type="curve"/>
      <point x="1087.99999967" y="1056.99999996" type="line"/>
      <point x="1036.39999951" y="1114.0000001" type="line"/>
      <point x="865.399999529" y="953.000000119" type="line"/>
      <point x="798.199999541" y="1010.00000009"/>
      <point x="713.399999589" y="1041.60000007"/>
      <point x="619.799999624" y="1041.60000007" type="curve" smooth="yes"/>
      <point x="526.599999666" y="1041.60000007"/>
      <point x="440.599999696" y="1012.00000007"/>
      <point x="372.399999723" y="954.200000122" type="curve"/>
      <point x="203.19999975" y="1114.0000001" type="line"/>
      <point x="147.399999589" y="1059.59999995" type="line"/>
      <point x="319.799999565" y="894.99999997" type="line"/>
      <point x="268.399999604" y="828.399999976"/>
      <point x="238.19999963" y="748.000000015"/>
      <point x="238.19999963" y="663.000000045" type="curve" smooth="yes"/>
      <point x="238.19999963" y="577.000000075"/>
      <point x="267.999999613" y="498.600000098"/>
      <point x="319.799999565" y="431.200000122" type="curve"/>
      <point x="148.399999589" y="269.200000137" type="line"/>
      <point x="203.19999975" y="212.599999994" type="line"/>
      <point x="372.799999714" y="372.99999997" type="line"/>
      <point x="440.599999696" y="315.400000006"/>
      <point x="525.19999966" y="285.400000021"/>
      <point x="619.799999624" y="285.400000021" type="curve" smooth="yes"/>
      <point x="713.999999583" y="285.400000021"/>
      <point x="797.79999955" y="316.000000015"/>
      <point x="865.399999529" y="372.399999976" type="curve"/>
    </contour>
    <contour>
      <point x="619.799999624" y="369.200000241" type="curve" smooth="yes"/>
      <point x="453.799999759" y="369.200000241"/>
      <point x="319.799999863" y="500.200000152"/>
      <point x="319.799999863" y="663.000000045" type="curve" smooth="yes"/>
      <point x="319.799999863" y="825.599999934"/>
      <point x="453.799999759" y="957.799999848"/>
      <point x="619.799999624" y="957.799999848" type="curve" smooth="yes"/>
      <point x="785.999999493" y="957.799999848"/>
      <point x="919.399999395" y="824.99999994"/>
      <point x="919.399999395" y="663.000000045" type="curve" smooth="yes"/>
      <point x="919.399999395" y="501.000000149"/>
      <point x="786.999999493" y="369.200000241"/>
    </contour>
  </outline>
</glyph>
<glyph name="yen" format="1">
  <advance width="1237.99999928"/>
  <unicode hex="00A5"/>
  <outline>
    <contour>
      <point x="509.799999639" y="0.0" type="line"/>
      <point x="651.600000054" y="0.0" type="line"/>
      <point x="651.600000054" y="284.999999896" type="line"/>
      <point x="948.600000098" y="284.999999896" type="line"/>
      <point x="948.600000098" y="373.200000182" type="line"/>
      <point x="651.600000054" y="373.200000182" type="line"/>
      <point x="651.600000054" y="558.999999881" type="line"/>
      <point x="947.000000104" y="558.999999881" type="line"/>
      <point x="947.000000104" y="648.600000128" type="line"/>
      <point x="696.722400154" y="648.600000128" type="line"/>
      <point x="1091.0000001" y="1350.39999995" type="line"/>
      <point x="951.79999961" y="1350.39999995" type="line"/>
      <point x="579.800799841" y="671.542400419" type="line"/>
      <point x="178.800000176" y="1350.39999995" type="line"/>
      <point x="39.3999996632" y="1350.39999995" type="line"/>
      <point x="460.119199541" y="648.600000128" type="line"/>
      <point x="203.999999642" y="648.600000128" type="line"/>
      <point x="203.999999642" y="558.999999881" type="line"/>
      <point x="509.799999639" y="558.999999881" type="line"/>
      <point x="509.799999639" y="373.200000182" type="line"/>
      <point x="202.399999648" y="373.200000182" type="line"/>
      <point x="202.399999648" y="284.999999896" type="line"/>
      <point x="509.799999639" y="284.999999896" type="line"/>
    </contour>
  </outline>
</glyph>
<glyph name="brokenbar" format="1">
  <advance width="270.800001666"/>
  <unicode hex="00A6"/>
  <outline>
    <contour>
      <point x="81.2000006884" y="-371.399999872" type="line"/>
      <point x="81.2000006884" y="266.200000241" type="line"/>
      <point x="186.200001046" y="266.200000241" type="line"/>
      <point x="186.200001046" y="-371.399999872" type="line"/>
    </contour>
    <contour>
      <point x="81.2000006884" y="811.799999729" type="line"/>
      <point x="81.2000006884" y="1446.79999985" type="line"/>
      <point x="186.200001046" y="1446.79999985" type="line"/>
      <point x="186.200001046" y="811.799999729" type="line"/>
    </contour>
  </outline>
</glyph>
<glyph name="dieresis" format="1">
  <advance width="708.59999989"/>
  <unicode hex="00A8"/>
  <outline>
    <contour>
      <point x="124.599999771" y="1147.79999989" type="line"/>
      <point x="244.200000048" y="1147.79999989" type="line"/>
      <point x="244.200000048" y="1324.00000015" type="line"/>
      <point x="124.599999771" y="1324.00000015" type="line"/>
    </contour>
    <contour>
      <point x="470.999999881" y="1147.79999989" type="line"/>
      <point x="591.200000152" y="1147.79999989" type="line"/>
      <point x="591.200000152" y="1324.00000015" type="line"/>
      <point x="470.999999881" y="1324.00000015" type="line"/>
    </contour>
  </outline>
</glyph>
<glyph name="copyright" format="1">
  <advance width="1727.39999928"/>
  <unicode hex="00A9"/>
  <outline>
    <contour>
      <point x="886.199999526" y="218.400000066" type="curve" smooth="yes"/>
      <point x="979.999999583" y="218.400000066"/>
      <point x="1072.59999959" y="244.600000069"/>
      <point x="1157.39999954" y="298.800000042" type="curve"/>
      <point x="1126.79999948" y="376.600000158" type="line"/>
      <point x="1042.19999956" y="325.000000209"/>
      <point x="965.199999526" y="307.4000002"/>
      <point x="887.999999568" y="307.4000002" type="curve" smooth="yes"/>
      <point x="691.19999966" y="307.4000002"/>
      <point x="533.399999842" y="457.40000011"/>
      <point x="533.399999842" y="706.199999899" type="curve" smooth="yes"/>
      <point x="533.399999842" y="931.599999785"/>
      <point x="690.999999657" y="1090.99999967"/>
      <point x="880.199999586" y="1090.99999967" type="curve" smooth="yes"/>
      <point x="950.199999571" y="1090.99999967"/>
      <point x="1043.39999953" y="1067.19999969"/>
      <point x="1114.5999995" y="1011.59999976" type="curve"/>
      <point x="1153.99999955" y="1093.19999985" type="line"/>
      <point x="1067.1999996" y="1153.59999982"/>
      <point x="972.599999607" y="1180.99999981"/>
      <point x="877.199999556" y="1180.99999981" type="curve" smooth="yes"/>
      <point x="629.399999559" y="1180.99999981"/>
      <point x="420.399999708" y="976.199999824"/>
      <point x="420.399999708" y="700.59999992" type="curve" smooth="yes"/>
      <point x="420.399999708" y="418.800000012"/>
      <point x="635.799999565" y="218.400000066"/>
    </contour>
    <contour>
      <point x="862.999999657" y="48.8000002205" type="curve" smooth="yes"/>
      <point x="542.999999613" y="48.8000002205"/>
      <point x="226.199999884" y="268.600000367"/>
      <point x="226.199999884" y="703.199999943" type="curve" smooth="yes"/>
      <point x="226.199999884" y="1137.39999951"/>
      <point x="542.999999613" y="1357.59999967"/>
      <point x="862.799999654" y="1357.59999967" type="curve" smooth="yes"/>
      <point x="1183.59999971" y="1357.59999967"/>
      <point x="1503.59999943" y="1136.59999952"/>
      <point x="1503.59999943" y="702.99999994" type="curve" smooth="yes"/>
      <point x="1503.59999943" y="269.400000364"/>
      <point x="1183.79999971" y="48.8000002205"/>
    </contour>
    <contour>
      <point x="862.999999657" y="-29.5999998897" type="curve" smooth="yes"/>
      <point x="1227.59999971" y="-29.5999998897"/>
      <point x="1601.59999952" y="214.600000262"/>
      <point x="1601.59999952" y="703.199999943" type="curve" smooth="yes"/>
      <point x="1601.59999952" y="1191.59999962"/>
      <point x="1227.1999997" y="1436.99999978"/>
      <point x="862.799999654" y="1436.99999978" type="curve" smooth="yes"/>
      <point x="498.999999613" y="1436.99999978"/>
      <point x="127.999999791" y="1191.79999962"/>
      <point x="127.999999791" y="703.199999943" type="curve" smooth="yes"/>
      <point x="127.999999791" y="214.600000262"/>
      <point x="499.199999616" y="-29.5999998897"/>
    </contour>
  </outline>
</glyph>
<glyph name="ordfeminine" format="1">
  <advance width="786.399999544"/>
  <unicode hex="00AA"/>
  <outline>
    <contour>
      <point x="351.399999693" y="773.199999675" type="curve" smooth="yes"/>
      <point x="233.799999714" y="773.199999675"/>
      <point x="152.799999654" y="856.399999619"/>
      <point x="152.799999654" y="979.399999648" type="curve" smooth="yes"/>
      <point x="152.799999654" y="1147.79999974"/>
      <point x="289.599999964" y="1179.19999969"/>
      <point x="526.999999687" y="1192.39999971" type="curve"/>
      <point x="526.999999687" y="1206.79999973" type="line"/>
      <point x="523.599999696" y="1318.79999964"/>
      <point x="498.599999681" y="1369.19999956"/>
      <point x="402.199999779" y="1369.19999956" type="curve" smooth="yes"/>
      <point x="332.399999827" y="1369.19999956"/>
      <point x="272.199999779" y="1367.19999951"/>
      <point x="214.599999666" y="1279.9999997" type="curve"/>
      <point x="155.799999714" y="1336.59999992" type="line"/>
      <point x="217.399999797" y="1439.7999997"/>
      <point x="299.199999869" y="1467.19999969"/>
      <point x="402.799999833" y="1467.19999969" type="curve" smooth="yes"/>
      <point x="513.799999923" y="1467.19999969"/>
      <point x="610.599999994" y="1397.79999973"/>
      <point x="610.599999994" y="1227.99999973" type="curve" smooth="yes"/>
      <point x="607.400000006" y="920.199999601" type="line" smooth="yes"/>
      <point x="607.400000006" y="905.199999645"/>
      <point x="607.000000015" y="905.199999228"/>
      <point x="614.199999988" y="794.799999639" type="curve"/>
      <point x="519.999999821" y="794.799999639" type="line"/>
      <point x="520.599999771" y="869.199999601" type="line"/>
      <point x="487.399999738" y="811.399999648"/>
      <point x="436.19999963" y="773.199999675"/>
    </contour>
    <contour>
      <point x="145.999999806" y="608.399999544" type="line"/>
      <point x="145.999999806" y="694.19999969" type="line"/>
      <point x="632.999999925" y="694.19999969" type="line"/>
      <point x="632.999999925" y="608.399999544" type="line"/>
    </contour>
    <contour>
      <point x="368.399999693" y="865.799999803" type="curve" smooth="yes"/>
      <point x="497.799999416" y="865.799999803"/>
      <point x="538.199999481" y="987.599999472"/>
      <point x="526.999999687" y="1112.99999924" type="curve"/>
      <point x="526.999999687" y="1116.79999955" type="line"/>
      <point x="425.199999541" y="1107.39999951"/>
      <point x="239.799999923" y="1119.5999994"/>
      <point x="239.799999923" y="977.399999648" type="curve" smooth="yes"/>
      <point x="239.799999923" y="896.399999768"/>
      <point x="291.199999839" y="865.799999803"/>
    </contour>
  </outline>
</glyph>
<glyph name="guillemotleft" format="1">
  <advance width="938.400000036"/>
  <unicode hex="00AB"/>
  <outline>
    <contour>
      <point x="369.599999905" y="141.59999992" type="line"/>
      <point x="468.000000283" y="166.600000024" type="line"/>
      <point x="224.600000277" y="508.600000039" type="line"/>
      <point x="474.200000271" y="846.000000075" type="line"/>
      <point x="372.599999905" y="871.600000173" type="line"/>
      <point x="109.199999854" y="506.200000152" type="line"/>
      <point x="138.999999702" y="463.200000152" type="line"/>
    </contour>
    <contour>
      <point x="706.200000033" y="141.59999992" type="line"/>
      <point x="787.600000471" y="166.600000024" type="line"/>
      <point x="561.000000402" y="508.600000039" type="line"/>
      <point x="790.000000477" y="846.000000075" type="line"/>
      <point x="708.200000033" y="871.600000173" type="line"/>
      <point x="438.399999946" y="516.0" type="line"/>
    </contour>
  </outline>
</glyph>
<glyph name="logicalnot" format="1">
  <advance width="1127.40000001"/>
  <unicode hex="00AC"/>
  <outline>
    <contour>
      <point x="902.599999771" y="239.399999961" type="line"/>
      <point x="999.000000119" y="239.399999961" type="line"/>
      <point x="999.000000119" y="744.600000098" type="line"/>
      <point x="103.200000033" y="744.600000098" type="line"/>
      <point x="103.200000033" y="632.799999803" type="line"/>
      <point x="902.599999771" y="632.799999803" type="line"/>
    </contour>
  </outline>
</glyph>
<glyph name="uni00AD" format="1">
  <advance width="943.999998912"/>
  <unicode hex="00AD"/>
  <outline>
    <contour>
      <point x="112.999999806" y="171.400000662" type="line"/>
      <point x="831.199999169" y="171.400000662" type="line"/>
      <point x="831.199999169" y="285.400000989" type="line"/>
      <point x="112.999999806" y="285.400000989" type="line"/>
    </contour>
  </outline>
</glyph>
<glyph name="registered" format="1">
  <advance width="1725.99999925"/>
  <unicode hex="00AE"/>
  <outline>
    <contour>
      <point x="577.399999663" y="281.399999887" type="line"/>
      <point x="680.199999839" y="281.399999887" type="line"/>
      <point x="680.199999839" y="703.999999687" type="line"/>
      <point x="901.199999467" y="703.999999687" type="line"/>
      <point x="907.199999556" y="697.999999598"/>
      <point x="1108.59999944" y="281.399999887"/>
      <point x="1108.59999944" y="281.399999887" type="curve"/>
      <point x="1221.59999965" y="281.399999887" type="line"/>
      <point x="1221.59999965" y="281.399999887"/>
      <point x="1014.79999979" y="703.399999499"/>
      <point x="1003.99999963" y="717.799999714" type="curve"/>
      <point x="1129.19999966" y="728.5999998"/>
      <point x="1190.79999961" y="815.599999756"/>
      <point x="1190.79999961" y="946.599999741" type="curve" smooth="yes"/>
      <point x="1190.79999961" y="1102.39999981"/>
      <point x="1118.7999994" y="1175.79999979"/>
      <point x="887.599999577" y="1175.79999979" type="curve" smooth="yes"/>
      <point x="577.399999663" y="1175.79999979" type="line"/>
    </contour>
    <contour>
      <point x="680.799999833" y="793.599999845" type="line"/>
      <point x="680.799999833" y="1086.39999963" type="line"/>
      <point x="874.399999484" y="1086.39999963" type="line" smooth="yes"/>
      <point x="1033.7999994" y="1086.39999963"/>
      <point x="1092.59999941" y="1066.39999969"/>
      <point x="1092.59999941" y="942.19999975" type="curve" smooth="yes"/>
      <point x="1092.59999941" y="839.199999735"/>
      <point x="1053.59999931" y="793.599999845"/>
      <point x="914.399999365" y="793.599999845" type="curve" smooth="yes"/>
    </contour>
    <contour>
      <point x="862.799999654" y="48.8000002205" type="curve" smooth="yes"/>
      <point x="542.999999613" y="48.8000002205"/>
      <point x="226.199999884" y="268.600000367"/>
      <point x="226.199999884" y="703.199999943" type="curve" smooth="yes"/>
      <point x="226.199999884" y="1137.39999951"/>
      <point x="542.79999961" y="1357.59999967"/>
      <point x="862.599999651" y="1357.59999967" type="curve" smooth="yes"/>
      <point x="1183.1999997" y="1357.59999967"/>
      <point x="1502.79999942" y="1136.59999952"/>
      <point x="1502.79999942" y="702.99999994" type="curve" smooth="yes"/>
      <point x="1502.79999942" y="269.400000364"/>
      <point x="1183.1999997" y="48.8000002205"/>
    </contour>
    <contour>
      <point x="862.799999654" y="-29.5999998897" type="curve" smooth="yes"/>
      <point x="1226.9999997" y="-29.5999998897"/>
      <point x="1600.99999951" y="214.600000262"/>
      <point x="1600.99999951" y="703.199999943" type="curve" smooth="yes"/>
      <point x="1600.99999951" y="1191.59999962"/>
      <point x="1226.7999997" y="1436.99999978"/>
      <point x="862.599999651" y="1436.99999978" type="curve" smooth="yes"/>
      <point x="498.79999961" y="1436.99999978"/>
      <point x="127.999999791" y="1191.79999962"/>
      <point x="127.999999791" y="703.199999943" type="curve" smooth="yes"/>
      <point x="127.999999791" y="214.600000262"/>
      <point x="498.999999613" y="-29.5999998897"/>
    </contour>
  </outline>
</glyph>
<glyph name="degree" format="1">
  <advance width="773.599999905"/>
  <unicode hex="00B0"/>
  <outline>
    <contour>
      <point x="380.800000012" y="922.399999946" type="curve" smooth="yes"/>
      <point x="277.200000137" y="922.399999946"/>
      <point x="195.000000194" y="1009.79999982"/>
      <point x="195.000000194" y="1111.99999978" type="curve" smooth="yes"/>
      <point x="195.000000194" y="1213.79999973"/>
      <point x="278.800000131" y="1299.79999959"/>
      <point x="381.000000015" y="1299.79999959" type="curve" smooth="yes"/>
      <point x="485.199999884" y="1299.79999959"/>
      <point x="567.799999818" y="1213.79999973"/>
      <point x="567.799999818" y="1111.99999978" type="curve" smooth="yes"/>
      <point x="567.799999818" y="1011.39999981"/>
      <point x="485.199999884" y="922.399999946"/>
    </contour>
    <contour>
      <point x="380.000000015" y="820.399999827" type="curve" smooth="yes"/>
      <point x="529.200000152" y="820.399999827"/>
      <point x="661.800000042" y="953.999999851"/>
      <point x="661.800000042" y="1109.7999998" type="curve" smooth="yes"/>
      <point x="661.800000042" y="1270.39999975"/>
      <point x="525.800000146" y="1398.39999975"/>
      <point x="380.000000015" y="1398.39999975" type="curve" smooth="yes"/>
      <point x="236.799999863" y="1398.39999975"/>
      <point x="100.199999973" y="1270.39999975"/>
      <point x="100.199999973" y="1109.7999998" type="curve" smooth="yes"/>
      <point x="100.199999973" y="947.399999872"/>
      <point x="237.799999848" y="820.399999827"/>
    </contour>
  </outline>
</glyph>
<glyph name="plusminus" format="1">
  <advance width="1097.40000013"/>
  <unicode hex="00B1"/>
  <outline>
    <contour>
      <point x="113.200000107" y="0.0" type="line"/>
      <point x="113.200000107" y="98.6000002921" type="line"/>
      <point x="987.600000069" y="98.6000002921" type="line"/>
      <point x="987.600000069" y="0.0" type="line"/>
    </contour>
    <contour>
      <point x="487.399999961" y="188.200000197" type="line"/>
      <point x="595.000000283" y="188.200000197" type="line"/>
      <point x="595.000000283" y="556.600000069" type="line"/>
      <point x="938.80000025" y="556.600000069" type="line"/>
      <point x="938.80000025" y="653.400000453" type="line"/>
      <point x="594.80000028" y="653.400000453" type="line"/>
      <point x="594.80000028" y="1013.80000032" type="line"/>
      <point x="487.399999961" y="1013.80000032" type="line"/>
      <point x="487.399999961" y="653.400000453" type="line"/>
      <point x="136.400000021" y="653.400000453" type="line"/>
      <point x="136.400000021" y="556.600000069" type="line"/>
      <point x="487.399999961" y="556.600000069" type="line"/>
    </contour>
  </outline>
</glyph>
<glyph name="acute" format="1">
  <advance width="596.999999791"/>
  <unicode hex="00B4"/>
  <outline>
    <contour>
      <point x="97.4000002444" y="1156.99999972" type="line"/>
      <point x="180.000000522" y="1156.99999972" type="line"/>
      <point x="459.800000578" y="1506.79999976" type="line"/>
      <point x="271.000000194" y="1506.79999976" type="line"/>
    </contour>
  </outline>
</glyph>
<glyph name="paragraph" format="1">
  <advance width="1038.80000006"/>
  <unicode hex="00B6"/>
  <outline>
    <contour>
      <point x="473.399999604" y="-147.599999949" type="line"/>
      <point x="558.199999988" y="-147.599999949" type="line"/>
      <point x="558.199999988" y="1337.59999944" type="line"/>
      <point x="786.999999598" y="1337.59999944" type="line"/>
      <point x="786.999999598" y="-147.599999949" type="line"/>
      <point x="866.999999925" y="-147.599999949" type="line"/>
      <point x="866.999999925" y="1337.59999944" type="line"/>
      <point x="932.799999952" y="1337.59999944" type="line"/>
      <point x="932.799999952" y="1440.7999997" type="line"/>
      <point x="490.600000188" y="1440.7999997" type="line" smooth="yes"/>
      <point x="184.400000349" y="1440.7999997"/>
      <point x="110.399999827" y="1258.40000007"/>
      <point x="110.399999827" y="1124.79999967" type="curve" smooth="yes"/>
      <point x="110.399999827" y="965.79999961"/>
      <point x="262.799999714" y="791.999999747"/>
      <point x="473.399999604" y="792.199999675" type="curve"/>
    </contour>
  </outline>
</glyph>
<glyph name="cedilla" format="1">
  <advance width="553.199999854"/>
  <unicode hex="00B8"/>
  <outline>
    <contour>
      <point x="127.599999696" y="-397.799999624" type="line"/>
      <point x="239.800000057" y="-397.799999624" type="line"/>
      <point x="273.800000131" y="2.23517417908e-07" type="line"/>
      <point x="223.599999771" y="2.23517417908e-07" type="line"/>
    </contour>
  </outline>
</glyph>
<glyph name="guillemotright" format="1">
  <advance width="933.80000034"/>
  <unicode hex="00BB"/>
  <outline>
    <contour>
      <point x="208.600000307" y="141.59999992" type="line"/>
      <point x="479.20000039" y="498.000000089" type="line"/>
      <point x="209.600000307" y="871.600000173" type="line"/>
      <point x="126.599999875" y="846.000000075" type="line"/>
      <point x="355.199999943" y="508.600000039" type="line"/>
      <point x="126.199999869" y="166.600000024" type="line"/>
    </contour>
    <contour>
      <point x="555.800000429" y="141.59999992" type="line"/>
      <point x="810.000000581" y="498.000000089" type="line"/>
      <point x="558.800000429" y="871.600000173" type="line"/>
      <point x="462.600000054" y="846.000000075" type="line"/>
      <point x="703.800000057" y="508.600000039" type="line"/>
      <point x="457.800000057" y="166.600000024" type="line"/>
    </contour>
  </outline>
</glyph>
<glyph name="threequarters" format="1">
  <advance width="1547.59999976"/>
  <unicode hex="00BE"/>
  <outline>
    <contour>
      <point x="339.59999989" y="580.399999931" type="curve" smooth="yes"/>
      <point x="474.399999931" y="580.399999931"/>
      <point x="580.400000051" y="670.399999902"/>
      <point x="580.400000051" y="815.99999997" type="curve" smooth="yes"/>
      <point x="580.400000051" y="908.199999928"/>
      <point x="526.00000006" y="982.799999893"/>
      <point x="421.400000229" y="1011.5999999" type="curve"/>
      <point x="523.800000161" y="1033.39999998"/>
      <point x="562.400000051" y="1112.40000001"/>
      <point x="562.400000051" y="1176.79999983" type="curve" smooth="yes"/>
      <point x="562.400000051" y="1319.99999985"/>
      <point x="448.799999997" y="1391.59999983"/>
      <point x="332.999999955" y="1391.59999983" type="curve" smooth="yes"/>
      <point x="252.799999908" y="1391.59999983"/>
      <point x="143.199999958" y="1358.79999983"/>
      <point x="91.3999999166" y="1301.79999985" type="curve"/>
      <point x="139.999999985" y="1223.79999973" type="line"/>
      <point x="177.563199979" y="1262.48799968"/>
      <point x="265.995999922" y="1291.54399966"/>
      <point x="328.988799922" y="1291.54399966" type="curve" smooth="yes"/>
      <point x="394.931999922" y="1291.54399966"/>
      <point x="445.999999836" y="1254.77599968"/>
      <point x="445.999999836" y="1175.59999982" type="curve" smooth="yes"/>
      <point x="445.999999836" y="1095.39999993"/>
      <point x="367.800000012" y="1056.59999995"/>
      <point x="274.599999994" y="1056.59999995" type="curve" smooth="yes"/>
      <point x="209.799999937" y="1056.59999995" type="line"/>
      <point x="209.799999937" y="953.999999806" type="line"/>
      <point x="277.599999979" y="954.199999809" type="line"/>
      <point x="382.199999958" y="954.199999809"/>
      <point x="462.999999851" y="909.199999869"/>
      <point x="462.999999851" y="819.599999964" type="curve" smooth="yes"/>
      <point x="462.999999851" y="725.798400049"/>
      <point x="402.240799906" y="682.128000089"/>
      <point x="328.388799905" y="682.128000089" type="curve" smooth="yes"/>
      <point x="270.273599913" y="682.128000089"/>
      <point x="185.113599947" y="706.802400068"/>
      <point x="137.799999982" y="748.600000039" type="curve"/>
      <point x="92.9999999404" y="662.399999902" type="line"/>
      <point x="147.999999985" y="602.99999994"/>
      <point x="262.599999875" y="580.399999931"/>
    </contour>
    <contour>
      <point x="1238.99999978" y="4.60000005364" type="line"/>
      <point x="1349.19999996" y="4.60000005364" type="line"/>
      <point x="1349.39999996" y="182.199999988" type="line"/>
      <point x="1466.39999992" y="182.199999988" type="line"/>
      <point x="1458.79999994" y="274.000000164" type="line"/>
      <point x="1351.19999996" y="274.000000164" type="line"/>
      <point x="1351.19999996" y="790.40000011" type="line"/>
      <point x="1229.79999977" y="790.40000011" type="line"/>
      <point x="884.599999771" y="259.400000215" type="line"/>
      <point x="884.599999771" y="182.199999988" type="line"/>
      <point x="1238.99999978" y="182.199999988" type="line"/>
    </contour>
    <contour>
      <point x="336.599999622" y="3.80000005662" type="line"/>
      <point x="467.799999893" y="3.80000005662" type="line"/>
      <point x="1311.00000013" y="1395.79999982" type="line"/>
      <point x="1181.79999988" y="1395.79999982" type="line"/>
    </contour>
    <contour>
      <point x="1016.60000001" y="274.000000164" type="line"/>
      <point x="1238.59999977" y="623.799999818" type="line"/>
      <point x="1238.59999977" y="274.000000164" type="line"/>
    </contour>
  </outline>
</glyph>
<glyph name="Eth" format="1">
  <advance width="1550.39999922"/>
  <unicode hex="00D0"/>
  <outline>
    <contour>
      <point x="390.999999911" y="118.200000346" type="line"/>
      <point x="674.199998856" y="194.000001475" type="line"/>
      <point x="962.199997783" y="194.000001475"/>
      <point x="1175.59999764" y="341.200000927"/>
      <point x="1175.59999764" y="651.599999771" type="curve"/>
      <point x="1175.59999764" y="1033.19999835"/>
      <point x="937.999998525" y="1175.1999985"/>
      <point x="631.599999666" y="1175.1999985" type="curve"/>
      <point x="390.999999911" y="1175.1999985" type="line"/>
      <point x="390.999999911" y="824.600001156" type="line"/>
      <point x="617.599999502" y="824.600001156" type="line" smooth="yes"/>
      <point x="689.200000569" y="824.600001156"/>
      <point x="726.200001121" y="735.400001079"/>
      <point x="726.200001121" y="664.200000018" type="curve" smooth="yes"/>
      <point x="726.200001121" y="604.799999133"/>
      <point x="490.000001386" y="572.599998653"/>
      <point x="430.600000501" y="572.599998653" type="curve" smooth="yes"/>
    </contour>
    <contour>
      <point x="268.39999941" y="-0.59999999404" type="line"/>
      <point x="356.200000718" y="532.999998018" type="line" smooth="yes"/>
      <point x="443.200002015" y="532.999998018"/>
      <point x="420.800003231" y="578.799998701"/>
      <point x="420.800003231" y="666.400000006" type="curve" smooth="yes"/>
      <point x="420.800003231" y="765.400001481"/>
      <point x="352.800002217" y="868.000001758"/>
      <point x="256.600000784" y="868.000001758" type="curve" smooth="yes"/>
      <point x="268.39999941" y="868.000001758" type="line"/>
      <point x="268.39999941" y="1253.59999819" type="line"/>
      <point x="505.399998114" y="1253.59999819" type="line"/>
      <point x="874.999996737" y="1253.59999819"/>
      <point x="1150.99999571" y="1092.39999811"/>
      <point x="1150.99999571" y="657.199999735" type="curve"/>
      <point x="1150.99999571" y="286.800001115"/>
      <point x="949.199996874" y="116.400001749"/>
      <point x="608.399998143" y="116.400001749" type="curve"/>
    </contour>
  </outline>
</glyph>
<glyph name="multiply" format="1">
  <advance width="795.600001618"/>
  <unicode hex="00D7"/>
  <outline>
    <contour>
      <point x="147.40000084" y="176.399999827" type="line"/>
      <point x="387.800000936" y="467.399999738" type="line"/>
      <point x="627.800001025" y="176.399999827" type="line"/>
      <point x="711.600001216" y="246.400000095" type="line"/>
      <point x="711.600001216" y="246.400000095"/>
      <point x="426.800001547" y="575.399999619"/>
      <point x="453.000001207" y="553.99999994" type="curve"/>
      <point x="711.600001216" y="860.999999806" type="line"/>
      <point x="631.600001007" y="931.00000006" type="line"/>
      <point x="387.800000936" y="639.600000143" type="line"/>
      <point x="144.200000852" y="931.00000006" type="line"/>
      <point x="62.6000006646" y="860.399999812" type="line"/>
      <point x="322.200000659" y="553.99999994" type="line"/>
      <point x="62.6000006646" y="247.000000089" type="line"/>
    </contour>
  </outline>
</glyph>
<glyph name="Oslash" format="1">
  <advance width="1553.0"/>
  <unicode hex="00D8"/>
  <outline>
    <contour>
      <point x="479.000000149" y="-212.00000006" type="line"/>
      <point x="1160.00000015" y="1527.99999994" type="line"/>
      <point x="1069.0" y="1562.0" type="line"/>
      <point x="393.0" y="-183.0" type="line"/>
    </contour>
    <contour>
      <point x="827.0" y="1349.0" type="move"/>
    </contour>
    <component base="O"/>
  </outline>
</glyph>
<glyph name="germandbls" format="1">
  <advance width="1114.80000018"/>
  <unicode hex="00DF"/>
  <outline>
    <contour>
      <point x="311.200000256" y="0.0" type="line"/>
      <point x="170.199999854" y="0.0" type="line"/>
      <point x="170.199999854" y="948.399999946" type="line" smooth="yes"/>
      <point x="170.199999854" y="1217.99999994"/>
      <point x="280.000000015" y="1382.99999993"/>
      <point x="559.400000006" y="1382.99999993" type="curve" smooth="yes"/>
      <point x="768.800000027" y="1382.99999993"/>
      <point x="896.200000271" y="1264.20000002"/>
      <point x="896.200000271" y="1095.59999985" type="curve" smooth="yes"/>
      <point x="896.200000271" y="903.199999705"/>
      <point x="694.600000411" y="790.799999982"/>
      <point x="694.600000411" y="703.00000006" type="curve" smooth="yes"/>
      <point x="694.600000411" y="592.320800133"/>
      <point x="1053.2000003" y="537.359200155"/>
      <point x="1053.2000003" y="266.200000092" type="curve" smooth="yes"/>
      <point x="1053.2000003" y="94.3999999911"/>
      <point x="942.200000212" y="-18.6000000089"/>
      <point x="756.600000128" y="-18.6000000089" type="curve" smooth="yes"/>
      <point x="633.80000025" y="-18.6000000089"/>
      <point x="514.000000313" y="17.7999999374"/>
      <point x="446.000000149" y="53.7999999672" type="curve"/>
      <point x="485.600000218" y="160.800000221" type="line"/>
      <point x="539.800000161" y="132.000000253"/>
      <point x="634.800000116" y="95.2000002861"/>
      <point x="743.199999988" y="95.2000002861" type="curve" smooth="yes"/>
      <point x="868.799999803" y="95.2000002861"/>
      <point x="916.399999872" y="178.800000086"/>
      <point x="916.399999872" y="260.800000146" type="curve" smooth="yes"/>
      <point x="916.399999872" y="462.236800025"/>
      <point x="565.599999979" y="509.432800032"/>
      <point x="565.599999979" y="691.200000003" type="curve" smooth="yes"/>
      <point x="565.599999979" y="844.000000015"/>
      <point x="758.199999943" y="900.799999967"/>
      <point x="758.99999994" y="1094.79999982" type="curve" smooth="yes"/>
      <point x="759.431199939" y="1198.59999973"/>
      <point x="695.799999923" y="1275.79999962"/>
      <point x="562.200000048" y="1275.79999962" type="curve" smooth="yes"/>
      <point x="383.400000155" y="1275.79999962"/>
      <point x="311.200000256" y="1187.79999961"/>
      <point x="311.200000256" y="954.599999905" type="curve" smooth="yes"/>
    </contour>
  </outline>
</glyph>
<glyph name="ae" format="1">
  <advance width="1655.79999982"/>
  <unicode hex="00E6"/>
  <outline>
    <contour>
      <point x="416.199999958" y="-14.2000000179" type="curve" smooth="yes"/>
      <point x="577.799999982" y="-14.2000000179"/>
      <point x="761.999999881" y="60.9999999404"/>
      <point x="843.399999887" y="156.59999986" type="curve"/>
      <point x="916.199999884" y="44.7999999523"/>
      <point x="1032.19999979" y="-18.0"/>
      <point x="1191.5999998" y="-18.0" type="curve" smooth="yes"/>
      <point x="1339.39999986" y="-18.0"/>
      <point x="1435.59999987" y="17.0"/>
      <point x="1526.99999984" y="72.0000000447" type="curve"/>
      <point x="1485.39999972" y="163.80000031" type="line"/>
      <point x="1381.5999999" y="110.600000367"/>
      <point x="1306.79999985" y="89.6000002921"/>
      <point x="1206.7999998" y="89.6000002921" type="curve"/>
      <point x="1017.99999993" y="90.000000298"/>
      <point x="887.800000146" y="197.000000179"/>
      <point x="878.600000143" y="469.999999836" type="curve"/>
      <point x="1397.60000002" y="469.999999836"/>
      <point x="1540.19999991" y="539.200000167"/>
      <point x="1540.19999991" y="735.799999952" type="curve" smooth="yes"/>
      <point x="1540.19999991" y="875.317433673"/>
      <point x="1430.54568444" y="1013.00000013"/>
      <point x="1190.39999986" y="1013.00000013" type="curve" smooth="yes"/>
      <point x="1038.99999991" y="1013.00000013"/>
      <point x="877.600000054" y="927.800000206"/>
      <point x="837.999999955" y="773.800000474" type="curve"/>
      <point x="822.399999857" y="946.000000194"/>
      <point x="690.199999988" y="1013.80000013"/>
      <point x="516.40000011" y="1013.80000013" type="curve" smooth="yes"/>
      <point x="394.789745257" y="1013.80000013"/>
      <point x="245.752822845" y="975.199933105"/>
      <point x="163.399999872" y="928.800000086" type="curve"/>
      <point x="206.599999964" y="831.199999839" type="line"/>
      <point x="289.999999881" y="875.199999765"/>
      <point x="422.59999992" y="907.399999827"/>
      <point x="525.599999949" y="907.399999827" type="curve"/>
      <point x="687.399999812" y="906.199999809"/>
      <point x="746.599999741" y="822.799999923"/>
      <point x="746.599999741" y="678.200000033" type="curve" smooth="yes"/>
      <point x="746.599999741" y="567.200000092" type="line"/>
      <point x="584.999999985" y="567.200000092" type="line" smooth="yes"/>
      <point x="264.000000104" y="567.200000092"/>
      <point x="113.599999934" y="483.600000158"/>
      <point x="113.599999934" y="281.00000006" type="curve" smooth="yes"/>
      <point x="113.599999934" y="77.400000155"/>
      <point x="249.399999872" y="-14.2000000179"/>
    </contour>
    <contour>
      <point x="435.000000015" y="93.8000002205" type="curve" smooth="yes"/>
      <point x="324.40000014" y="93.8000002205"/>
      <point x="248.000000283" y="152.000000164"/>
      <point x="248.000000283" y="286.599999979" type="curve" smooth="yes"/>
      <point x="248.000000283" y="412.999999836"/>
      <point x="322.000000238" y="472.399999827"/>
      <point x="598.199999869" y="472.399999827" type="curve" smooth="yes"/>
      <point x="747.599999756" y="472.399999827" type="line"/>
      <point x="748.399999768" y="398.199999869"/>
      <point x="763.199999794" y="310.199999899"/>
      <point x="789.399999738" y="247.200000033" type="curve"/>
      <point x="706.799999759" y="158.600000143"/>
      <point x="553.199999899" y="93.8000002205"/>
    </contour>
    <contour>
      <point x="882.000000134" y="563.200000107" type="curve"/>
      <point x="903.200000137" y="778.200000167"/>
      <point x="1021.20000018" y="910.59999989"/>
      <point x="1198.5999999" y="910.59999989" type="curve" smooth="yes"/>
      <point x="1350.99999969" y="910.59999989"/>
      <point x="1427.59999961" y="827.400000021"/>
      <point x="1427.59999961" y="731.800000027" type="curve" smooth="yes"/>
      <point x="1427.59999961" y="598.200000197"/>
      <point x="1266.59999987" y="563.200000107"/>
    </contour>
  </outline>
</glyph>
<glyph name="eth" format="1">
  <advance width="1199.79999954"/>
  <unicode hex="00F0"/>
  <outline>
    <contour>
      <point x="593.799999863" y="-24.9999999702" type="curve" smooth="yes"/>
      <point x="908.599999785" y="-24.9999999702"/>
      <point x="1055.39999995" y="192.399999827"/>
      <point x="1055.39999995" y="455.999999881" type="curve"/>
      <point x="1055.19999994" y="580.999999911"/>
      <point x="1028.5999999" y="689.399999946"/>
      <point x="962.199999943" y="814.799999833" type="curve"/>
      <point x="897.399999917" y="931.399999842"/>
      <point x="791.199999958" y="1062.39999975"/>
      <point x="632.000000179" y="1230.79999955" type="curve"/>
      <point x="868.199999973" y="1319.79999949" type="line"/>
      <point x="834.799999863" y="1419.39999975" type="line"/>
      <point x="561.999999985" y="1314.99999978" type="line"/>
      <point x="418.800000131" y="1467.39999966" type="line"/>
      <point x="250.599999681" y="1467.39999966" type="line"/>
      <point x="476.399999529" y="1264.19999965" type="line"/>
      <point x="259.19999975" y="1180.99999972" type="line"/>
      <point x="289.799999863" y="1076.79999948" type="line"/>
      <point x="547.199999735" y="1182.59999941" type="line"/>
      <point x="737.599999145" y="999.599999964"/>
      <point x="827.799999133" y="872.400000066"/>
      <point x="871.399999112" y="783.600000218" type="curve"/>
      <point x="811.799999207" y="830.40000008"/>
      <point x="719.199999377" y="892.399999887"/>
      <point x="566.999999806" y="892.399999887" type="curve" smooth="yes"/>
      <point x="304.599999785" y="892.399999887"/>
      <point x="132.199999765" y="712.59999992"/>
      <point x="132.199999765" y="444.999999955" type="curve" smooth="yes"/>
      <point x="132.199999765" y="201.399999872"/>
      <point x="286.999999925" y="-24.9999999702"/>
    </contour>
    <contour>
      <point x="599.199999869" y="79.8000003695" type="curve" smooth="yes"/>
      <point x="375.000000089" y="79.8000003695"/>
      <point x="270.000000119" y="261.000000089"/>
      <point x="270.000000119" y="443.599999964" type="curve" smooth="yes"/>
      <point x="270.000000119" y="621.799999878"/>
      <point x="389.000000015" y="780.799999654"/>
      <point x="593.199999869" y="780.799999654" type="curve" smooth="yes"/>
      <point x="810.199999675" y="780.799999654"/>
      <point x="925.999999598" y="599.599999934"/>
      <point x="925.999999598" y="430.0" type="curve" smooth="yes"/>
      <point x="925.999999598" y="237.200000152"/>
      <point x="809.999999687" y="79.8000003695"/>
    </contour>
  </outline>
</glyph>
<glyph name="divide" format="1">
  <advance width="1053.20000085"/>
  <unicode hex="00F7"/>
  <outline>
    <contour>
      <point x="436.600000307" y="20.3999999911" type="line"/>
      <point x="574.200000763" y="20.3999999911" type="line"/>
      <point x="574.200000763" y="210.200000256" type="line"/>
      <point x="436.600000307" y="210.200000256" type="line"/>
    </contour>
    <contour>
      <point x="79.6000002772" y="486.399999842" type="line"/>
      <point x="959.600000679" y="486.399999842" type="line"/>
      <point x="959.600000679" y="606.000000089" type="line"/>
      <point x="79.6000002772" y="606.000000089" type="line"/>
    </contour>
    <contour>
      <point x="436.600000307" y="872.999999717" type="line"/>
      <point x="614.200000644" y="872.999999717" type="line"/>
      <point x="614.200000644" y="1065.39999993" type="line"/>
      <point x="436.600000307" y="1065.39999993" type="line"/>
    </contour>
  </outline>
</glyph>
<glyph name="Dcroat" format="1">
  <advance width="1450.0"/>
  <unicode hex="0110"/>
  <outline>
    <contour>
      <point x="57.0" y="652.0" type="line"/>
      <point x="154.400001451" y="719.999999747" type="line"/>
      <point x="544.0" y="737.0" type="line"/>
      <point x="446.599998549" y="669.000000253" type="line"/>
    </contour>
    <component base="D"/>
  </outline>
</glyph>
<glyph name="Hbar" format="1">
  <advance width="1517.39999923"/>
  <unicode hex="0126"/>
  <outline>
    <contour>
      <point x="230.79999955" y="0.0" type="line"/>
      <point x="282.200000316" y="821.599996939" type="line"/>
      <point x="211.800000578" y="940.599998713" type="line"/>
      <point x="330.800002351" y="994.199998513" type="line"/>
      <point x="401.200002089" y="875.19999674" type="line"/>
      <point x="452.800002858" y="1102.39999589" type="line"/>
      <point x="523.200002596" y="1315.99999908" type="line"/>
      <point x="538.200002819" y="1088.79999992" type="line"/>
      <point x="1222.20000027" y="1116.20000033" type="line"/>
      <point x="1207.20000005" y="1343.39999948" type="line"/>
      <point x="1277.59999979" y="1369.39999987" type="line"/>
      <point x="1225.99999902" y="1142.20000072" type="line"/>
      <point x="1295.59999876" y="1116.20000033" type="line"/>
      <point x="1176.59999698" y="1062.60000053" type="line"/>
      <point x="1106.99999724" y="1088.60000092" type="line"/>
      <point x="1055.59999648" y="267.000003979" type="line"/>
      <point x="985.19999674" y="241.000003591" type="line"/>
      <point x="970.199996516" y="767.40000163" type="line"/>
      <point x="286.199999064" y="740.000001222" type="line"/>
      <point x="301.199999288" y="213.600003183" type="line"/>
    </contour>
    <contour>
      <point x="352.600000054" y="766.40000008" type="line"/>
      <point x="1036.59999751" y="822.400000915" type="line"/>
      <point x="1155.59999928" y="1035.20000012" type="line"/>
      <point x="471.600001827" y="979.199999288" type="line"/>
    </contour>
  </outline>
</glyph>
<glyph name="hbar" format="1">
  <advance width="1165.19999954"/>
  <unicode hex="0127"/>
  <outline>
    <contour>
      <point x="237.799999446" y="0.0" type="line"/>
      <point x="353.399999931" y="0.0" type="line"/>
      <point x="353.399999931" y="679.600000024" type="line"/>
      <point x="371.400000021" y="777.399999976"/>
      <point x="508.199999869" y="907.999999762"/>
      <point x="681.199999645" y="907.999999762" type="curve" smooth="yes"/>
      <point x="870.999999389" y="907.999999762"/>
      <point x="901.999999374" y="791.999999925"/>
      <point x="901.999999374" y="546.600000218" type="curve" smooth="yes"/>
      <point x="901.999999374" y="0.0" type="line"/>
      <point x="1017.59999986" y="0.0" type="line"/>
      <point x="1017.59999986" y="600.600000054" type="line" smooth="yes"/>
      <point x="1017.59999986" y="847.600000277"/>
      <point x="943.999999583" y="1019.60000005"/>
      <point x="728.999999672" y="1019.60000005" type="curve" smooth="yes"/>
      <point x="565.799999818" y="1019.60000005"/>
      <point x="440.999999896" y="957.000000134"/>
      <point x="353.399999931" y="846.000000268" type="curve"/>
      <point x="353.399999931" y="1171.99999976" type="line"/>
      <point x="600.599999979" y="1171.99999976" type="line"/>
      <point x="600.599999979" y="1264.99999994" type="line"/>
      <point x="353.399999931" y="1264.99999994" type="line"/>
      <point x="353.399999931" y="1369.40000007" type="line"/>
      <point x="237.799999446" y="1351.40000007" type="line"/>
      <point x="237.799999446" y="1264.99999994" type="line"/>
      <point x="154.999999419" y="1264.99999994" type="line"/>
      <point x="154.999999419" y="1171.99999976" type="line"/>
      <point x="237.799999446" y="1171.99999976" type="line"/>
    </contour>
  </outline>
</glyph>
<glyph name="dotlessi" format="1">
  <advance width="394.600000471"/>
  <unicode hex="0131"/>
  <outline>
    <contour>
      <point x="144.199999973" y="0.0" type="line"/>
      <point x="262.600000486" y="0.0" type="line"/>
      <point x="262.600000486" y="993.600000083" type="line"/>
      <point x="144.199999973" y="993.600000083" type="line"/>
    </contour>
  </outline>
</glyph>
<glyph name="Eng" format="1">
  <advance width="1310.79999976"/>
  <unicode hex="014A"/>
  <outline>
    <contour>
      <point x="781.199999839" y="-295.400000036" type="curve" smooth="yes"/>
      <point x="818.80000098" y="-295.400000036"/>
      <point x="805.600001529" y="-263.199999571"/>
      <point x="670.400002033" y="-192.199998751" type="curve" smooth="yes"/>
      <point x="653.600002095" y="14.0000032037" type="line" smooth="yes"/>
      <point x="803.200001538" y="66.6000041366"/>
      <point x="764.600001141" y="103.000004694"/>
      <point x="730.000000194" y="103.000004694" type="curve" smooth="yes"/>
      <point x="959.199998811" y="103.000004694"/>
      <point x="938.199998245" y="151.400004268"/>
      <point x="919.599997967" y="372.600003064" type="curve"/>
      <point x="915.199997902" y="1024.40000118" type="line"/>
      <point x="915.199997902" y="1233.20000041"/>
      <point x="805.599997357" y="1299.60000016"/>
      <point x="617.599998057" y="1299.60000016" type="curve"/>
      <point x="403.999998853" y="1299.60000016"/>
      <point x="279.199999318" y="907.999996617"/>
      <point x="205.599999592" y="807.199996993" type="curve"/>
      <point x="263.20000045" y="0.0" type="line"/>
      <point x="212.800000638" y="192.60000287" type="line"/>
      <point x="228.600000873" y="219.800003275"/>
      <point x="256.000001341" y="1330.19999935"/>
      <point x="277.200001657" y="1330.19999935" type="curve" smooth="yes"/>
      <point x="306.600002095" y="1330.19999935"/>
      <point x="368.800002083" y="1314.59999911"/>
      <point x="368.800002083" y="1271.99999848" type="curve" smooth="yes"/>
      <point x="378.400002047" y="947.799996987" type="line" smooth="yes"/>
      <point x="553.600001395" y="1096.99999581"/>
      <point x="673.800000846" y="1100.9999956"/>
      <point x="777.999999866" y="1100.9999956" type="curve" smooth="yes"/>
      <point x="949.799999207" y="1100.9999956"/>
      <point x="1029.79999869" y="982.799996048"/>
      <point x="1021.79999857" y="742.599996954" type="curve"/>
      <point x="1025.79999863" y="63.799998641" type="line"/>
      <point x="1032.79999873" y="-155.400000557"/>
      <point x="1034.39999887" y="-295.400000036"/>
    </contour>
  </outline>
</glyph>
<glyph name="eng" format="1">
  <advance width="1117.79999971"/>
  <unicode hex="014B"/>
  <outline>
    <contour>
      <point x="591.799999967" y="-256.000000283" type="line"/>
      <point x="655.599999964" y="-256.000000283" type="line" smooth="yes"/>
      <point x="907.000000209" y="-256.000000283"/>
      <point x="941.400000304" y="-117.000000253"/>
      <point x="941.600000307" y="157.799999788" type="curve"/>
      <point x="941.600000307" y="603.200000137" type="line" smooth="yes"/>
      <point x="941.600000307" y="876.600000054"/>
      <point x="846.200000241" y="1012.20000011"/>
      <point x="618.400000215" y="1012.20000011" type="curve" smooth="yes"/>
      <point x="475.000000224" y="1012.20000011"/>
      <point x="370.200000241" y="957.40000008"/>
      <point x="301.4000002" y="839.600000232" type="curve"/>
      <point x="284.600000173" y="992.000000089" type="line"/>
      <point x="159.799999863" y="992.000000089" type="line"/>
      <point x="159.799999863" y="0.0" type="line"/>
      <point x="302.200000286" y="0.0" type="line"/>
      <point x="302.200000286" y="562.399999753" type="line" smooth="yes"/>
      <point x="302.200000286" y="601.999999925"/>
      <point x="305.200000286" y="638.400000066"/>
      <point x="307.800000325" y="677.000000134" type="curve"/>
      <point x="335.800000355" y="804.99999994"/>
      <point x="409.000000387" y="903.999999776"/>
      <point x="596.600000054" y="903.999999776" type="curve" smooth="yes"/>
      <point x="760.999999911" y="903.999999776"/>
      <point x="798.999999881" y="796.999999866"/>
      <point x="799.199999884" y="626.399999946" type="curve"/>
      <point x="799.199999884" y="108.399999797" type="line" smooth="yes"/>
      <point x="799.199999884" y="-97.0000000447"/>
      <point x="782.59999989" y="-123.400000066"/>
      <point x="617.0" y="-123.400000066" type="curve" smooth="yes"/>
      <point x="586.59999989" y="-123.400000066" type="line"/>
    </contour>
  </outline>
</glyph>
<glyph name="OE" format="1">
  <advance width="1843.60000029"/>
  <unicode hex="0152"/>
  <outline>
    <contour>
      <point x="786.999999776" y="-22.5999999791" type="curve" smooth="yes"/>
      <point x="438.800001502" y="-22.5999999791"/>
      <point x="310.000002399" y="220.599999249"/>
      <point x="325.200002626" y="588.599998057" type="curve"/>
      <point x="336.400002584" y="906.199996874"/>
      <point x="533.200001851" y="1123.19999583"/>
      <point x="821.200000778" y="1123.19999583" type="curve"/>
      <point x="937.200000346" y="1123.19999583"/>
      <point x="1207.80000253" y="1083.99999598"/>
      <point x="1251.80000237" y="1033.59999616" type="curve"/>
      <point x="1255.40000242" y="1140.79999653" type="line"/>
      <point x="1544.199999" y="1140.79999653" type="line"/>
      <point x="1533.79999904" y="1140.79999797" type="line"/>
      <point x="1318.20000193" y="1140.79999797" type="line"/>
      <point x="1318.20000193" y="759.600000143" type="line"/>
      <point x="1503.39999916" y="759.600000143" type="line"/>
      <point x="1503.39999916" y="748.200001433" type="line"/>
      <point x="1323.400002" y="748.200001433" type="line"/>
      <point x="1327.00000206" y="346.800003693" type="line"/>
      <point x="1509.99999821" y="346.800003693" type="line"/>
      <point x="1501.19999824" y="253.200003818" type="line"/>
      <point x="1484.19999799" y="264.000003979"/>
      <point x="1043.19999926" y="270.200004071"/>
      <point x="1018.79999889" y="270.200004071" type="curve" smooth="yes"/>
      <point x="944.199997783" y="270.200004071"/>
      <point x="887.999996945" y="278.600002959"/>
      <point x="887.399996936" y="199.200001776" type="curve"/>
      <point x="878.599996969" y="88.4000006914"/>
      <point x="789.199998319" y="-22.5999999791"/>
    </contour>
    <contour>
      <point x="789.799999759" y="94.2000003457" type="curve" smooth="yes"/>
      <point x="815.799998641" y="94.4000003487"/>
      <point x="913.199997783" y="192.600000829"/>
      <point x="937.99999769" y="250.400001571" type="curve"/>
      <point x="938.399997696" y="301.600002334"/>
      <point x="966.599998116" y="1200.79999985"/>
      <point x="1018.79999889" y="1200.79999985" type="curve" smooth="yes"/>
      <point x="987.799999535" y="1243.19999969"/>
      <point x="921.200000167" y="1268.59999941"/>
      <point x="841.200000703" y="1255.99999923" type="curve"/>
      <point x="584.40000166" y="1255.99999923"/>
      <point x="424.400002256" y="922.59999764"/>
      <point x="415.600002289" y="636.199998707" type="curve"/>
      <point x="403.400002107" y="332.599999636"/>
      <point x="483.000001416" y="99.0000003278"/>
    </contour>
    <contour>
      <point x="921.800000146" y="1079.19999598" type="move"/>
    </contour>
  </outline>
</glyph>
<glyph name="uni0237" format="1">
  <advance width="419.60000053"/>
  <unicode hex="0237"/>
  <outline>
    <contour>
      <point x="-51.9999998212" y="-434.199999794" type="line"/>
      <point x="0.800000205636" y="-434.199999794" type="line" smooth="yes"/>
      <point x="229.200000539" y="-434.199999794"/>
      <point x="276.800000593" y="-365.599999532"/>
      <point x="276.800000593" y="-134.39999935" type="curve" smooth="yes"/>
      <point x="276.800000593" y="1007.40000004" type="line"/>
      <point x="119.800000235" y="1007.40000004" type="line"/>
      <point x="119.800000235" y="-101.599999636" type="line" smooth="yes"/>
      <point x="119.800000235" y="-256.199999601"/>
      <point x="147.600000083" y="-311.799999535"/>
      <point x="-27.7999997884" y="-311.799999535" type="curve" smooth="yes"/>
      <point x="-82.5999998152" y="-311.799999535" type="line"/>
    </contour>
  </outline>
</glyph>
<glyph name="uni02BC" format="1">
  <advance width="507.599999353"/>
  <unicode hex="02BC"/>
  <outline>
    <contour>
      <point x="133.399999842" y="1044.19999938" type="line"/>
      <point x="223.200000048" y="1044.19999938" type="line"/>
      <point x="374.199999675" y="1456.19999963" type="line"/>
      <point x="254.599999368" y="1456.19999963" type="line"/>
    </contour>
  </outline>
</glyph>
<glyph name="circumflex" format="1">
  <advance width="747.19999975"/>
  <unicode hex="02C6"/>
  <outline>
    <contour>
      <point x="124.599999651" y="1168.19999954" type="line"/>
      <point x="219.199999973" y="1168.19999954" type="line"/>
      <point x="368.399999946" y="1434.19999927" type="line"/>
      <point x="510.400000006" y="1168.19999954" type="line"/>
      <point x="605.200000346" y="1168.19999954" type="line"/>
      <point x="458.000000015" y="1516.19999962" type="line"/>
      <point x="285.199999928" y="1516.19999962" type="line"/>
    </contour>
  </outline>
</glyph>
<glyph name="caron" format="1">
  <advance width="746.999999747"/>
  <unicode hex="02C7"/>
  <outline>
    <contour>
      <point x="272.599999994" y="1174.39999963" type="line"/>
      <point x="444.200000063" y="1174.39999963" type="line"/>
      <point x="607.400000378" y="1516.19999962" type="line"/>
      <point x="507.999999985" y="1516.19999962" type="line"/>
      <point x="357.199999988" y="1254.79999995" type="line"/>
      <point x="220.800000012" y="1516.19999962" type="line"/>
      <point x="122.999999627" y="1516.19999962" type="line"/>
    </contour>
  </outline>
</glyph>
<glyph name="breve" format="1">
  <advance width="711.599999666"/>
  <unicode hex="02D8"/>
  <outline>
    <contour>
      <point x="353.59999986" y="1208.3999996" type="curve" smooth="yes"/>
      <point x="450.600000069" y="1208.3999996"/>
      <point x="567.600000069" y="1269.39999966"/>
      <point x="567.600000069" y="1423.39999971" type="curve"/>
      <point x="487.399999738" y="1423.39999971" type="line"/>
      <point x="487.399999738" y="1327.99999984"/>
      <point x="416.399999902" y="1281.59999992"/>
      <point x="353.59999986" y="1281.59999992" type="curve" smooth="yes"/>
      <point x="290.799999818" y="1281.59999992"/>
      <point x="224.799999967" y="1327.99999984"/>
      <point x="224.799999967" y="1423.39999971" type="curve"/>
      <point x="143.199999645" y="1423.39999971" type="line"/>
      <point x="143.199999645" y="1268.79999967"/>
      <point x="257.599999651" y="1208.3999996"/>
    </contour>
  </outline>
</glyph>
<glyph name="dotaccent" format="1">
  <advance width="333.800000519"/>
  <unicode hex="02D9"/>
  <outline>
    <contour>
      <point x="101.400000125" y="1197.79999974" type="line"/>
      <point x="236.200000361" y="1197.79999974" type="line"/>
      <point x="236.200000361" y="1367.5999999" type="line"/>
      <point x="101.400000125" y="1367.5999999" type="line"/>
    </contour>
  </outline>
</glyph>
<glyph name="ring" format="1">
  <advance width="573.800000027"/>
  <unicode hex="02DA"/>
  <outline>
    <contour>
      <point x="288.200000033" y="1236.79999964" type="curve" smooth="yes"/>
      <point x="236.000000015" y="1236.79999964"/>
      <point x="196.800000057" y="1278.99999964"/>
      <point x="196.800000057" y="1330.19999965" type="curve" smooth="yes"/>
      <point x="196.800000057" y="1380.59999964"/>
      <point x="236.800000027" y="1423.59999965"/>
      <point x="288.200000033" y="1423.59999965" type="curve" smooth="yes"/>
      <point x="340.000000045" y="1423.59999965"/>
      <point x="379.800000012" y="1380.79999964"/>
      <point x="379.800000012" y="1330.19999965" type="curve" smooth="yes"/>
      <point x="379.800000012" y="1279.19999965"/>
      <point x="340.000000045" y="1236.79999964"/>
    </contour>
    <contour>
      <point x="288.200000033" y="1169.39999951" type="curve" smooth="yes"/>
      <point x="384.400000155" y="1169.39999951"/>
      <point x="456.600000173" y="1239.9999996"/>
      <point x="456.600000173" y="1330.99999964" type="curve" smooth="yes"/>
      <point x="456.600000173" y="1421.79999968"/>
      <point x="384.800000161" y="1492.39999977"/>
      <point x="288.200000033" y="1492.39999977" type="curve" smooth="yes"/>
      <point x="191.799999908" y="1492.39999977"/>
      <point x="119.799999893" y="1421.99999969"/>
      <point x="119.799999893" y="1330.99999964" type="curve" smooth="yes"/>
      <point x="119.799999893" y="1239.9999996"/>
      <point x="191.999999911" y="1169.39999951"/>
    </contour>
  </outline>
</glyph>
<glyph name="ogonek" format="1">
  <advance width="548.799999833"/>
  <unicode hex="02DB"/>
  <outline>
    <contour>
      <point x="285.200000018" y="-373.599999875" type="curve" smooth="yes"/>
      <point x="329.800000072" y="-373.599999875"/>
      <point x="388.40000008" y="-360.199999869"/>
      <point x="415.400000185" y="-347.199999839" type="curve"/>
      <point x="415.400000185" y="-347.199999839"/>
      <point x="418.000000149" y="-252.599999666"/>
      <point x="418.600000143" y="-252.599999666" type="curve" smooth="yes"/>
      <point x="398.600000173" y="-260.799999654"/>
      <point x="356.40000011" y="-281.999999672"/>
      <point x="308.400000095" y="-281.999999672" type="curve" smooth="yes"/>
      <point x="256.876000146" y="-281.999999672"/>
      <point x="235.298400129" y="-255.467199641"/>
      <point x="235.298400129" y="-220.516799644" type="curve" smooth="yes"/>
      <point x="235.298400129" y="-146.399999715"/>
      <point x="324.022399918" y="-27.1616799212"/>
      <point x="377.599999994" y="11.000000149" type="curve"/>
      <point x="306.59999986" y="14.2000001967" type="line"/>
      <point x="206.304799969" y="-23.404719816"/>
      <point x="110.361599943" y="-138.502399667"/>
      <point x="110.361599943" y="-240.979999743" type="curve" smooth="yes"/>
      <point x="110.361599943" y="-318.844799878"/>
      <point x="166.229600074" y="-373.599999875"/>
    </contour>
  </outline>
</glyph>
<glyph name="tilde" format="1">
  <advance width="851.599999398"/>
  <unicode hex="02DC"/>
  <outline>
    <contour>
      <point x="205.799999833" y="1193.99999967" type="line"/>
      <point x="211.907199866" y="1258.78399968"/>
      <point x="234.91839987" y="1285.50399966"/>
      <point x="268.097599862" y="1285.50399966" type="curve" smooth="yes"/>
      <point x="337.382399831" y="1285.50399966"/>
      <point x="451.924799743" y="1193.99999967"/>
      <point x="548.512799775" y="1193.99999967" type="curve"/>
      <point x="616.532800028" y="1193.99999967"/>
      <point x="674.799999967" y="1240.976"/>
      <point x="674.799999967" y="1373.79999989" type="curve"/>
      <point x="599.199999779" y="1373.79999989" type="line"/>
      <point x="592.651999755" y="1312.86399991"/>
      <point x="572.687199763" y="1292.63999992"/>
      <point x="543.03519978" y="1292.63999992" type="curve" smooth="yes"/>
      <point x="483.176799813" y="1292.63999992"/>
      <point x="383.887199885" y="1374.87999989"/>
      <point x="275.518399819" y="1374.87999989" type="curve" smooth="yes"/>
      <point x="195.159999567" y="1374.87999989"/>
      <point x="133.399999633" y="1326.05599959"/>
      <point x="133.399999633" y="1193.99999967" type="curve"/>
    </contour>
  </outline>
</glyph>
<glyph name="hungarumlaut" format="1">
  <advance width="693.400000647"/>
  <unicode hex="02DD"/>
  <outline>
    <contour>
      <point x="105.400000066" y="1178.79999951" type="line"/>
      <point x="175.600000337" y="1178.79999951" type="line"/>
      <point x="369.800000787" y="1472.39999968" type="line"/>
      <point x="233.400000453" y="1472.39999968" type="line"/>
    </contour>
    <contour>
      <point x="319.400000289" y="1178.79999951" type="line"/>
      <point x="391.600000545" y="1178.79999951" type="line"/>
      <point x="625.400000885" y="1472.39999968" type="line"/>
      <point x="480.400000572" y="1472.39999968" type="line"/>
    </contour>
  </outline>
</glyph>
<glyph name="uni0307" format="1">
  <advance width="307.800000533"/>
  <unicode hex="0307"/>
  <outline>
    <contour>
      <point x="81.4000001997" y="1209.39999957" type="line"/>
      <point x="216.200000435" y="1209.39999957" type="line"/>
      <point x="216.200000435" y="1378.99999973" type="line"/>
      <point x="81.4000001997" y="1378.99999973" type="line"/>
    </contour>
  </outline>
</glyph>
<glyph name="uni0311" format="1">
  <advance width="656.999999881"/>
  <unicode hex="0311"/>
  <outline>
    <contour>
      <point x="113.799999759" y="1201.9999997" type="curve"/>
      <point x="193.000000089" y="1201.9999997" type="line"/>
      <point x="193.000000089" y="1298.39999956"/>
      <point x="250.600000054" y="1343.79999949"/>
      <point x="323.199999973" y="1343.79999949" type="curve" smooth="yes"/>
      <point x="394.399999902" y="1343.79999949"/>
      <point x="455.59999986" y="1297.79999956"/>
      <point x="455.59999986" y="1201.9999997" type="curve"/>
      <point x="536.600000188" y="1201.9999997" type="line"/>
      <point x="536.600000188" y="1360.19999968"/>
      <point x="426.400000095" y="1440.79999964"/>
      <point x="321.599999994" y="1440.79999964" type="curve" smooth="yes"/>
      <point x="217.999999881" y="1440.79999964"/>
      <point x="113.799999759" y="1360.79999967"/>
    </contour>
  </outline>
</glyph>
<glyph name="uni031B" format="1">
  <advance width="452.800000235"/>
  <unicode hex="031B"/>
  <outline>
    <contour>
      <point x="192.599999994" y="461.600000083" type="line"/>
      <point x="201.600000024" y="438.600000009"/>
      <point x="216.000000015" y="388.800000027"/>
      <point x="216.000000015" y="342.00000006" type="curve" smooth="yes"/>
      <point x="216.000000015" y="288.200000063"/>
      <point x="195.799999997" y="238.800000101"/>
      <point x="125.399999976" y="238.800000101" type="curve" smooth="yes"/>
      <point x="120.599999994" y="238.800000101"/>
      <point x="113.399999991" y="238.800000101"/>
      <point x="107.000000015" y="239.600000098" type="curve"/>
      <point x="107.000000015" y="150.600000054" type="line"/>
      <point x="125.800000012" y="147.800000057"/>
      <point x="143.600000009" y="146.800000057"/>
      <point x="159.800000012" y="146.800000057" type="curve" smooth="yes"/>
      <point x="290.00000003" y="146.800000057"/>
      <point x="327.200000092" y="223.199999988"/>
      <point x="327.200000092" y="305.200000018" type="curve" smooth="yes"/>
      <point x="327.200000092" y="367.799999967"/>
      <point x="306.200000107" y="431.799999952"/>
      <point x="292.400000051" y="461.600000083" type="curve"/>
    </contour>
  </outline>
</glyph>
<glyph name="Delta" format="1">
  <advance width="1441.99999876"/>
  <unicode hex="0394"/>
  <outline>
    <contour>
      <point x="132.799999446" y="0.0" type="line"/>
      <point x="782.800001353" y="1081.59999597" type="line"/>
      <point x="791.799999565" y="1356.60000007" type="line"/>
      <point x="1166.19999735" y="275.000004098" type="line"/>
    </contour>
    <contour>
      <point x="326.599999771" y="126.200000226" type="line"/>
      <point x="1052.39999819" y="315.00000304" type="line"/>
      <point x="778.400000349" y="1018.1999969" type="line"/>
    </contour>
  </outline>
</glyph>
<glyph name="Lambda" format="1">
  <advance width="1441.99999876"/>
  <unicode hex="039B"/>
  <outline>
    <contour>
      <point x="133.39999944" y="0.0" type="line"/>
      <point x="574.799998492" y="1083.99999596" type="line"/>
      <point x="783.399999186" y="1314.9999994" type="line"/>
      <point x="1267.99999887" y="0.0" type="line"/>
      <point x="1182.79999986" y="0.0" type="line"/>
      <point x="735.19999969" y="1242.00000048" type="line"/>
      <point x="357.600000441" y="274.000004083" type="line"/>
    </contour>
  </outline>
</glyph>
<glyph name="Pi" format="1">
  <advance width="1356.79999974"/>
  <unicode hex="03A0"/>
  <outline>
    <contour>
      <point x="140.199999943" y="0.0" type="line"/>
      <point x="175.600000471" y="1083.99999596" type="line"/>
      <point x="1036.39999726" y="1326.99999958" type="line"/>
      <point x="1176.19999935" y="243.000003621" type="line"/>
      <point x="1056.99999979" y="0.0" type="line"/>
      <point x="1092.40000032" y="982.39999634" type="line"/>
      <point x="471.600002632" y="1256.40000042" type="line"/>
      <point x="260.999999493" y="274.000004083" type="line"/>
    </contour>
  </outline>
</glyph>
<glyph name="Sigma" format="1">
  <advance width="1100.19999966"/>
  <unicode hex="03A3"/>
  <outline>
    <contour>
      <point x="139.199999958" y="0.0" type="line"/>
      <point x="305.800002441" y="1079.19999598" type="line"/>
      <point x="951.200000063" y="1123.19999664" type="line"/>
      <point x="837.599998429" y="1054.39999689" type="line"/>
      <point x="268.800000548" y="1129.39999801" type="line"/>
      <point x="369.60000205" y="710.999999568" type="line"/>
      <point x="883.200000137" y="753.000000194" type="line"/>
      <point x="782.399998635" y="681.800000459" type="line"/>
      <point x="268.800000548" y="745.200001404" type="line"/>
      <point x="375.000002131" y="293.200003088" type="line"/>
      <point x="943.600000054" y="337.200003743" type="line"/>
      <point x="771.999997601" y="268.400003999" type="line"/>
    </contour>
  </outline>
</glyph>
